G75*
%MOIN*%
%OFA0B0*%
%FSLAX24Y24*%
%IPPOS*%
%LPD*%
%AMOC8*
5,1,8,0,0,1.08239X$1,22.5*
%
%ADD10C,0.0050*%
%ADD11C,0.0951*%
%ADD12C,0.1047*%
D10*
X003333Y005334D02*
X003288Y005390D01*
X003255Y005454D01*
X003234Y005524D01*
X003228Y005596D01*
X003234Y005668D01*
X003254Y005738D01*
X003288Y005803D01*
X003333Y005860D01*
X003389Y005907D01*
X003452Y005942D01*
X003522Y005964D01*
X003594Y005972D01*
X003660Y005967D01*
X003724Y005951D01*
X003784Y005923D01*
X003839Y005886D01*
X003886Y005840D01*
X003925Y005786D01*
X003954Y005727D01*
X003971Y005663D01*
X003978Y005597D01*
X003971Y005531D01*
X003953Y005468D01*
X003924Y005408D01*
X003886Y005354D01*
X003838Y005308D01*
X003783Y005271D01*
X003723Y005244D01*
X003659Y005228D01*
X003593Y005223D01*
X003521Y005231D01*
X003452Y005253D01*
X003389Y005287D01*
X003333Y005334D01*
X003330Y005338D02*
X003869Y005338D01*
X003909Y005387D02*
X003291Y005387D01*
X003265Y005435D02*
X003938Y005435D01*
X003958Y005484D02*
X003246Y005484D01*
X003234Y005532D02*
X003971Y005532D01*
X003976Y005581D02*
X003229Y005581D01*
X003231Y005629D02*
X003975Y005629D01*
X003967Y005678D02*
X003237Y005678D01*
X003251Y005726D02*
X003954Y005726D01*
X003931Y005775D02*
X003273Y005775D01*
X003304Y005823D02*
X003898Y005823D01*
X003854Y005872D02*
X003347Y005872D01*
X003413Y005920D02*
X003789Y005920D01*
X003640Y005969D02*
X003563Y005969D01*
X003386Y005290D02*
X003811Y005290D01*
X003711Y005241D02*
X003489Y005241D01*
X003590Y008226D02*
X003518Y008234D01*
X003449Y008256D01*
X003386Y008290D01*
X003330Y008337D01*
X003285Y008393D01*
X003252Y008457D01*
X003231Y008527D01*
X003225Y008599D01*
X003231Y008671D01*
X003251Y008741D01*
X003285Y008806D01*
X003330Y008863D01*
X003386Y008910D01*
X003449Y008945D01*
X003519Y008967D01*
X003591Y008975D01*
X003657Y008970D01*
X003721Y008954D01*
X003781Y008926D01*
X003836Y008889D01*
X003883Y008843D01*
X003922Y008789D01*
X003951Y008730D01*
X003968Y008666D01*
X003975Y008600D01*
X003968Y008534D01*
X003950Y008471D01*
X003921Y008411D01*
X003883Y008357D01*
X003835Y008311D01*
X003781Y008274D01*
X003720Y008247D01*
X003656Y008231D01*
X003590Y008226D01*
X003473Y008248D02*
X003722Y008248D01*
X003814Y008297D02*
X003378Y008297D01*
X003324Y008345D02*
X003870Y008345D01*
X003909Y008394D02*
X003285Y008394D01*
X003260Y008442D02*
X003936Y008442D01*
X003956Y008491D02*
X003242Y008491D01*
X003230Y008539D02*
X003969Y008539D01*
X003974Y008588D02*
X003226Y008588D01*
X003228Y008636D02*
X003971Y008636D01*
X003963Y008685D02*
X003235Y008685D01*
X003249Y008733D02*
X003949Y008733D01*
X003926Y008782D02*
X003272Y008782D01*
X003304Y008830D02*
X003893Y008830D01*
X003847Y008879D02*
X003349Y008879D01*
X003417Y008927D02*
X003780Y008927D01*
X013952Y021253D02*
X014021Y021231D01*
X014093Y021223D01*
X014159Y021228D01*
X014223Y021244D01*
X014283Y021271D01*
X014338Y021308D01*
X014386Y021354D01*
X014424Y021408D01*
X014453Y021468D01*
X014471Y021531D01*
X014478Y021597D01*
X014471Y021663D01*
X014454Y021727D01*
X014425Y021786D01*
X014386Y021840D01*
X014339Y021886D01*
X014284Y021923D01*
X014224Y021951D01*
X014160Y021967D01*
X014094Y021972D01*
X014022Y021964D01*
X013952Y021942D01*
X013889Y021907D01*
X013833Y021860D01*
X013788Y021803D01*
X013754Y021738D01*
X013734Y021668D01*
X013728Y021596D01*
X013734Y021524D01*
X013755Y021454D01*
X013788Y021390D01*
X013833Y021334D01*
X013889Y021287D01*
X013952Y021253D01*
X013973Y021246D02*
X014228Y021246D01*
X014318Y021295D02*
X013880Y021295D01*
X013826Y021343D02*
X014374Y021343D01*
X014413Y021392D02*
X013787Y021392D01*
X013762Y021440D02*
X014440Y021440D01*
X014459Y021489D02*
X013745Y021489D01*
X013733Y021537D02*
X014472Y021537D01*
X014477Y021586D02*
X013729Y021586D01*
X013731Y021634D02*
X014474Y021634D01*
X014466Y021683D02*
X013738Y021683D01*
X013752Y021731D02*
X014451Y021731D01*
X014428Y021780D02*
X013776Y021780D01*
X013808Y021828D02*
X014395Y021828D01*
X014349Y021877D02*
X013853Y021877D01*
X013922Y021925D02*
X014281Y021925D01*
X014090Y024226D02*
X014018Y024234D01*
X013949Y024256D01*
X013886Y024290D01*
X013830Y024337D01*
X013785Y024393D01*
X013752Y024457D01*
X013731Y024527D01*
X013725Y024599D01*
X013731Y024671D01*
X013751Y024741D01*
X013785Y024806D01*
X013830Y024863D01*
X013886Y024910D01*
X013949Y024945D01*
X014019Y024967D01*
X014091Y024975D01*
X014157Y024970D01*
X014221Y024954D01*
X014281Y024926D01*
X014336Y024889D01*
X014383Y024843D01*
X014422Y024789D01*
X014451Y024730D01*
X014468Y024666D01*
X014475Y024600D01*
X014468Y024534D01*
X014450Y024471D01*
X014421Y024411D01*
X014383Y024357D01*
X014335Y024311D01*
X014281Y024274D01*
X014220Y024247D01*
X014156Y024231D01*
X014090Y024226D01*
X013957Y024253D02*
X014234Y024253D01*
X014321Y024302D02*
X013872Y024302D01*
X013820Y024350D02*
X014375Y024350D01*
X014413Y024399D02*
X013782Y024399D01*
X013757Y024447D02*
X014439Y024447D01*
X014457Y024496D02*
X013740Y024496D01*
X013730Y024544D02*
X014469Y024544D01*
X014474Y024593D02*
X013726Y024593D01*
X013729Y024641D02*
X014471Y024641D01*
X014462Y024690D02*
X013736Y024690D01*
X013750Y024738D02*
X014446Y024738D01*
X014423Y024787D02*
X013775Y024787D01*
X013808Y024835D02*
X014389Y024835D01*
X014342Y024884D02*
X013855Y024884D01*
X013926Y024932D02*
X014269Y024932D01*
X036725Y025099D02*
X036731Y025027D01*
X036752Y024957D01*
X036785Y024893D01*
X036830Y024837D01*
X036886Y024790D01*
X036949Y024756D01*
X037018Y024734D01*
X037090Y024726D01*
X037156Y024731D01*
X037220Y024747D01*
X037281Y024774D01*
X037335Y024811D01*
X037383Y024857D01*
X037421Y024911D01*
X037450Y024971D01*
X037468Y025034D01*
X037475Y025100D01*
X037468Y025166D01*
X037451Y025230D01*
X037422Y025289D01*
X037383Y025343D01*
X037336Y025389D01*
X037281Y025426D01*
X037221Y025454D01*
X037157Y025470D01*
X037091Y025475D01*
X037019Y025467D01*
X036949Y025445D01*
X036886Y025410D01*
X036830Y025363D01*
X036785Y025306D01*
X036751Y025241D01*
X036731Y025171D01*
X036725Y025099D01*
X036727Y025078D02*
X037473Y025078D01*
X037472Y025126D02*
X036727Y025126D01*
X036732Y025175D02*
X037466Y025175D01*
X037452Y025223D02*
X036746Y025223D01*
X036767Y025272D02*
X037430Y025272D01*
X037400Y025320D02*
X036796Y025320D01*
X036837Y025369D02*
X037357Y025369D01*
X037295Y025417D02*
X036899Y025417D01*
X037015Y025466D02*
X037174Y025466D01*
X037467Y025029D02*
X036731Y025029D01*
X036745Y024981D02*
X037453Y024981D01*
X037432Y024932D02*
X036765Y024932D01*
X036793Y024884D02*
X037402Y024884D01*
X037360Y024835D02*
X036832Y024835D01*
X036892Y024787D02*
X037299Y024787D01*
X037185Y024738D02*
X037005Y024738D01*
X037094Y022472D02*
X037160Y022467D01*
X037224Y022451D01*
X037284Y022423D01*
X037339Y022386D01*
X037386Y022340D01*
X037425Y022286D01*
X037454Y022227D01*
X037471Y022163D01*
X037478Y022097D01*
X037471Y022031D01*
X037453Y021968D01*
X037424Y021908D01*
X037386Y021854D01*
X037338Y021808D01*
X037283Y021771D01*
X037223Y021744D01*
X037159Y021728D01*
X037093Y021723D01*
X037021Y021731D01*
X036952Y021753D01*
X036889Y021787D01*
X036833Y021834D01*
X036788Y021890D01*
X036755Y021954D01*
X036734Y022024D01*
X036728Y022096D01*
X036734Y022168D01*
X037470Y022168D01*
X037476Y022119D02*
X036730Y022119D01*
X036730Y022071D02*
X037475Y022071D01*
X037469Y022022D02*
X036735Y022022D01*
X036749Y021974D02*
X037455Y021974D01*
X037433Y021925D02*
X036770Y021925D01*
X036799Y021877D02*
X037402Y021877D01*
X037359Y021828D02*
X036840Y021828D01*
X036903Y021780D02*
X037296Y021780D01*
X037172Y021731D02*
X037020Y021731D01*
X036734Y022168D02*
X036754Y022238D01*
X036788Y022303D01*
X036833Y022360D01*
X036889Y022407D01*
X036952Y022442D01*
X037022Y022464D01*
X037094Y022472D01*
X037005Y022459D02*
X037193Y022459D01*
X037304Y022410D02*
X036895Y022410D01*
X036835Y022362D02*
X037364Y022362D01*
X037406Y022313D02*
X036796Y022313D01*
X036768Y022265D02*
X037435Y022265D01*
X037457Y022216D02*
X036748Y022216D01*
X037041Y020472D02*
X037107Y020477D01*
X037179Y020469D01*
X037248Y020447D01*
X037311Y020413D01*
X037367Y020366D01*
X037412Y020310D01*
X037445Y020246D01*
X037466Y020176D01*
X037472Y020104D01*
X037466Y020032D01*
X037446Y019962D01*
X037412Y019897D01*
X037367Y019840D01*
X037311Y019793D01*
X037248Y019758D01*
X037178Y019736D01*
X037106Y019728D01*
X037040Y019733D01*
X036976Y019749D01*
X036916Y019777D01*
X036861Y019814D01*
X036814Y019860D01*
X036775Y019914D01*
X036746Y019973D01*
X036729Y020037D01*
X036722Y020103D01*
X036729Y020169D01*
X036747Y020232D01*
X036776Y020292D01*
X036814Y020346D01*
X036862Y020392D01*
X036917Y020429D01*
X036977Y020456D01*
X037041Y020472D01*
X037033Y020470D02*
X037170Y020470D01*
X037295Y020422D02*
X036906Y020422D01*
X036843Y020373D02*
X037358Y020373D01*
X037400Y020325D02*
X036799Y020325D01*
X036768Y020276D02*
X037430Y020276D01*
X037451Y020228D02*
X036745Y020228D01*
X036732Y020179D02*
X037465Y020179D01*
X037470Y020131D02*
X036725Y020131D01*
X036724Y020082D02*
X037470Y020082D01*
X037466Y020034D02*
X036730Y020034D01*
X036743Y019985D02*
X037452Y019985D01*
X037433Y019937D02*
X036764Y019937D01*
X036794Y019888D02*
X037405Y019888D01*
X037366Y019840D02*
X036835Y019840D01*
X036894Y019791D02*
X037307Y019791D01*
X037199Y019743D02*
X037002Y019743D01*
X037110Y017474D02*
X037182Y017466D01*
X037251Y017444D01*
X037314Y017410D01*
X037370Y017363D01*
X037415Y017307D01*
X037448Y017243D01*
X037469Y017173D01*
X037475Y017101D01*
X037469Y017029D01*
X037449Y016959D01*
X037415Y016894D01*
X037370Y016837D01*
X037314Y016790D01*
X037251Y016755D01*
X037181Y016733D01*
X037109Y016725D01*
X037043Y016730D01*
X036979Y016746D01*
X036919Y016774D01*
X036864Y016811D01*
X036817Y016857D01*
X036778Y016911D01*
X036749Y016970D01*
X036732Y017034D01*
X036725Y017100D01*
X036732Y017166D01*
X036750Y017229D01*
X036779Y017289D01*
X036817Y017343D01*
X036865Y017389D01*
X036919Y017426D01*
X036980Y017453D01*
X037044Y017469D01*
X037110Y017474D01*
X037192Y017463D02*
X037020Y017463D01*
X036903Y017415D02*
X037305Y017415D01*
X037366Y017366D02*
X036841Y017366D01*
X036799Y017318D02*
X037406Y017318D01*
X037435Y017269D02*
X036769Y017269D01*
X036747Y017221D02*
X037455Y017221D01*
X037469Y017172D02*
X036733Y017172D01*
X036727Y017124D02*
X037473Y017124D01*
X037473Y017075D02*
X036727Y017075D01*
X036734Y017027D02*
X037468Y017027D01*
X037454Y016978D02*
X036747Y016978D01*
X036769Y016930D02*
X037434Y016930D01*
X037405Y016881D02*
X036799Y016881D01*
X036842Y016833D02*
X037364Y016833D01*
X037303Y016784D02*
X036903Y016784D01*
X037021Y016736D02*
X037189Y016736D01*
D11*
X008600Y010100D03*
X008600Y009100D03*
X008600Y008100D03*
X008600Y007100D03*
X008600Y006100D03*
X008600Y005100D03*
X008600Y004100D03*
X005600Y004100D03*
X005600Y005100D03*
X005600Y006100D03*
X005600Y007100D03*
X005600Y008100D03*
X005600Y009100D03*
X005600Y010100D03*
X002600Y024600D03*
X001600Y024600D03*
D12*
X001600Y003100D03*
X001600Y006100D03*
X010600Y003100D03*
X011600Y003100D03*
X012600Y003100D03*
X013600Y003100D03*
X014600Y003100D03*
X015600Y003100D03*
X016600Y003100D03*
X017600Y003100D03*
X018600Y003100D03*
X019600Y003100D03*
X020600Y003100D03*
X021600Y003100D03*
X022600Y003100D03*
X023600Y003100D03*
X024600Y003100D03*
X025600Y003100D03*
X026600Y003100D03*
X027600Y003100D03*
X028600Y003100D03*
X029600Y003100D03*
X030600Y003100D03*
X031600Y003100D03*
X032600Y003100D03*
X033600Y003100D03*
X034600Y003100D03*
X040100Y017600D03*
X040100Y018600D03*
X040100Y021600D03*
X040100Y022600D03*
X040100Y025600D03*
X040100Y026600D03*
X040100Y028600D03*
X040100Y029600D03*
X034600Y027100D03*
X033600Y027100D03*
X032600Y027100D03*
X031600Y027100D03*
X030600Y027100D03*
X029600Y027100D03*
X028600Y027100D03*
X027600Y027100D03*
X026600Y027100D03*
X025600Y027100D03*
X024600Y027100D03*
X023600Y027100D03*
X022600Y027100D03*
X021600Y027100D03*
X020600Y027100D03*
X019600Y027100D03*
X018600Y027100D03*
X017600Y027100D03*
X016600Y027100D03*
X015600Y027100D03*
X014600Y027100D03*
X013600Y027100D03*
X012600Y027100D03*
X011600Y027100D03*
X010600Y027100D03*
M02*
