G75*
%MOIN*%
%OFA0B0*%
%FSLAX24Y24*%
%IPPOS*%
%LPD*%
%AMOC8*
5,1,8,0,0,1.08239X$1,22.5*
%
%ADD10C,0.0000*%
%ADD11C,0.0100*%
%ADD12C,0.0872*%
%ADD13C,0.0010*%
%ADD14C,0.0050*%
%ADD15C,0.0080*%
%ADD16C,0.0792*%
%ADD17C,0.0951*%
%ADD18R,0.1181X0.0630*%
%ADD19R,0.2250X0.1900*%
%ADD20R,0.1140X0.0340*%
%ADD21R,0.0300X0.0340*%
%ADD22C,0.0079*%
%ADD23C,0.0060*%
%ADD24C,0.1047*%
%ADD25R,0.0200X0.0200*%
%ADD26C,0.0315*%
D10*
X000100Y000100D02*
X000100Y031596D01*
X045470Y031596D01*
X045470Y000100D01*
X000100Y000100D01*
X022070Y003100D02*
X022870Y003100D01*
X022470Y002700D02*
X022470Y003500D01*
X038070Y006600D02*
X038870Y006600D01*
X038470Y006200D02*
X038470Y007000D01*
X041570Y007100D02*
X042370Y007100D01*
X041970Y006700D02*
X041970Y007500D01*
X043570Y006100D02*
X044370Y006100D01*
X043970Y005700D02*
X043970Y006500D01*
X043970Y003500D02*
X043970Y002700D01*
X044370Y003100D02*
X043570Y003100D01*
X042470Y013200D02*
X042470Y014000D01*
X042870Y013600D02*
X042070Y013600D01*
X031470Y022700D02*
X031470Y023500D01*
X031870Y023100D02*
X031070Y023100D01*
X022870Y027100D02*
X022070Y027100D01*
X022470Y026700D02*
X022470Y027500D01*
X008870Y023600D02*
X008070Y023600D01*
X008470Y023200D02*
X008470Y024000D01*
X005870Y022100D02*
X005070Y022100D01*
X005470Y021700D02*
X005470Y022500D01*
X005470Y025700D02*
X005470Y026500D01*
X005870Y026100D02*
X005070Y026100D01*
X005470Y028700D02*
X005470Y029500D01*
X005870Y029100D02*
X005070Y029100D01*
X008470Y019000D02*
X008470Y018200D01*
X008870Y018600D02*
X008070Y018600D01*
X005870Y018100D02*
X005070Y018100D01*
X005470Y017700D02*
X005470Y018500D01*
X043070Y024600D02*
X043870Y024600D01*
X043470Y024200D02*
X043470Y025000D01*
D11*
X042850Y024910D02*
X042850Y025110D01*
X042850Y025100D02*
X042850Y024100D01*
X042850Y024090D02*
X042850Y024270D01*
X031970Y024100D02*
X031970Y022100D01*
X031470Y022100D01*
X031470Y022000D01*
X031470Y022100D02*
X030970Y022100D01*
X030970Y024100D01*
X031470Y024100D01*
X031470Y024200D01*
X031470Y024100D02*
X031970Y024100D01*
X041470Y008100D02*
X041970Y008100D01*
X041970Y008200D01*
X041970Y008100D02*
X042470Y008100D01*
X042470Y006100D01*
X041970Y006100D01*
X041970Y006000D01*
X041970Y006100D02*
X041470Y006100D01*
X041470Y008100D01*
X008970Y017600D02*
X008470Y017600D01*
X008470Y017500D01*
X008470Y017600D02*
X007970Y017600D01*
X007970Y019600D01*
X008470Y019600D01*
X008470Y019700D01*
X008470Y019600D02*
X008970Y019600D01*
X008970Y017600D01*
X008470Y022500D02*
X008470Y022600D01*
X008970Y022600D01*
X008970Y024600D01*
X008470Y024600D01*
X008470Y024700D01*
X008470Y024600D02*
X007970Y024600D01*
X007970Y022600D01*
X008470Y022600D01*
D12*
X008470Y022100D03*
X008470Y020100D03*
X005470Y018600D03*
X005470Y017600D03*
X008470Y017100D03*
X005470Y021600D03*
X005470Y022600D03*
X008470Y025100D03*
X005470Y025600D03*
X005470Y026600D03*
X005470Y028600D03*
X005470Y029600D03*
X010970Y027100D03*
X011970Y027100D03*
X012970Y027100D03*
X013970Y027100D03*
X014970Y027100D03*
X015970Y027100D03*
X016970Y027100D03*
X017970Y027100D03*
X018970Y027100D03*
X019970Y027100D03*
X020970Y027100D03*
X021970Y027100D03*
X022970Y027100D03*
X023970Y027100D03*
X024970Y027100D03*
X025970Y027100D03*
X026970Y027100D03*
X027970Y027100D03*
X028970Y027100D03*
X029970Y027100D03*
X030970Y027100D03*
X031970Y027100D03*
X032970Y027100D03*
X033970Y027100D03*
X034970Y027100D03*
X031470Y024600D03*
X031470Y021600D03*
X041970Y008600D03*
X043970Y006100D03*
X041970Y005600D03*
X043970Y003100D03*
X034970Y003100D03*
X033970Y003100D03*
X032970Y003100D03*
X031970Y003100D03*
X030970Y003100D03*
X029970Y003100D03*
X028970Y003100D03*
X027970Y003100D03*
X026970Y003100D03*
X025970Y003100D03*
X024970Y003100D03*
X023970Y003100D03*
X022970Y003100D03*
X021970Y003100D03*
X020970Y003100D03*
X019970Y003100D03*
X018970Y003100D03*
X017970Y003100D03*
X016970Y003100D03*
X015970Y003100D03*
X014970Y003100D03*
X013970Y003100D03*
X012970Y003100D03*
X011970Y003100D03*
X010970Y003100D03*
D13*
X010580Y003100D02*
X010582Y003139D01*
X010588Y003177D01*
X010597Y003215D01*
X010611Y003251D01*
X010627Y003287D01*
X010648Y003320D01*
X010671Y003351D01*
X010698Y003379D01*
X010727Y003405D01*
X010758Y003428D01*
X010792Y003447D01*
X010828Y003463D01*
X010864Y003475D01*
X010902Y003484D01*
X010941Y003489D01*
X010980Y003490D01*
X011018Y003487D01*
X011057Y003480D01*
X011094Y003470D01*
X011130Y003455D01*
X011165Y003438D01*
X011198Y003417D01*
X011228Y003392D01*
X011256Y003365D01*
X011281Y003335D01*
X011303Y003303D01*
X011321Y003269D01*
X011336Y003233D01*
X011348Y003196D01*
X011356Y003158D01*
X011360Y003119D01*
X011360Y003081D01*
X011356Y003042D01*
X011348Y003004D01*
X011336Y002967D01*
X011321Y002931D01*
X011303Y002897D01*
X011281Y002865D01*
X011256Y002835D01*
X011228Y002808D01*
X011198Y002783D01*
X011165Y002762D01*
X011130Y002745D01*
X011094Y002730D01*
X011057Y002720D01*
X011018Y002713D01*
X010980Y002710D01*
X010941Y002711D01*
X010902Y002716D01*
X010864Y002725D01*
X010828Y002737D01*
X010792Y002753D01*
X010758Y002772D01*
X010727Y002795D01*
X010698Y002821D01*
X010671Y002849D01*
X010648Y002880D01*
X010627Y002913D01*
X010611Y002949D01*
X010597Y002985D01*
X010588Y003023D01*
X010582Y003061D01*
X010580Y003100D01*
X010570Y003500D02*
X011370Y002700D01*
X011580Y003100D02*
X011582Y003139D01*
X011588Y003177D01*
X011597Y003215D01*
X011611Y003251D01*
X011627Y003287D01*
X011648Y003320D01*
X011671Y003351D01*
X011698Y003379D01*
X011727Y003405D01*
X011758Y003428D01*
X011792Y003447D01*
X011828Y003463D01*
X011864Y003475D01*
X011902Y003484D01*
X011941Y003489D01*
X011980Y003490D01*
X012018Y003487D01*
X012057Y003480D01*
X012094Y003470D01*
X012130Y003455D01*
X012165Y003438D01*
X012198Y003417D01*
X012228Y003392D01*
X012256Y003365D01*
X012281Y003335D01*
X012303Y003303D01*
X012321Y003269D01*
X012336Y003233D01*
X012348Y003196D01*
X012356Y003158D01*
X012360Y003119D01*
X012360Y003081D01*
X012356Y003042D01*
X012348Y003004D01*
X012336Y002967D01*
X012321Y002931D01*
X012303Y002897D01*
X012281Y002865D01*
X012256Y002835D01*
X012228Y002808D01*
X012198Y002783D01*
X012165Y002762D01*
X012130Y002745D01*
X012094Y002730D01*
X012057Y002720D01*
X012018Y002713D01*
X011980Y002710D01*
X011941Y002711D01*
X011902Y002716D01*
X011864Y002725D01*
X011828Y002737D01*
X011792Y002753D01*
X011758Y002772D01*
X011727Y002795D01*
X011698Y002821D01*
X011671Y002849D01*
X011648Y002880D01*
X011627Y002913D01*
X011611Y002949D01*
X011597Y002985D01*
X011588Y003023D01*
X011582Y003061D01*
X011580Y003100D01*
X011570Y003500D02*
X012370Y002700D01*
X012580Y003100D02*
X012582Y003139D01*
X012588Y003177D01*
X012597Y003215D01*
X012611Y003251D01*
X012627Y003287D01*
X012648Y003320D01*
X012671Y003351D01*
X012698Y003379D01*
X012727Y003405D01*
X012758Y003428D01*
X012792Y003447D01*
X012828Y003463D01*
X012864Y003475D01*
X012902Y003484D01*
X012941Y003489D01*
X012980Y003490D01*
X013018Y003487D01*
X013057Y003480D01*
X013094Y003470D01*
X013130Y003455D01*
X013165Y003438D01*
X013198Y003417D01*
X013228Y003392D01*
X013256Y003365D01*
X013281Y003335D01*
X013303Y003303D01*
X013321Y003269D01*
X013336Y003233D01*
X013348Y003196D01*
X013356Y003158D01*
X013360Y003119D01*
X013360Y003081D01*
X013356Y003042D01*
X013348Y003004D01*
X013336Y002967D01*
X013321Y002931D01*
X013303Y002897D01*
X013281Y002865D01*
X013256Y002835D01*
X013228Y002808D01*
X013198Y002783D01*
X013165Y002762D01*
X013130Y002745D01*
X013094Y002730D01*
X013057Y002720D01*
X013018Y002713D01*
X012980Y002710D01*
X012941Y002711D01*
X012902Y002716D01*
X012864Y002725D01*
X012828Y002737D01*
X012792Y002753D01*
X012758Y002772D01*
X012727Y002795D01*
X012698Y002821D01*
X012671Y002849D01*
X012648Y002880D01*
X012627Y002913D01*
X012611Y002949D01*
X012597Y002985D01*
X012588Y003023D01*
X012582Y003061D01*
X012580Y003100D01*
X012570Y003500D02*
X013370Y002700D01*
X013580Y003100D02*
X013582Y003139D01*
X013588Y003177D01*
X013597Y003215D01*
X013611Y003251D01*
X013627Y003287D01*
X013648Y003320D01*
X013671Y003351D01*
X013698Y003379D01*
X013727Y003405D01*
X013758Y003428D01*
X013792Y003447D01*
X013828Y003463D01*
X013864Y003475D01*
X013902Y003484D01*
X013941Y003489D01*
X013980Y003490D01*
X014018Y003487D01*
X014057Y003480D01*
X014094Y003470D01*
X014130Y003455D01*
X014165Y003438D01*
X014198Y003417D01*
X014228Y003392D01*
X014256Y003365D01*
X014281Y003335D01*
X014303Y003303D01*
X014321Y003269D01*
X014336Y003233D01*
X014348Y003196D01*
X014356Y003158D01*
X014360Y003119D01*
X014360Y003081D01*
X014356Y003042D01*
X014348Y003004D01*
X014336Y002967D01*
X014321Y002931D01*
X014303Y002897D01*
X014281Y002865D01*
X014256Y002835D01*
X014228Y002808D01*
X014198Y002783D01*
X014165Y002762D01*
X014130Y002745D01*
X014094Y002730D01*
X014057Y002720D01*
X014018Y002713D01*
X013980Y002710D01*
X013941Y002711D01*
X013902Y002716D01*
X013864Y002725D01*
X013828Y002737D01*
X013792Y002753D01*
X013758Y002772D01*
X013727Y002795D01*
X013698Y002821D01*
X013671Y002849D01*
X013648Y002880D01*
X013627Y002913D01*
X013611Y002949D01*
X013597Y002985D01*
X013588Y003023D01*
X013582Y003061D01*
X013580Y003100D01*
X013570Y003500D02*
X014370Y002700D01*
X014580Y003100D02*
X014582Y003139D01*
X014588Y003177D01*
X014597Y003215D01*
X014611Y003251D01*
X014627Y003287D01*
X014648Y003320D01*
X014671Y003351D01*
X014698Y003379D01*
X014727Y003405D01*
X014758Y003428D01*
X014792Y003447D01*
X014828Y003463D01*
X014864Y003475D01*
X014902Y003484D01*
X014941Y003489D01*
X014980Y003490D01*
X015018Y003487D01*
X015057Y003480D01*
X015094Y003470D01*
X015130Y003455D01*
X015165Y003438D01*
X015198Y003417D01*
X015228Y003392D01*
X015256Y003365D01*
X015281Y003335D01*
X015303Y003303D01*
X015321Y003269D01*
X015336Y003233D01*
X015348Y003196D01*
X015356Y003158D01*
X015360Y003119D01*
X015360Y003081D01*
X015356Y003042D01*
X015348Y003004D01*
X015336Y002967D01*
X015321Y002931D01*
X015303Y002897D01*
X015281Y002865D01*
X015256Y002835D01*
X015228Y002808D01*
X015198Y002783D01*
X015165Y002762D01*
X015130Y002745D01*
X015094Y002730D01*
X015057Y002720D01*
X015018Y002713D01*
X014980Y002710D01*
X014941Y002711D01*
X014902Y002716D01*
X014864Y002725D01*
X014828Y002737D01*
X014792Y002753D01*
X014758Y002772D01*
X014727Y002795D01*
X014698Y002821D01*
X014671Y002849D01*
X014648Y002880D01*
X014627Y002913D01*
X014611Y002949D01*
X014597Y002985D01*
X014588Y003023D01*
X014582Y003061D01*
X014580Y003100D01*
X014570Y003500D02*
X015370Y002700D01*
X015580Y003100D02*
X015582Y003139D01*
X015588Y003177D01*
X015597Y003215D01*
X015611Y003251D01*
X015627Y003287D01*
X015648Y003320D01*
X015671Y003351D01*
X015698Y003379D01*
X015727Y003405D01*
X015758Y003428D01*
X015792Y003447D01*
X015828Y003463D01*
X015864Y003475D01*
X015902Y003484D01*
X015941Y003489D01*
X015980Y003490D01*
X016018Y003487D01*
X016057Y003480D01*
X016094Y003470D01*
X016130Y003455D01*
X016165Y003438D01*
X016198Y003417D01*
X016228Y003392D01*
X016256Y003365D01*
X016281Y003335D01*
X016303Y003303D01*
X016321Y003269D01*
X016336Y003233D01*
X016348Y003196D01*
X016356Y003158D01*
X016360Y003119D01*
X016360Y003081D01*
X016356Y003042D01*
X016348Y003004D01*
X016336Y002967D01*
X016321Y002931D01*
X016303Y002897D01*
X016281Y002865D01*
X016256Y002835D01*
X016228Y002808D01*
X016198Y002783D01*
X016165Y002762D01*
X016130Y002745D01*
X016094Y002730D01*
X016057Y002720D01*
X016018Y002713D01*
X015980Y002710D01*
X015941Y002711D01*
X015902Y002716D01*
X015864Y002725D01*
X015828Y002737D01*
X015792Y002753D01*
X015758Y002772D01*
X015727Y002795D01*
X015698Y002821D01*
X015671Y002849D01*
X015648Y002880D01*
X015627Y002913D01*
X015611Y002949D01*
X015597Y002985D01*
X015588Y003023D01*
X015582Y003061D01*
X015580Y003100D01*
X015570Y003500D02*
X016370Y002700D01*
X016580Y003100D02*
X016582Y003139D01*
X016588Y003177D01*
X016597Y003215D01*
X016611Y003251D01*
X016627Y003287D01*
X016648Y003320D01*
X016671Y003351D01*
X016698Y003379D01*
X016727Y003405D01*
X016758Y003428D01*
X016792Y003447D01*
X016828Y003463D01*
X016864Y003475D01*
X016902Y003484D01*
X016941Y003489D01*
X016980Y003490D01*
X017018Y003487D01*
X017057Y003480D01*
X017094Y003470D01*
X017130Y003455D01*
X017165Y003438D01*
X017198Y003417D01*
X017228Y003392D01*
X017256Y003365D01*
X017281Y003335D01*
X017303Y003303D01*
X017321Y003269D01*
X017336Y003233D01*
X017348Y003196D01*
X017356Y003158D01*
X017360Y003119D01*
X017360Y003081D01*
X017356Y003042D01*
X017348Y003004D01*
X017336Y002967D01*
X017321Y002931D01*
X017303Y002897D01*
X017281Y002865D01*
X017256Y002835D01*
X017228Y002808D01*
X017198Y002783D01*
X017165Y002762D01*
X017130Y002745D01*
X017094Y002730D01*
X017057Y002720D01*
X017018Y002713D01*
X016980Y002710D01*
X016941Y002711D01*
X016902Y002716D01*
X016864Y002725D01*
X016828Y002737D01*
X016792Y002753D01*
X016758Y002772D01*
X016727Y002795D01*
X016698Y002821D01*
X016671Y002849D01*
X016648Y002880D01*
X016627Y002913D01*
X016611Y002949D01*
X016597Y002985D01*
X016588Y003023D01*
X016582Y003061D01*
X016580Y003100D01*
X016570Y003500D02*
X017370Y002700D01*
X017580Y003100D02*
X017582Y003139D01*
X017588Y003177D01*
X017597Y003215D01*
X017611Y003251D01*
X017627Y003287D01*
X017648Y003320D01*
X017671Y003351D01*
X017698Y003379D01*
X017727Y003405D01*
X017758Y003428D01*
X017792Y003447D01*
X017828Y003463D01*
X017864Y003475D01*
X017902Y003484D01*
X017941Y003489D01*
X017980Y003490D01*
X018018Y003487D01*
X018057Y003480D01*
X018094Y003470D01*
X018130Y003455D01*
X018165Y003438D01*
X018198Y003417D01*
X018228Y003392D01*
X018256Y003365D01*
X018281Y003335D01*
X018303Y003303D01*
X018321Y003269D01*
X018336Y003233D01*
X018348Y003196D01*
X018356Y003158D01*
X018360Y003119D01*
X018360Y003081D01*
X018356Y003042D01*
X018348Y003004D01*
X018336Y002967D01*
X018321Y002931D01*
X018303Y002897D01*
X018281Y002865D01*
X018256Y002835D01*
X018228Y002808D01*
X018198Y002783D01*
X018165Y002762D01*
X018130Y002745D01*
X018094Y002730D01*
X018057Y002720D01*
X018018Y002713D01*
X017980Y002710D01*
X017941Y002711D01*
X017902Y002716D01*
X017864Y002725D01*
X017828Y002737D01*
X017792Y002753D01*
X017758Y002772D01*
X017727Y002795D01*
X017698Y002821D01*
X017671Y002849D01*
X017648Y002880D01*
X017627Y002913D01*
X017611Y002949D01*
X017597Y002985D01*
X017588Y003023D01*
X017582Y003061D01*
X017580Y003100D01*
X017570Y003500D02*
X018370Y002700D01*
X018580Y003100D02*
X018582Y003139D01*
X018588Y003177D01*
X018597Y003215D01*
X018611Y003251D01*
X018627Y003287D01*
X018648Y003320D01*
X018671Y003351D01*
X018698Y003379D01*
X018727Y003405D01*
X018758Y003428D01*
X018792Y003447D01*
X018828Y003463D01*
X018864Y003475D01*
X018902Y003484D01*
X018941Y003489D01*
X018980Y003490D01*
X019018Y003487D01*
X019057Y003480D01*
X019094Y003470D01*
X019130Y003455D01*
X019165Y003438D01*
X019198Y003417D01*
X019228Y003392D01*
X019256Y003365D01*
X019281Y003335D01*
X019303Y003303D01*
X019321Y003269D01*
X019336Y003233D01*
X019348Y003196D01*
X019356Y003158D01*
X019360Y003119D01*
X019360Y003081D01*
X019356Y003042D01*
X019348Y003004D01*
X019336Y002967D01*
X019321Y002931D01*
X019303Y002897D01*
X019281Y002865D01*
X019256Y002835D01*
X019228Y002808D01*
X019198Y002783D01*
X019165Y002762D01*
X019130Y002745D01*
X019094Y002730D01*
X019057Y002720D01*
X019018Y002713D01*
X018980Y002710D01*
X018941Y002711D01*
X018902Y002716D01*
X018864Y002725D01*
X018828Y002737D01*
X018792Y002753D01*
X018758Y002772D01*
X018727Y002795D01*
X018698Y002821D01*
X018671Y002849D01*
X018648Y002880D01*
X018627Y002913D01*
X018611Y002949D01*
X018597Y002985D01*
X018588Y003023D01*
X018582Y003061D01*
X018580Y003100D01*
X018570Y003500D02*
X019370Y002700D01*
X019580Y003100D02*
X019582Y003139D01*
X019588Y003177D01*
X019597Y003215D01*
X019611Y003251D01*
X019627Y003287D01*
X019648Y003320D01*
X019671Y003351D01*
X019698Y003379D01*
X019727Y003405D01*
X019758Y003428D01*
X019792Y003447D01*
X019828Y003463D01*
X019864Y003475D01*
X019902Y003484D01*
X019941Y003489D01*
X019980Y003490D01*
X020018Y003487D01*
X020057Y003480D01*
X020094Y003470D01*
X020130Y003455D01*
X020165Y003438D01*
X020198Y003417D01*
X020228Y003392D01*
X020256Y003365D01*
X020281Y003335D01*
X020303Y003303D01*
X020321Y003269D01*
X020336Y003233D01*
X020348Y003196D01*
X020356Y003158D01*
X020360Y003119D01*
X020360Y003081D01*
X020356Y003042D01*
X020348Y003004D01*
X020336Y002967D01*
X020321Y002931D01*
X020303Y002897D01*
X020281Y002865D01*
X020256Y002835D01*
X020228Y002808D01*
X020198Y002783D01*
X020165Y002762D01*
X020130Y002745D01*
X020094Y002730D01*
X020057Y002720D01*
X020018Y002713D01*
X019980Y002710D01*
X019941Y002711D01*
X019902Y002716D01*
X019864Y002725D01*
X019828Y002737D01*
X019792Y002753D01*
X019758Y002772D01*
X019727Y002795D01*
X019698Y002821D01*
X019671Y002849D01*
X019648Y002880D01*
X019627Y002913D01*
X019611Y002949D01*
X019597Y002985D01*
X019588Y003023D01*
X019582Y003061D01*
X019580Y003100D01*
X019570Y003500D02*
X020370Y002700D01*
X020580Y003100D02*
X020582Y003139D01*
X020588Y003177D01*
X020597Y003215D01*
X020611Y003251D01*
X020627Y003287D01*
X020648Y003320D01*
X020671Y003351D01*
X020698Y003379D01*
X020727Y003405D01*
X020758Y003428D01*
X020792Y003447D01*
X020828Y003463D01*
X020864Y003475D01*
X020902Y003484D01*
X020941Y003489D01*
X020980Y003490D01*
X021018Y003487D01*
X021057Y003480D01*
X021094Y003470D01*
X021130Y003455D01*
X021165Y003438D01*
X021198Y003417D01*
X021228Y003392D01*
X021256Y003365D01*
X021281Y003335D01*
X021303Y003303D01*
X021321Y003269D01*
X021336Y003233D01*
X021348Y003196D01*
X021356Y003158D01*
X021360Y003119D01*
X021360Y003081D01*
X021356Y003042D01*
X021348Y003004D01*
X021336Y002967D01*
X021321Y002931D01*
X021303Y002897D01*
X021281Y002865D01*
X021256Y002835D01*
X021228Y002808D01*
X021198Y002783D01*
X021165Y002762D01*
X021130Y002745D01*
X021094Y002730D01*
X021057Y002720D01*
X021018Y002713D01*
X020980Y002710D01*
X020941Y002711D01*
X020902Y002716D01*
X020864Y002725D01*
X020828Y002737D01*
X020792Y002753D01*
X020758Y002772D01*
X020727Y002795D01*
X020698Y002821D01*
X020671Y002849D01*
X020648Y002880D01*
X020627Y002913D01*
X020611Y002949D01*
X020597Y002985D01*
X020588Y003023D01*
X020582Y003061D01*
X020580Y003100D01*
X020570Y003500D02*
X021370Y002700D01*
X021580Y003100D02*
X021582Y003139D01*
X021588Y003177D01*
X021597Y003215D01*
X021611Y003251D01*
X021627Y003287D01*
X021648Y003320D01*
X021671Y003351D01*
X021698Y003379D01*
X021727Y003405D01*
X021758Y003428D01*
X021792Y003447D01*
X021828Y003463D01*
X021864Y003475D01*
X021902Y003484D01*
X021941Y003489D01*
X021980Y003490D01*
X022018Y003487D01*
X022057Y003480D01*
X022094Y003470D01*
X022130Y003455D01*
X022165Y003438D01*
X022198Y003417D01*
X022228Y003392D01*
X022256Y003365D01*
X022281Y003335D01*
X022303Y003303D01*
X022321Y003269D01*
X022336Y003233D01*
X022348Y003196D01*
X022356Y003158D01*
X022360Y003119D01*
X022360Y003081D01*
X022356Y003042D01*
X022348Y003004D01*
X022336Y002967D01*
X022321Y002931D01*
X022303Y002897D01*
X022281Y002865D01*
X022256Y002835D01*
X022228Y002808D01*
X022198Y002783D01*
X022165Y002762D01*
X022130Y002745D01*
X022094Y002730D01*
X022057Y002720D01*
X022018Y002713D01*
X021980Y002710D01*
X021941Y002711D01*
X021902Y002716D01*
X021864Y002725D01*
X021828Y002737D01*
X021792Y002753D01*
X021758Y002772D01*
X021727Y002795D01*
X021698Y002821D01*
X021671Y002849D01*
X021648Y002880D01*
X021627Y002913D01*
X021611Y002949D01*
X021597Y002985D01*
X021588Y003023D01*
X021582Y003061D01*
X021580Y003100D01*
X021570Y003500D02*
X022370Y002700D01*
X022580Y003100D02*
X022582Y003139D01*
X022588Y003177D01*
X022597Y003215D01*
X022611Y003251D01*
X022627Y003287D01*
X022648Y003320D01*
X022671Y003351D01*
X022698Y003379D01*
X022727Y003405D01*
X022758Y003428D01*
X022792Y003447D01*
X022828Y003463D01*
X022864Y003475D01*
X022902Y003484D01*
X022941Y003489D01*
X022980Y003490D01*
X023018Y003487D01*
X023057Y003480D01*
X023094Y003470D01*
X023130Y003455D01*
X023165Y003438D01*
X023198Y003417D01*
X023228Y003392D01*
X023256Y003365D01*
X023281Y003335D01*
X023303Y003303D01*
X023321Y003269D01*
X023336Y003233D01*
X023348Y003196D01*
X023356Y003158D01*
X023360Y003119D01*
X023360Y003081D01*
X023356Y003042D01*
X023348Y003004D01*
X023336Y002967D01*
X023321Y002931D01*
X023303Y002897D01*
X023281Y002865D01*
X023256Y002835D01*
X023228Y002808D01*
X023198Y002783D01*
X023165Y002762D01*
X023130Y002745D01*
X023094Y002730D01*
X023057Y002720D01*
X023018Y002713D01*
X022980Y002710D01*
X022941Y002711D01*
X022902Y002716D01*
X022864Y002725D01*
X022828Y002737D01*
X022792Y002753D01*
X022758Y002772D01*
X022727Y002795D01*
X022698Y002821D01*
X022671Y002849D01*
X022648Y002880D01*
X022627Y002913D01*
X022611Y002949D01*
X022597Y002985D01*
X022588Y003023D01*
X022582Y003061D01*
X022580Y003100D01*
X022570Y003500D02*
X023370Y002700D01*
X023580Y003100D02*
X023582Y003139D01*
X023588Y003177D01*
X023597Y003215D01*
X023611Y003251D01*
X023627Y003287D01*
X023648Y003320D01*
X023671Y003351D01*
X023698Y003379D01*
X023727Y003405D01*
X023758Y003428D01*
X023792Y003447D01*
X023828Y003463D01*
X023864Y003475D01*
X023902Y003484D01*
X023941Y003489D01*
X023980Y003490D01*
X024018Y003487D01*
X024057Y003480D01*
X024094Y003470D01*
X024130Y003455D01*
X024165Y003438D01*
X024198Y003417D01*
X024228Y003392D01*
X024256Y003365D01*
X024281Y003335D01*
X024303Y003303D01*
X024321Y003269D01*
X024336Y003233D01*
X024348Y003196D01*
X024356Y003158D01*
X024360Y003119D01*
X024360Y003081D01*
X024356Y003042D01*
X024348Y003004D01*
X024336Y002967D01*
X024321Y002931D01*
X024303Y002897D01*
X024281Y002865D01*
X024256Y002835D01*
X024228Y002808D01*
X024198Y002783D01*
X024165Y002762D01*
X024130Y002745D01*
X024094Y002730D01*
X024057Y002720D01*
X024018Y002713D01*
X023980Y002710D01*
X023941Y002711D01*
X023902Y002716D01*
X023864Y002725D01*
X023828Y002737D01*
X023792Y002753D01*
X023758Y002772D01*
X023727Y002795D01*
X023698Y002821D01*
X023671Y002849D01*
X023648Y002880D01*
X023627Y002913D01*
X023611Y002949D01*
X023597Y002985D01*
X023588Y003023D01*
X023582Y003061D01*
X023580Y003100D01*
X023570Y003500D02*
X024370Y002700D01*
X024580Y003100D02*
X024582Y003139D01*
X024588Y003177D01*
X024597Y003215D01*
X024611Y003251D01*
X024627Y003287D01*
X024648Y003320D01*
X024671Y003351D01*
X024698Y003379D01*
X024727Y003405D01*
X024758Y003428D01*
X024792Y003447D01*
X024828Y003463D01*
X024864Y003475D01*
X024902Y003484D01*
X024941Y003489D01*
X024980Y003490D01*
X025018Y003487D01*
X025057Y003480D01*
X025094Y003470D01*
X025130Y003455D01*
X025165Y003438D01*
X025198Y003417D01*
X025228Y003392D01*
X025256Y003365D01*
X025281Y003335D01*
X025303Y003303D01*
X025321Y003269D01*
X025336Y003233D01*
X025348Y003196D01*
X025356Y003158D01*
X025360Y003119D01*
X025360Y003081D01*
X025356Y003042D01*
X025348Y003004D01*
X025336Y002967D01*
X025321Y002931D01*
X025303Y002897D01*
X025281Y002865D01*
X025256Y002835D01*
X025228Y002808D01*
X025198Y002783D01*
X025165Y002762D01*
X025130Y002745D01*
X025094Y002730D01*
X025057Y002720D01*
X025018Y002713D01*
X024980Y002710D01*
X024941Y002711D01*
X024902Y002716D01*
X024864Y002725D01*
X024828Y002737D01*
X024792Y002753D01*
X024758Y002772D01*
X024727Y002795D01*
X024698Y002821D01*
X024671Y002849D01*
X024648Y002880D01*
X024627Y002913D01*
X024611Y002949D01*
X024597Y002985D01*
X024588Y003023D01*
X024582Y003061D01*
X024580Y003100D01*
X024570Y003500D02*
X025370Y002700D01*
X025580Y003100D02*
X025582Y003139D01*
X025588Y003177D01*
X025597Y003215D01*
X025611Y003251D01*
X025627Y003287D01*
X025648Y003320D01*
X025671Y003351D01*
X025698Y003379D01*
X025727Y003405D01*
X025758Y003428D01*
X025792Y003447D01*
X025828Y003463D01*
X025864Y003475D01*
X025902Y003484D01*
X025941Y003489D01*
X025980Y003490D01*
X026018Y003487D01*
X026057Y003480D01*
X026094Y003470D01*
X026130Y003455D01*
X026165Y003438D01*
X026198Y003417D01*
X026228Y003392D01*
X026256Y003365D01*
X026281Y003335D01*
X026303Y003303D01*
X026321Y003269D01*
X026336Y003233D01*
X026348Y003196D01*
X026356Y003158D01*
X026360Y003119D01*
X026360Y003081D01*
X026356Y003042D01*
X026348Y003004D01*
X026336Y002967D01*
X026321Y002931D01*
X026303Y002897D01*
X026281Y002865D01*
X026256Y002835D01*
X026228Y002808D01*
X026198Y002783D01*
X026165Y002762D01*
X026130Y002745D01*
X026094Y002730D01*
X026057Y002720D01*
X026018Y002713D01*
X025980Y002710D01*
X025941Y002711D01*
X025902Y002716D01*
X025864Y002725D01*
X025828Y002737D01*
X025792Y002753D01*
X025758Y002772D01*
X025727Y002795D01*
X025698Y002821D01*
X025671Y002849D01*
X025648Y002880D01*
X025627Y002913D01*
X025611Y002949D01*
X025597Y002985D01*
X025588Y003023D01*
X025582Y003061D01*
X025580Y003100D01*
X025570Y003500D02*
X026370Y002700D01*
X026580Y003100D02*
X026582Y003139D01*
X026588Y003177D01*
X026597Y003215D01*
X026611Y003251D01*
X026627Y003287D01*
X026648Y003320D01*
X026671Y003351D01*
X026698Y003379D01*
X026727Y003405D01*
X026758Y003428D01*
X026792Y003447D01*
X026828Y003463D01*
X026864Y003475D01*
X026902Y003484D01*
X026941Y003489D01*
X026980Y003490D01*
X027018Y003487D01*
X027057Y003480D01*
X027094Y003470D01*
X027130Y003455D01*
X027165Y003438D01*
X027198Y003417D01*
X027228Y003392D01*
X027256Y003365D01*
X027281Y003335D01*
X027303Y003303D01*
X027321Y003269D01*
X027336Y003233D01*
X027348Y003196D01*
X027356Y003158D01*
X027360Y003119D01*
X027360Y003081D01*
X027356Y003042D01*
X027348Y003004D01*
X027336Y002967D01*
X027321Y002931D01*
X027303Y002897D01*
X027281Y002865D01*
X027256Y002835D01*
X027228Y002808D01*
X027198Y002783D01*
X027165Y002762D01*
X027130Y002745D01*
X027094Y002730D01*
X027057Y002720D01*
X027018Y002713D01*
X026980Y002710D01*
X026941Y002711D01*
X026902Y002716D01*
X026864Y002725D01*
X026828Y002737D01*
X026792Y002753D01*
X026758Y002772D01*
X026727Y002795D01*
X026698Y002821D01*
X026671Y002849D01*
X026648Y002880D01*
X026627Y002913D01*
X026611Y002949D01*
X026597Y002985D01*
X026588Y003023D01*
X026582Y003061D01*
X026580Y003100D01*
X026570Y003500D02*
X027370Y002700D01*
X027580Y003100D02*
X027582Y003139D01*
X027588Y003177D01*
X027597Y003215D01*
X027611Y003251D01*
X027627Y003287D01*
X027648Y003320D01*
X027671Y003351D01*
X027698Y003379D01*
X027727Y003405D01*
X027758Y003428D01*
X027792Y003447D01*
X027828Y003463D01*
X027864Y003475D01*
X027902Y003484D01*
X027941Y003489D01*
X027980Y003490D01*
X028018Y003487D01*
X028057Y003480D01*
X028094Y003470D01*
X028130Y003455D01*
X028165Y003438D01*
X028198Y003417D01*
X028228Y003392D01*
X028256Y003365D01*
X028281Y003335D01*
X028303Y003303D01*
X028321Y003269D01*
X028336Y003233D01*
X028348Y003196D01*
X028356Y003158D01*
X028360Y003119D01*
X028360Y003081D01*
X028356Y003042D01*
X028348Y003004D01*
X028336Y002967D01*
X028321Y002931D01*
X028303Y002897D01*
X028281Y002865D01*
X028256Y002835D01*
X028228Y002808D01*
X028198Y002783D01*
X028165Y002762D01*
X028130Y002745D01*
X028094Y002730D01*
X028057Y002720D01*
X028018Y002713D01*
X027980Y002710D01*
X027941Y002711D01*
X027902Y002716D01*
X027864Y002725D01*
X027828Y002737D01*
X027792Y002753D01*
X027758Y002772D01*
X027727Y002795D01*
X027698Y002821D01*
X027671Y002849D01*
X027648Y002880D01*
X027627Y002913D01*
X027611Y002949D01*
X027597Y002985D01*
X027588Y003023D01*
X027582Y003061D01*
X027580Y003100D01*
X027570Y003500D02*
X028370Y002700D01*
X028580Y003100D02*
X028582Y003139D01*
X028588Y003177D01*
X028597Y003215D01*
X028611Y003251D01*
X028627Y003287D01*
X028648Y003320D01*
X028671Y003351D01*
X028698Y003379D01*
X028727Y003405D01*
X028758Y003428D01*
X028792Y003447D01*
X028828Y003463D01*
X028864Y003475D01*
X028902Y003484D01*
X028941Y003489D01*
X028980Y003490D01*
X029018Y003487D01*
X029057Y003480D01*
X029094Y003470D01*
X029130Y003455D01*
X029165Y003438D01*
X029198Y003417D01*
X029228Y003392D01*
X029256Y003365D01*
X029281Y003335D01*
X029303Y003303D01*
X029321Y003269D01*
X029336Y003233D01*
X029348Y003196D01*
X029356Y003158D01*
X029360Y003119D01*
X029360Y003081D01*
X029356Y003042D01*
X029348Y003004D01*
X029336Y002967D01*
X029321Y002931D01*
X029303Y002897D01*
X029281Y002865D01*
X029256Y002835D01*
X029228Y002808D01*
X029198Y002783D01*
X029165Y002762D01*
X029130Y002745D01*
X029094Y002730D01*
X029057Y002720D01*
X029018Y002713D01*
X028980Y002710D01*
X028941Y002711D01*
X028902Y002716D01*
X028864Y002725D01*
X028828Y002737D01*
X028792Y002753D01*
X028758Y002772D01*
X028727Y002795D01*
X028698Y002821D01*
X028671Y002849D01*
X028648Y002880D01*
X028627Y002913D01*
X028611Y002949D01*
X028597Y002985D01*
X028588Y003023D01*
X028582Y003061D01*
X028580Y003100D01*
X028570Y003500D02*
X029370Y002700D01*
X029580Y003100D02*
X029582Y003139D01*
X029588Y003177D01*
X029597Y003215D01*
X029611Y003251D01*
X029627Y003287D01*
X029648Y003320D01*
X029671Y003351D01*
X029698Y003379D01*
X029727Y003405D01*
X029758Y003428D01*
X029792Y003447D01*
X029828Y003463D01*
X029864Y003475D01*
X029902Y003484D01*
X029941Y003489D01*
X029980Y003490D01*
X030018Y003487D01*
X030057Y003480D01*
X030094Y003470D01*
X030130Y003455D01*
X030165Y003438D01*
X030198Y003417D01*
X030228Y003392D01*
X030256Y003365D01*
X030281Y003335D01*
X030303Y003303D01*
X030321Y003269D01*
X030336Y003233D01*
X030348Y003196D01*
X030356Y003158D01*
X030360Y003119D01*
X030360Y003081D01*
X030356Y003042D01*
X030348Y003004D01*
X030336Y002967D01*
X030321Y002931D01*
X030303Y002897D01*
X030281Y002865D01*
X030256Y002835D01*
X030228Y002808D01*
X030198Y002783D01*
X030165Y002762D01*
X030130Y002745D01*
X030094Y002730D01*
X030057Y002720D01*
X030018Y002713D01*
X029980Y002710D01*
X029941Y002711D01*
X029902Y002716D01*
X029864Y002725D01*
X029828Y002737D01*
X029792Y002753D01*
X029758Y002772D01*
X029727Y002795D01*
X029698Y002821D01*
X029671Y002849D01*
X029648Y002880D01*
X029627Y002913D01*
X029611Y002949D01*
X029597Y002985D01*
X029588Y003023D01*
X029582Y003061D01*
X029580Y003100D01*
X029570Y003500D02*
X030370Y002700D01*
X030580Y003100D02*
X030582Y003139D01*
X030588Y003177D01*
X030597Y003215D01*
X030611Y003251D01*
X030627Y003287D01*
X030648Y003320D01*
X030671Y003351D01*
X030698Y003379D01*
X030727Y003405D01*
X030758Y003428D01*
X030792Y003447D01*
X030828Y003463D01*
X030864Y003475D01*
X030902Y003484D01*
X030941Y003489D01*
X030980Y003490D01*
X031018Y003487D01*
X031057Y003480D01*
X031094Y003470D01*
X031130Y003455D01*
X031165Y003438D01*
X031198Y003417D01*
X031228Y003392D01*
X031256Y003365D01*
X031281Y003335D01*
X031303Y003303D01*
X031321Y003269D01*
X031336Y003233D01*
X031348Y003196D01*
X031356Y003158D01*
X031360Y003119D01*
X031360Y003081D01*
X031356Y003042D01*
X031348Y003004D01*
X031336Y002967D01*
X031321Y002931D01*
X031303Y002897D01*
X031281Y002865D01*
X031256Y002835D01*
X031228Y002808D01*
X031198Y002783D01*
X031165Y002762D01*
X031130Y002745D01*
X031094Y002730D01*
X031057Y002720D01*
X031018Y002713D01*
X030980Y002710D01*
X030941Y002711D01*
X030902Y002716D01*
X030864Y002725D01*
X030828Y002737D01*
X030792Y002753D01*
X030758Y002772D01*
X030727Y002795D01*
X030698Y002821D01*
X030671Y002849D01*
X030648Y002880D01*
X030627Y002913D01*
X030611Y002949D01*
X030597Y002985D01*
X030588Y003023D01*
X030582Y003061D01*
X030580Y003100D01*
X030570Y003500D02*
X031370Y002700D01*
X031580Y003100D02*
X031582Y003139D01*
X031588Y003177D01*
X031597Y003215D01*
X031611Y003251D01*
X031627Y003287D01*
X031648Y003320D01*
X031671Y003351D01*
X031698Y003379D01*
X031727Y003405D01*
X031758Y003428D01*
X031792Y003447D01*
X031828Y003463D01*
X031864Y003475D01*
X031902Y003484D01*
X031941Y003489D01*
X031980Y003490D01*
X032018Y003487D01*
X032057Y003480D01*
X032094Y003470D01*
X032130Y003455D01*
X032165Y003438D01*
X032198Y003417D01*
X032228Y003392D01*
X032256Y003365D01*
X032281Y003335D01*
X032303Y003303D01*
X032321Y003269D01*
X032336Y003233D01*
X032348Y003196D01*
X032356Y003158D01*
X032360Y003119D01*
X032360Y003081D01*
X032356Y003042D01*
X032348Y003004D01*
X032336Y002967D01*
X032321Y002931D01*
X032303Y002897D01*
X032281Y002865D01*
X032256Y002835D01*
X032228Y002808D01*
X032198Y002783D01*
X032165Y002762D01*
X032130Y002745D01*
X032094Y002730D01*
X032057Y002720D01*
X032018Y002713D01*
X031980Y002710D01*
X031941Y002711D01*
X031902Y002716D01*
X031864Y002725D01*
X031828Y002737D01*
X031792Y002753D01*
X031758Y002772D01*
X031727Y002795D01*
X031698Y002821D01*
X031671Y002849D01*
X031648Y002880D01*
X031627Y002913D01*
X031611Y002949D01*
X031597Y002985D01*
X031588Y003023D01*
X031582Y003061D01*
X031580Y003100D01*
X031570Y003500D02*
X032370Y002700D01*
X032580Y003100D02*
X032582Y003139D01*
X032588Y003177D01*
X032597Y003215D01*
X032611Y003251D01*
X032627Y003287D01*
X032648Y003320D01*
X032671Y003351D01*
X032698Y003379D01*
X032727Y003405D01*
X032758Y003428D01*
X032792Y003447D01*
X032828Y003463D01*
X032864Y003475D01*
X032902Y003484D01*
X032941Y003489D01*
X032980Y003490D01*
X033018Y003487D01*
X033057Y003480D01*
X033094Y003470D01*
X033130Y003455D01*
X033165Y003438D01*
X033198Y003417D01*
X033228Y003392D01*
X033256Y003365D01*
X033281Y003335D01*
X033303Y003303D01*
X033321Y003269D01*
X033336Y003233D01*
X033348Y003196D01*
X033356Y003158D01*
X033360Y003119D01*
X033360Y003081D01*
X033356Y003042D01*
X033348Y003004D01*
X033336Y002967D01*
X033321Y002931D01*
X033303Y002897D01*
X033281Y002865D01*
X033256Y002835D01*
X033228Y002808D01*
X033198Y002783D01*
X033165Y002762D01*
X033130Y002745D01*
X033094Y002730D01*
X033057Y002720D01*
X033018Y002713D01*
X032980Y002710D01*
X032941Y002711D01*
X032902Y002716D01*
X032864Y002725D01*
X032828Y002737D01*
X032792Y002753D01*
X032758Y002772D01*
X032727Y002795D01*
X032698Y002821D01*
X032671Y002849D01*
X032648Y002880D01*
X032627Y002913D01*
X032611Y002949D01*
X032597Y002985D01*
X032588Y003023D01*
X032582Y003061D01*
X032580Y003100D01*
X032570Y003500D02*
X033370Y002700D01*
X033580Y003100D02*
X033582Y003139D01*
X033588Y003177D01*
X033597Y003215D01*
X033611Y003251D01*
X033627Y003287D01*
X033648Y003320D01*
X033671Y003351D01*
X033698Y003379D01*
X033727Y003405D01*
X033758Y003428D01*
X033792Y003447D01*
X033828Y003463D01*
X033864Y003475D01*
X033902Y003484D01*
X033941Y003489D01*
X033980Y003490D01*
X034018Y003487D01*
X034057Y003480D01*
X034094Y003470D01*
X034130Y003455D01*
X034165Y003438D01*
X034198Y003417D01*
X034228Y003392D01*
X034256Y003365D01*
X034281Y003335D01*
X034303Y003303D01*
X034321Y003269D01*
X034336Y003233D01*
X034348Y003196D01*
X034356Y003158D01*
X034360Y003119D01*
X034360Y003081D01*
X034356Y003042D01*
X034348Y003004D01*
X034336Y002967D01*
X034321Y002931D01*
X034303Y002897D01*
X034281Y002865D01*
X034256Y002835D01*
X034228Y002808D01*
X034198Y002783D01*
X034165Y002762D01*
X034130Y002745D01*
X034094Y002730D01*
X034057Y002720D01*
X034018Y002713D01*
X033980Y002710D01*
X033941Y002711D01*
X033902Y002716D01*
X033864Y002725D01*
X033828Y002737D01*
X033792Y002753D01*
X033758Y002772D01*
X033727Y002795D01*
X033698Y002821D01*
X033671Y002849D01*
X033648Y002880D01*
X033627Y002913D01*
X033611Y002949D01*
X033597Y002985D01*
X033588Y003023D01*
X033582Y003061D01*
X033580Y003100D01*
X033570Y003500D02*
X034370Y002700D01*
X034580Y003100D02*
X034582Y003139D01*
X034588Y003177D01*
X034597Y003215D01*
X034611Y003251D01*
X034627Y003287D01*
X034648Y003320D01*
X034671Y003351D01*
X034698Y003379D01*
X034727Y003405D01*
X034758Y003428D01*
X034792Y003447D01*
X034828Y003463D01*
X034864Y003475D01*
X034902Y003484D01*
X034941Y003489D01*
X034980Y003490D01*
X035018Y003487D01*
X035057Y003480D01*
X035094Y003470D01*
X035130Y003455D01*
X035165Y003438D01*
X035198Y003417D01*
X035228Y003392D01*
X035256Y003365D01*
X035281Y003335D01*
X035303Y003303D01*
X035321Y003269D01*
X035336Y003233D01*
X035348Y003196D01*
X035356Y003158D01*
X035360Y003119D01*
X035360Y003081D01*
X035356Y003042D01*
X035348Y003004D01*
X035336Y002967D01*
X035321Y002931D01*
X035303Y002897D01*
X035281Y002865D01*
X035256Y002835D01*
X035228Y002808D01*
X035198Y002783D01*
X035165Y002762D01*
X035130Y002745D01*
X035094Y002730D01*
X035057Y002720D01*
X035018Y002713D01*
X034980Y002710D01*
X034941Y002711D01*
X034902Y002716D01*
X034864Y002725D01*
X034828Y002737D01*
X034792Y002753D01*
X034758Y002772D01*
X034727Y002795D01*
X034698Y002821D01*
X034671Y002849D01*
X034648Y002880D01*
X034627Y002913D01*
X034611Y002949D01*
X034597Y002985D01*
X034588Y003023D01*
X034582Y003061D01*
X034580Y003100D01*
X034570Y003500D02*
X035370Y002700D01*
X036580Y004100D02*
X036582Y004139D01*
X036588Y004177D01*
X036597Y004215D01*
X036611Y004251D01*
X036627Y004287D01*
X036648Y004320D01*
X036671Y004351D01*
X036698Y004379D01*
X036727Y004405D01*
X036758Y004428D01*
X036792Y004447D01*
X036828Y004463D01*
X036864Y004475D01*
X036902Y004484D01*
X036941Y004489D01*
X036980Y004490D01*
X037018Y004487D01*
X037057Y004480D01*
X037094Y004470D01*
X037130Y004455D01*
X037165Y004438D01*
X037198Y004417D01*
X037228Y004392D01*
X037256Y004365D01*
X037281Y004335D01*
X037303Y004303D01*
X037321Y004269D01*
X037336Y004233D01*
X037348Y004196D01*
X037356Y004158D01*
X037360Y004119D01*
X037360Y004081D01*
X037356Y004042D01*
X037348Y004004D01*
X037336Y003967D01*
X037321Y003931D01*
X037303Y003897D01*
X037281Y003865D01*
X037256Y003835D01*
X037228Y003808D01*
X037198Y003783D01*
X037165Y003762D01*
X037130Y003745D01*
X037094Y003730D01*
X037057Y003720D01*
X037018Y003713D01*
X036980Y003710D01*
X036941Y003711D01*
X036902Y003716D01*
X036864Y003725D01*
X036828Y003737D01*
X036792Y003753D01*
X036758Y003772D01*
X036727Y003795D01*
X036698Y003821D01*
X036671Y003849D01*
X036648Y003880D01*
X036627Y003913D01*
X036611Y003949D01*
X036597Y003985D01*
X036588Y004023D01*
X036582Y004061D01*
X036580Y004100D01*
X036570Y004500D02*
X037370Y003700D01*
X036580Y005100D02*
X036582Y005139D01*
X036588Y005177D01*
X036597Y005215D01*
X036611Y005251D01*
X036627Y005287D01*
X036648Y005320D01*
X036671Y005351D01*
X036698Y005379D01*
X036727Y005405D01*
X036758Y005428D01*
X036792Y005447D01*
X036828Y005463D01*
X036864Y005475D01*
X036902Y005484D01*
X036941Y005489D01*
X036980Y005490D01*
X037018Y005487D01*
X037057Y005480D01*
X037094Y005470D01*
X037130Y005455D01*
X037165Y005438D01*
X037198Y005417D01*
X037228Y005392D01*
X037256Y005365D01*
X037281Y005335D01*
X037303Y005303D01*
X037321Y005269D01*
X037336Y005233D01*
X037348Y005196D01*
X037356Y005158D01*
X037360Y005119D01*
X037360Y005081D01*
X037356Y005042D01*
X037348Y005004D01*
X037336Y004967D01*
X037321Y004931D01*
X037303Y004897D01*
X037281Y004865D01*
X037256Y004835D01*
X037228Y004808D01*
X037198Y004783D01*
X037165Y004762D01*
X037130Y004745D01*
X037094Y004730D01*
X037057Y004720D01*
X037018Y004713D01*
X036980Y004710D01*
X036941Y004711D01*
X036902Y004716D01*
X036864Y004725D01*
X036828Y004737D01*
X036792Y004753D01*
X036758Y004772D01*
X036727Y004795D01*
X036698Y004821D01*
X036671Y004849D01*
X036648Y004880D01*
X036627Y004913D01*
X036611Y004949D01*
X036597Y004985D01*
X036588Y005023D01*
X036582Y005061D01*
X036580Y005100D01*
X036570Y005500D02*
X037370Y004700D01*
X036580Y006100D02*
X036582Y006139D01*
X036588Y006177D01*
X036597Y006215D01*
X036611Y006251D01*
X036627Y006287D01*
X036648Y006320D01*
X036671Y006351D01*
X036698Y006379D01*
X036727Y006405D01*
X036758Y006428D01*
X036792Y006447D01*
X036828Y006463D01*
X036864Y006475D01*
X036902Y006484D01*
X036941Y006489D01*
X036980Y006490D01*
X037018Y006487D01*
X037057Y006480D01*
X037094Y006470D01*
X037130Y006455D01*
X037165Y006438D01*
X037198Y006417D01*
X037228Y006392D01*
X037256Y006365D01*
X037281Y006335D01*
X037303Y006303D01*
X037321Y006269D01*
X037336Y006233D01*
X037348Y006196D01*
X037356Y006158D01*
X037360Y006119D01*
X037360Y006081D01*
X037356Y006042D01*
X037348Y006004D01*
X037336Y005967D01*
X037321Y005931D01*
X037303Y005897D01*
X037281Y005865D01*
X037256Y005835D01*
X037228Y005808D01*
X037198Y005783D01*
X037165Y005762D01*
X037130Y005745D01*
X037094Y005730D01*
X037057Y005720D01*
X037018Y005713D01*
X036980Y005710D01*
X036941Y005711D01*
X036902Y005716D01*
X036864Y005725D01*
X036828Y005737D01*
X036792Y005753D01*
X036758Y005772D01*
X036727Y005795D01*
X036698Y005821D01*
X036671Y005849D01*
X036648Y005880D01*
X036627Y005913D01*
X036611Y005949D01*
X036597Y005985D01*
X036588Y006023D01*
X036582Y006061D01*
X036580Y006100D01*
X036570Y006500D02*
X037370Y005700D01*
X036580Y007100D02*
X036582Y007139D01*
X036588Y007177D01*
X036597Y007215D01*
X036611Y007251D01*
X036627Y007287D01*
X036648Y007320D01*
X036671Y007351D01*
X036698Y007379D01*
X036727Y007405D01*
X036758Y007428D01*
X036792Y007447D01*
X036828Y007463D01*
X036864Y007475D01*
X036902Y007484D01*
X036941Y007489D01*
X036980Y007490D01*
X037018Y007487D01*
X037057Y007480D01*
X037094Y007470D01*
X037130Y007455D01*
X037165Y007438D01*
X037198Y007417D01*
X037228Y007392D01*
X037256Y007365D01*
X037281Y007335D01*
X037303Y007303D01*
X037321Y007269D01*
X037336Y007233D01*
X037348Y007196D01*
X037356Y007158D01*
X037360Y007119D01*
X037360Y007081D01*
X037356Y007042D01*
X037348Y007004D01*
X037336Y006967D01*
X037321Y006931D01*
X037303Y006897D01*
X037281Y006865D01*
X037256Y006835D01*
X037228Y006808D01*
X037198Y006783D01*
X037165Y006762D01*
X037130Y006745D01*
X037094Y006730D01*
X037057Y006720D01*
X037018Y006713D01*
X036980Y006710D01*
X036941Y006711D01*
X036902Y006716D01*
X036864Y006725D01*
X036828Y006737D01*
X036792Y006753D01*
X036758Y006772D01*
X036727Y006795D01*
X036698Y006821D01*
X036671Y006849D01*
X036648Y006880D01*
X036627Y006913D01*
X036611Y006949D01*
X036597Y006985D01*
X036588Y007023D01*
X036582Y007061D01*
X036580Y007100D01*
X036570Y007500D02*
X037370Y006700D01*
X036580Y008100D02*
X036582Y008139D01*
X036588Y008177D01*
X036597Y008215D01*
X036611Y008251D01*
X036627Y008287D01*
X036648Y008320D01*
X036671Y008351D01*
X036698Y008379D01*
X036727Y008405D01*
X036758Y008428D01*
X036792Y008447D01*
X036828Y008463D01*
X036864Y008475D01*
X036902Y008484D01*
X036941Y008489D01*
X036980Y008490D01*
X037018Y008487D01*
X037057Y008480D01*
X037094Y008470D01*
X037130Y008455D01*
X037165Y008438D01*
X037198Y008417D01*
X037228Y008392D01*
X037256Y008365D01*
X037281Y008335D01*
X037303Y008303D01*
X037321Y008269D01*
X037336Y008233D01*
X037348Y008196D01*
X037356Y008158D01*
X037360Y008119D01*
X037360Y008081D01*
X037356Y008042D01*
X037348Y008004D01*
X037336Y007967D01*
X037321Y007931D01*
X037303Y007897D01*
X037281Y007865D01*
X037256Y007835D01*
X037228Y007808D01*
X037198Y007783D01*
X037165Y007762D01*
X037130Y007745D01*
X037094Y007730D01*
X037057Y007720D01*
X037018Y007713D01*
X036980Y007710D01*
X036941Y007711D01*
X036902Y007716D01*
X036864Y007725D01*
X036828Y007737D01*
X036792Y007753D01*
X036758Y007772D01*
X036727Y007795D01*
X036698Y007821D01*
X036671Y007849D01*
X036648Y007880D01*
X036627Y007913D01*
X036611Y007949D01*
X036597Y007985D01*
X036588Y008023D01*
X036582Y008061D01*
X036580Y008100D01*
X036570Y008500D02*
X037370Y007700D01*
X036580Y009100D02*
X036582Y009139D01*
X036588Y009177D01*
X036597Y009215D01*
X036611Y009251D01*
X036627Y009287D01*
X036648Y009320D01*
X036671Y009351D01*
X036698Y009379D01*
X036727Y009405D01*
X036758Y009428D01*
X036792Y009447D01*
X036828Y009463D01*
X036864Y009475D01*
X036902Y009484D01*
X036941Y009489D01*
X036980Y009490D01*
X037018Y009487D01*
X037057Y009480D01*
X037094Y009470D01*
X037130Y009455D01*
X037165Y009438D01*
X037198Y009417D01*
X037228Y009392D01*
X037256Y009365D01*
X037281Y009335D01*
X037303Y009303D01*
X037321Y009269D01*
X037336Y009233D01*
X037348Y009196D01*
X037356Y009158D01*
X037360Y009119D01*
X037360Y009081D01*
X037356Y009042D01*
X037348Y009004D01*
X037336Y008967D01*
X037321Y008931D01*
X037303Y008897D01*
X037281Y008865D01*
X037256Y008835D01*
X037228Y008808D01*
X037198Y008783D01*
X037165Y008762D01*
X037130Y008745D01*
X037094Y008730D01*
X037057Y008720D01*
X037018Y008713D01*
X036980Y008710D01*
X036941Y008711D01*
X036902Y008716D01*
X036864Y008725D01*
X036828Y008737D01*
X036792Y008753D01*
X036758Y008772D01*
X036727Y008795D01*
X036698Y008821D01*
X036671Y008849D01*
X036648Y008880D01*
X036627Y008913D01*
X036611Y008949D01*
X036597Y008985D01*
X036588Y009023D01*
X036582Y009061D01*
X036580Y009100D01*
X036570Y009500D02*
X037370Y008700D01*
X036580Y010100D02*
X036582Y010139D01*
X036588Y010177D01*
X036597Y010215D01*
X036611Y010251D01*
X036627Y010287D01*
X036648Y010320D01*
X036671Y010351D01*
X036698Y010379D01*
X036727Y010405D01*
X036758Y010428D01*
X036792Y010447D01*
X036828Y010463D01*
X036864Y010475D01*
X036902Y010484D01*
X036941Y010489D01*
X036980Y010490D01*
X037018Y010487D01*
X037057Y010480D01*
X037094Y010470D01*
X037130Y010455D01*
X037165Y010438D01*
X037198Y010417D01*
X037228Y010392D01*
X037256Y010365D01*
X037281Y010335D01*
X037303Y010303D01*
X037321Y010269D01*
X037336Y010233D01*
X037348Y010196D01*
X037356Y010158D01*
X037360Y010119D01*
X037360Y010081D01*
X037356Y010042D01*
X037348Y010004D01*
X037336Y009967D01*
X037321Y009931D01*
X037303Y009897D01*
X037281Y009865D01*
X037256Y009835D01*
X037228Y009808D01*
X037198Y009783D01*
X037165Y009762D01*
X037130Y009745D01*
X037094Y009730D01*
X037057Y009720D01*
X037018Y009713D01*
X036980Y009710D01*
X036941Y009711D01*
X036902Y009716D01*
X036864Y009725D01*
X036828Y009737D01*
X036792Y009753D01*
X036758Y009772D01*
X036727Y009795D01*
X036698Y009821D01*
X036671Y009849D01*
X036648Y009880D01*
X036627Y009913D01*
X036611Y009949D01*
X036597Y009985D01*
X036588Y010023D01*
X036582Y010061D01*
X036580Y010100D01*
X036570Y010500D02*
X037370Y009700D01*
X039580Y010100D02*
X039582Y010139D01*
X039588Y010177D01*
X039597Y010215D01*
X039611Y010251D01*
X039627Y010287D01*
X039648Y010320D01*
X039671Y010351D01*
X039698Y010379D01*
X039727Y010405D01*
X039758Y010428D01*
X039792Y010447D01*
X039828Y010463D01*
X039864Y010475D01*
X039902Y010484D01*
X039941Y010489D01*
X039980Y010490D01*
X040018Y010487D01*
X040057Y010480D01*
X040094Y010470D01*
X040130Y010455D01*
X040165Y010438D01*
X040198Y010417D01*
X040228Y010392D01*
X040256Y010365D01*
X040281Y010335D01*
X040303Y010303D01*
X040321Y010269D01*
X040336Y010233D01*
X040348Y010196D01*
X040356Y010158D01*
X040360Y010119D01*
X040360Y010081D01*
X040356Y010042D01*
X040348Y010004D01*
X040336Y009967D01*
X040321Y009931D01*
X040303Y009897D01*
X040281Y009865D01*
X040256Y009835D01*
X040228Y009808D01*
X040198Y009783D01*
X040165Y009762D01*
X040130Y009745D01*
X040094Y009730D01*
X040057Y009720D01*
X040018Y009713D01*
X039980Y009710D01*
X039941Y009711D01*
X039902Y009716D01*
X039864Y009725D01*
X039828Y009737D01*
X039792Y009753D01*
X039758Y009772D01*
X039727Y009795D01*
X039698Y009821D01*
X039671Y009849D01*
X039648Y009880D01*
X039627Y009913D01*
X039611Y009949D01*
X039597Y009985D01*
X039588Y010023D01*
X039582Y010061D01*
X039580Y010100D01*
X039570Y010500D02*
X040370Y009700D01*
X039580Y009100D02*
X039582Y009139D01*
X039588Y009177D01*
X039597Y009215D01*
X039611Y009251D01*
X039627Y009287D01*
X039648Y009320D01*
X039671Y009351D01*
X039698Y009379D01*
X039727Y009405D01*
X039758Y009428D01*
X039792Y009447D01*
X039828Y009463D01*
X039864Y009475D01*
X039902Y009484D01*
X039941Y009489D01*
X039980Y009490D01*
X040018Y009487D01*
X040057Y009480D01*
X040094Y009470D01*
X040130Y009455D01*
X040165Y009438D01*
X040198Y009417D01*
X040228Y009392D01*
X040256Y009365D01*
X040281Y009335D01*
X040303Y009303D01*
X040321Y009269D01*
X040336Y009233D01*
X040348Y009196D01*
X040356Y009158D01*
X040360Y009119D01*
X040360Y009081D01*
X040356Y009042D01*
X040348Y009004D01*
X040336Y008967D01*
X040321Y008931D01*
X040303Y008897D01*
X040281Y008865D01*
X040256Y008835D01*
X040228Y008808D01*
X040198Y008783D01*
X040165Y008762D01*
X040130Y008745D01*
X040094Y008730D01*
X040057Y008720D01*
X040018Y008713D01*
X039980Y008710D01*
X039941Y008711D01*
X039902Y008716D01*
X039864Y008725D01*
X039828Y008737D01*
X039792Y008753D01*
X039758Y008772D01*
X039727Y008795D01*
X039698Y008821D01*
X039671Y008849D01*
X039648Y008880D01*
X039627Y008913D01*
X039611Y008949D01*
X039597Y008985D01*
X039588Y009023D01*
X039582Y009061D01*
X039580Y009100D01*
X039570Y009500D02*
X040370Y008700D01*
X039580Y008100D02*
X039582Y008139D01*
X039588Y008177D01*
X039597Y008215D01*
X039611Y008251D01*
X039627Y008287D01*
X039648Y008320D01*
X039671Y008351D01*
X039698Y008379D01*
X039727Y008405D01*
X039758Y008428D01*
X039792Y008447D01*
X039828Y008463D01*
X039864Y008475D01*
X039902Y008484D01*
X039941Y008489D01*
X039980Y008490D01*
X040018Y008487D01*
X040057Y008480D01*
X040094Y008470D01*
X040130Y008455D01*
X040165Y008438D01*
X040198Y008417D01*
X040228Y008392D01*
X040256Y008365D01*
X040281Y008335D01*
X040303Y008303D01*
X040321Y008269D01*
X040336Y008233D01*
X040348Y008196D01*
X040356Y008158D01*
X040360Y008119D01*
X040360Y008081D01*
X040356Y008042D01*
X040348Y008004D01*
X040336Y007967D01*
X040321Y007931D01*
X040303Y007897D01*
X040281Y007865D01*
X040256Y007835D01*
X040228Y007808D01*
X040198Y007783D01*
X040165Y007762D01*
X040130Y007745D01*
X040094Y007730D01*
X040057Y007720D01*
X040018Y007713D01*
X039980Y007710D01*
X039941Y007711D01*
X039902Y007716D01*
X039864Y007725D01*
X039828Y007737D01*
X039792Y007753D01*
X039758Y007772D01*
X039727Y007795D01*
X039698Y007821D01*
X039671Y007849D01*
X039648Y007880D01*
X039627Y007913D01*
X039611Y007949D01*
X039597Y007985D01*
X039588Y008023D01*
X039582Y008061D01*
X039580Y008100D01*
X039570Y008500D02*
X040370Y007700D01*
X039580Y007100D02*
X039582Y007139D01*
X039588Y007177D01*
X039597Y007215D01*
X039611Y007251D01*
X039627Y007287D01*
X039648Y007320D01*
X039671Y007351D01*
X039698Y007379D01*
X039727Y007405D01*
X039758Y007428D01*
X039792Y007447D01*
X039828Y007463D01*
X039864Y007475D01*
X039902Y007484D01*
X039941Y007489D01*
X039980Y007490D01*
X040018Y007487D01*
X040057Y007480D01*
X040094Y007470D01*
X040130Y007455D01*
X040165Y007438D01*
X040198Y007417D01*
X040228Y007392D01*
X040256Y007365D01*
X040281Y007335D01*
X040303Y007303D01*
X040321Y007269D01*
X040336Y007233D01*
X040348Y007196D01*
X040356Y007158D01*
X040360Y007119D01*
X040360Y007081D01*
X040356Y007042D01*
X040348Y007004D01*
X040336Y006967D01*
X040321Y006931D01*
X040303Y006897D01*
X040281Y006865D01*
X040256Y006835D01*
X040228Y006808D01*
X040198Y006783D01*
X040165Y006762D01*
X040130Y006745D01*
X040094Y006730D01*
X040057Y006720D01*
X040018Y006713D01*
X039980Y006710D01*
X039941Y006711D01*
X039902Y006716D01*
X039864Y006725D01*
X039828Y006737D01*
X039792Y006753D01*
X039758Y006772D01*
X039727Y006795D01*
X039698Y006821D01*
X039671Y006849D01*
X039648Y006880D01*
X039627Y006913D01*
X039611Y006949D01*
X039597Y006985D01*
X039588Y007023D01*
X039582Y007061D01*
X039580Y007100D01*
X039570Y007500D02*
X040370Y006700D01*
X039580Y006100D02*
X039582Y006139D01*
X039588Y006177D01*
X039597Y006215D01*
X039611Y006251D01*
X039627Y006287D01*
X039648Y006320D01*
X039671Y006351D01*
X039698Y006379D01*
X039727Y006405D01*
X039758Y006428D01*
X039792Y006447D01*
X039828Y006463D01*
X039864Y006475D01*
X039902Y006484D01*
X039941Y006489D01*
X039980Y006490D01*
X040018Y006487D01*
X040057Y006480D01*
X040094Y006470D01*
X040130Y006455D01*
X040165Y006438D01*
X040198Y006417D01*
X040228Y006392D01*
X040256Y006365D01*
X040281Y006335D01*
X040303Y006303D01*
X040321Y006269D01*
X040336Y006233D01*
X040348Y006196D01*
X040356Y006158D01*
X040360Y006119D01*
X040360Y006081D01*
X040356Y006042D01*
X040348Y006004D01*
X040336Y005967D01*
X040321Y005931D01*
X040303Y005897D01*
X040281Y005865D01*
X040256Y005835D01*
X040228Y005808D01*
X040198Y005783D01*
X040165Y005762D01*
X040130Y005745D01*
X040094Y005730D01*
X040057Y005720D01*
X040018Y005713D01*
X039980Y005710D01*
X039941Y005711D01*
X039902Y005716D01*
X039864Y005725D01*
X039828Y005737D01*
X039792Y005753D01*
X039758Y005772D01*
X039727Y005795D01*
X039698Y005821D01*
X039671Y005849D01*
X039648Y005880D01*
X039627Y005913D01*
X039611Y005949D01*
X039597Y005985D01*
X039588Y006023D01*
X039582Y006061D01*
X039580Y006100D01*
X039570Y006500D02*
X040370Y005700D01*
X039580Y005100D02*
X039582Y005139D01*
X039588Y005177D01*
X039597Y005215D01*
X039611Y005251D01*
X039627Y005287D01*
X039648Y005320D01*
X039671Y005351D01*
X039698Y005379D01*
X039727Y005405D01*
X039758Y005428D01*
X039792Y005447D01*
X039828Y005463D01*
X039864Y005475D01*
X039902Y005484D01*
X039941Y005489D01*
X039980Y005490D01*
X040018Y005487D01*
X040057Y005480D01*
X040094Y005470D01*
X040130Y005455D01*
X040165Y005438D01*
X040198Y005417D01*
X040228Y005392D01*
X040256Y005365D01*
X040281Y005335D01*
X040303Y005303D01*
X040321Y005269D01*
X040336Y005233D01*
X040348Y005196D01*
X040356Y005158D01*
X040360Y005119D01*
X040360Y005081D01*
X040356Y005042D01*
X040348Y005004D01*
X040336Y004967D01*
X040321Y004931D01*
X040303Y004897D01*
X040281Y004865D01*
X040256Y004835D01*
X040228Y004808D01*
X040198Y004783D01*
X040165Y004762D01*
X040130Y004745D01*
X040094Y004730D01*
X040057Y004720D01*
X040018Y004713D01*
X039980Y004710D01*
X039941Y004711D01*
X039902Y004716D01*
X039864Y004725D01*
X039828Y004737D01*
X039792Y004753D01*
X039758Y004772D01*
X039727Y004795D01*
X039698Y004821D01*
X039671Y004849D01*
X039648Y004880D01*
X039627Y004913D01*
X039611Y004949D01*
X039597Y004985D01*
X039588Y005023D01*
X039582Y005061D01*
X039580Y005100D01*
X039570Y005500D02*
X040370Y004700D01*
X039580Y004100D02*
X039582Y004139D01*
X039588Y004177D01*
X039597Y004215D01*
X039611Y004251D01*
X039627Y004287D01*
X039648Y004320D01*
X039671Y004351D01*
X039698Y004379D01*
X039727Y004405D01*
X039758Y004428D01*
X039792Y004447D01*
X039828Y004463D01*
X039864Y004475D01*
X039902Y004484D01*
X039941Y004489D01*
X039980Y004490D01*
X040018Y004487D01*
X040057Y004480D01*
X040094Y004470D01*
X040130Y004455D01*
X040165Y004438D01*
X040198Y004417D01*
X040228Y004392D01*
X040256Y004365D01*
X040281Y004335D01*
X040303Y004303D01*
X040321Y004269D01*
X040336Y004233D01*
X040348Y004196D01*
X040356Y004158D01*
X040360Y004119D01*
X040360Y004081D01*
X040356Y004042D01*
X040348Y004004D01*
X040336Y003967D01*
X040321Y003931D01*
X040303Y003897D01*
X040281Y003865D01*
X040256Y003835D01*
X040228Y003808D01*
X040198Y003783D01*
X040165Y003762D01*
X040130Y003745D01*
X040094Y003730D01*
X040057Y003720D01*
X040018Y003713D01*
X039980Y003710D01*
X039941Y003711D01*
X039902Y003716D01*
X039864Y003725D01*
X039828Y003737D01*
X039792Y003753D01*
X039758Y003772D01*
X039727Y003795D01*
X039698Y003821D01*
X039671Y003849D01*
X039648Y003880D01*
X039627Y003913D01*
X039611Y003949D01*
X039597Y003985D01*
X039588Y004023D01*
X039582Y004061D01*
X039580Y004100D01*
X039570Y004500D02*
X040370Y003700D01*
X041580Y005600D02*
X041582Y005639D01*
X041588Y005677D01*
X041597Y005715D01*
X041611Y005751D01*
X041627Y005787D01*
X041648Y005820D01*
X041671Y005851D01*
X041698Y005879D01*
X041727Y005905D01*
X041758Y005928D01*
X041792Y005947D01*
X041828Y005963D01*
X041864Y005975D01*
X041902Y005984D01*
X041941Y005989D01*
X041980Y005990D01*
X042018Y005987D01*
X042057Y005980D01*
X042094Y005970D01*
X042130Y005955D01*
X042165Y005938D01*
X042198Y005917D01*
X042228Y005892D01*
X042256Y005865D01*
X042281Y005835D01*
X042303Y005803D01*
X042321Y005769D01*
X042336Y005733D01*
X042348Y005696D01*
X042356Y005658D01*
X042360Y005619D01*
X042360Y005581D01*
X042356Y005542D01*
X042348Y005504D01*
X042336Y005467D01*
X042321Y005431D01*
X042303Y005397D01*
X042281Y005365D01*
X042256Y005335D01*
X042228Y005308D01*
X042198Y005283D01*
X042165Y005262D01*
X042130Y005245D01*
X042094Y005230D01*
X042057Y005220D01*
X042018Y005213D01*
X041980Y005210D01*
X041941Y005211D01*
X041902Y005216D01*
X041864Y005225D01*
X041828Y005237D01*
X041792Y005253D01*
X041758Y005272D01*
X041727Y005295D01*
X041698Y005321D01*
X041671Y005349D01*
X041648Y005380D01*
X041627Y005413D01*
X041611Y005449D01*
X041597Y005485D01*
X041588Y005523D01*
X041582Y005561D01*
X041580Y005600D01*
X041570Y006000D02*
X042370Y005200D01*
X043580Y006100D02*
X043582Y006139D01*
X043588Y006177D01*
X043597Y006215D01*
X043611Y006251D01*
X043627Y006287D01*
X043648Y006320D01*
X043671Y006351D01*
X043698Y006379D01*
X043727Y006405D01*
X043758Y006428D01*
X043792Y006447D01*
X043828Y006463D01*
X043864Y006475D01*
X043902Y006484D01*
X043941Y006489D01*
X043980Y006490D01*
X044018Y006487D01*
X044057Y006480D01*
X044094Y006470D01*
X044130Y006455D01*
X044165Y006438D01*
X044198Y006417D01*
X044228Y006392D01*
X044256Y006365D01*
X044281Y006335D01*
X044303Y006303D01*
X044321Y006269D01*
X044336Y006233D01*
X044348Y006196D01*
X044356Y006158D01*
X044360Y006119D01*
X044360Y006081D01*
X044356Y006042D01*
X044348Y006004D01*
X044336Y005967D01*
X044321Y005931D01*
X044303Y005897D01*
X044281Y005865D01*
X044256Y005835D01*
X044228Y005808D01*
X044198Y005783D01*
X044165Y005762D01*
X044130Y005745D01*
X044094Y005730D01*
X044057Y005720D01*
X044018Y005713D01*
X043980Y005710D01*
X043941Y005711D01*
X043902Y005716D01*
X043864Y005725D01*
X043828Y005737D01*
X043792Y005753D01*
X043758Y005772D01*
X043727Y005795D01*
X043698Y005821D01*
X043671Y005849D01*
X043648Y005880D01*
X043627Y005913D01*
X043611Y005949D01*
X043597Y005985D01*
X043588Y006023D01*
X043582Y006061D01*
X043580Y006100D01*
X043570Y006500D02*
X044370Y005700D01*
X041465Y007810D02*
X041465Y007885D01*
X041440Y007910D01*
X041390Y007910D01*
X041365Y007885D01*
X041365Y007810D01*
X041315Y007810D02*
X041465Y007810D01*
X041365Y007860D02*
X041315Y007910D01*
X041340Y007958D02*
X041315Y007983D01*
X041315Y008033D01*
X041340Y008058D01*
X041365Y008058D01*
X041390Y008033D01*
X041390Y008008D01*
X041390Y008033D02*
X041415Y008058D01*
X041440Y008058D01*
X041465Y008033D01*
X041465Y007983D01*
X041440Y007958D01*
X041580Y008600D02*
X041582Y008639D01*
X041588Y008677D01*
X041597Y008715D01*
X041611Y008751D01*
X041627Y008787D01*
X041648Y008820D01*
X041671Y008851D01*
X041698Y008879D01*
X041727Y008905D01*
X041758Y008928D01*
X041792Y008947D01*
X041828Y008963D01*
X041864Y008975D01*
X041902Y008984D01*
X041941Y008989D01*
X041980Y008990D01*
X042018Y008987D01*
X042057Y008980D01*
X042094Y008970D01*
X042130Y008955D01*
X042165Y008938D01*
X042198Y008917D01*
X042228Y008892D01*
X042256Y008865D01*
X042281Y008835D01*
X042303Y008803D01*
X042321Y008769D01*
X042336Y008733D01*
X042348Y008696D01*
X042356Y008658D01*
X042360Y008619D01*
X042360Y008581D01*
X042356Y008542D01*
X042348Y008504D01*
X042336Y008467D01*
X042321Y008431D01*
X042303Y008397D01*
X042281Y008365D01*
X042256Y008335D01*
X042228Y008308D01*
X042198Y008283D01*
X042165Y008262D01*
X042130Y008245D01*
X042094Y008230D01*
X042057Y008220D01*
X042018Y008213D01*
X041980Y008210D01*
X041941Y008211D01*
X041902Y008216D01*
X041864Y008225D01*
X041828Y008237D01*
X041792Y008253D01*
X041758Y008272D01*
X041727Y008295D01*
X041698Y008321D01*
X041671Y008349D01*
X041648Y008380D01*
X041627Y008413D01*
X041611Y008449D01*
X041597Y008485D01*
X041588Y008523D01*
X041582Y008561D01*
X041580Y008600D01*
X041570Y009000D02*
X042370Y008200D01*
X041277Y011995D02*
X041302Y012020D01*
X041302Y012120D01*
X041277Y012145D01*
X041227Y012145D01*
X041202Y012120D01*
X041202Y012020D01*
X041227Y011995D01*
X041277Y011995D01*
X041252Y012045D02*
X041202Y011995D01*
X041155Y011995D02*
X041055Y011995D01*
X041105Y011995D02*
X041105Y012145D01*
X041155Y012095D01*
X041130Y014995D02*
X041155Y015020D01*
X041055Y015120D01*
X041055Y015020D01*
X041080Y014995D01*
X041130Y014995D01*
X041155Y015020D02*
X041155Y015120D01*
X041130Y015145D01*
X041080Y015145D01*
X041055Y015120D01*
X041202Y015120D02*
X041202Y015095D01*
X041227Y015070D01*
X041277Y015070D01*
X041302Y015095D01*
X041302Y015120D01*
X041277Y015145D01*
X041227Y015145D01*
X041202Y015120D01*
X041227Y015070D02*
X041202Y015045D01*
X041202Y015020D01*
X041227Y014995D01*
X041277Y014995D01*
X041302Y015020D01*
X041302Y015045D01*
X041277Y015070D01*
X041350Y015070D02*
X041350Y015020D01*
X041375Y014995D01*
X041425Y014995D01*
X041450Y015020D01*
X041497Y015020D02*
X041522Y014995D01*
X041572Y014995D01*
X041597Y015020D01*
X041597Y015045D01*
X041572Y015070D01*
X041522Y015070D01*
X041497Y015045D01*
X041497Y015020D01*
X041522Y015070D02*
X041497Y015095D01*
X041497Y015120D01*
X041522Y015145D01*
X041572Y015145D01*
X041597Y015120D01*
X041597Y015095D01*
X041572Y015070D01*
X041644Y015020D02*
X041644Y015120D01*
X041669Y015145D01*
X041744Y015145D01*
X041744Y014995D01*
X041669Y014995D01*
X041644Y015020D01*
X041791Y015020D02*
X041791Y015120D01*
X041816Y015145D01*
X041892Y015145D01*
X041892Y014995D01*
X041816Y014995D01*
X041791Y015020D01*
X041939Y015145D02*
X042039Y015145D01*
X042039Y014995D01*
X042086Y014995D02*
X042186Y014995D01*
X042186Y015145D01*
X042233Y015145D02*
X042334Y015145D01*
X042334Y014995D01*
X042233Y014995D01*
X042283Y015070D02*
X042334Y015070D01*
X042381Y014995D02*
X042381Y015145D01*
X042481Y015145D02*
X042381Y014995D01*
X042481Y014995D02*
X042481Y015145D01*
X042528Y015145D02*
X042528Y014995D01*
X042628Y015145D01*
X042628Y014995D01*
X042675Y014995D02*
X042675Y015095D01*
X042725Y015145D01*
X042776Y015095D01*
X042776Y014995D01*
X042823Y014995D02*
X042823Y015145D01*
X042823Y015070D02*
X042923Y015070D01*
X042970Y015020D02*
X042995Y014995D01*
X043045Y014995D01*
X043070Y015020D01*
X043070Y015120D01*
X043045Y015145D01*
X042995Y015145D01*
X042970Y015120D01*
X042923Y015145D02*
X042923Y014995D01*
X042776Y015070D02*
X042675Y015070D01*
X043117Y014995D02*
X043117Y015145D01*
X043217Y015145D02*
X043117Y014995D01*
X043217Y014995D02*
X043217Y015145D01*
X043265Y015070D02*
X043365Y015070D01*
X043412Y015145D02*
X043512Y015145D01*
X043559Y015145D02*
X043659Y015145D01*
X043659Y014995D01*
X043559Y014995D01*
X043609Y015070D02*
X043659Y015070D01*
X043707Y015145D02*
X043807Y015145D01*
X043807Y014995D01*
X043854Y015020D02*
X043879Y014995D01*
X043929Y014995D01*
X043954Y015020D01*
X044001Y015020D02*
X044001Y015120D01*
X044026Y015145D01*
X044076Y015145D01*
X044101Y015120D01*
X044101Y015020D01*
X044076Y014995D01*
X044026Y014995D01*
X044001Y015020D01*
X043929Y015070D02*
X043879Y015070D01*
X043854Y015045D01*
X043854Y015020D01*
X043807Y015070D02*
X043757Y015070D01*
X043854Y015120D02*
X043879Y015145D01*
X043929Y015145D01*
X043954Y015120D01*
X043954Y015095D01*
X043929Y015070D01*
X044149Y015145D02*
X044149Y014995D01*
X044249Y014995D02*
X044249Y015145D01*
X044199Y015095D01*
X044149Y015145D01*
X043462Y015145D02*
X043462Y014995D01*
X042039Y015070D02*
X041989Y015070D01*
X041450Y015070D02*
X041400Y015095D01*
X041375Y015095D01*
X041350Y015070D01*
X041350Y015145D02*
X041450Y015145D01*
X041450Y015070D01*
X031080Y021600D02*
X031082Y021639D01*
X031088Y021677D01*
X031097Y021715D01*
X031111Y021751D01*
X031127Y021787D01*
X031148Y021820D01*
X031171Y021851D01*
X031198Y021879D01*
X031227Y021905D01*
X031258Y021928D01*
X031292Y021947D01*
X031328Y021963D01*
X031364Y021975D01*
X031402Y021984D01*
X031441Y021989D01*
X031480Y021990D01*
X031518Y021987D01*
X031557Y021980D01*
X031594Y021970D01*
X031630Y021955D01*
X031665Y021938D01*
X031698Y021917D01*
X031728Y021892D01*
X031756Y021865D01*
X031781Y021835D01*
X031803Y021803D01*
X031821Y021769D01*
X031836Y021733D01*
X031848Y021696D01*
X031856Y021658D01*
X031860Y021619D01*
X031860Y021581D01*
X031856Y021542D01*
X031848Y021504D01*
X031836Y021467D01*
X031821Y021431D01*
X031803Y021397D01*
X031781Y021365D01*
X031756Y021335D01*
X031728Y021308D01*
X031698Y021283D01*
X031665Y021262D01*
X031630Y021245D01*
X031594Y021230D01*
X031557Y021220D01*
X031518Y021213D01*
X031480Y021210D01*
X031441Y021211D01*
X031402Y021216D01*
X031364Y021225D01*
X031328Y021237D01*
X031292Y021253D01*
X031258Y021272D01*
X031227Y021295D01*
X031198Y021321D01*
X031171Y021349D01*
X031148Y021380D01*
X031127Y021413D01*
X031111Y021449D01*
X031097Y021485D01*
X031088Y021523D01*
X031082Y021561D01*
X031080Y021600D01*
X031070Y022000D02*
X031870Y021200D01*
X030965Y023810D02*
X030965Y023885D01*
X030940Y023910D01*
X030890Y023910D01*
X030865Y023885D01*
X030865Y023810D01*
X030815Y023810D02*
X030965Y023810D01*
X030865Y023860D02*
X030815Y023910D01*
X030890Y023958D02*
X030890Y024058D01*
X030815Y024033D02*
X030965Y024033D01*
X030890Y023958D01*
X031080Y024600D02*
X031082Y024639D01*
X031088Y024677D01*
X031097Y024715D01*
X031111Y024751D01*
X031127Y024787D01*
X031148Y024820D01*
X031171Y024851D01*
X031198Y024879D01*
X031227Y024905D01*
X031258Y024928D01*
X031292Y024947D01*
X031328Y024963D01*
X031364Y024975D01*
X031402Y024984D01*
X031441Y024989D01*
X031480Y024990D01*
X031518Y024987D01*
X031557Y024980D01*
X031594Y024970D01*
X031630Y024955D01*
X031665Y024938D01*
X031698Y024917D01*
X031728Y024892D01*
X031756Y024865D01*
X031781Y024835D01*
X031803Y024803D01*
X031821Y024769D01*
X031836Y024733D01*
X031848Y024696D01*
X031856Y024658D01*
X031860Y024619D01*
X031860Y024581D01*
X031856Y024542D01*
X031848Y024504D01*
X031836Y024467D01*
X031821Y024431D01*
X031803Y024397D01*
X031781Y024365D01*
X031756Y024335D01*
X031728Y024308D01*
X031698Y024283D01*
X031665Y024262D01*
X031630Y024245D01*
X031594Y024230D01*
X031557Y024220D01*
X031518Y024213D01*
X031480Y024210D01*
X031441Y024211D01*
X031402Y024216D01*
X031364Y024225D01*
X031328Y024237D01*
X031292Y024253D01*
X031258Y024272D01*
X031227Y024295D01*
X031198Y024321D01*
X031171Y024349D01*
X031148Y024380D01*
X031127Y024413D01*
X031111Y024449D01*
X031097Y024485D01*
X031088Y024523D01*
X031082Y024561D01*
X031080Y024600D01*
X031070Y025000D02*
X031870Y024200D01*
X031580Y027100D02*
X031582Y027139D01*
X031588Y027177D01*
X031597Y027215D01*
X031611Y027251D01*
X031627Y027287D01*
X031648Y027320D01*
X031671Y027351D01*
X031698Y027379D01*
X031727Y027405D01*
X031758Y027428D01*
X031792Y027447D01*
X031828Y027463D01*
X031864Y027475D01*
X031902Y027484D01*
X031941Y027489D01*
X031980Y027490D01*
X032018Y027487D01*
X032057Y027480D01*
X032094Y027470D01*
X032130Y027455D01*
X032165Y027438D01*
X032198Y027417D01*
X032228Y027392D01*
X032256Y027365D01*
X032281Y027335D01*
X032303Y027303D01*
X032321Y027269D01*
X032336Y027233D01*
X032348Y027196D01*
X032356Y027158D01*
X032360Y027119D01*
X032360Y027081D01*
X032356Y027042D01*
X032348Y027004D01*
X032336Y026967D01*
X032321Y026931D01*
X032303Y026897D01*
X032281Y026865D01*
X032256Y026835D01*
X032228Y026808D01*
X032198Y026783D01*
X032165Y026762D01*
X032130Y026745D01*
X032094Y026730D01*
X032057Y026720D01*
X032018Y026713D01*
X031980Y026710D01*
X031941Y026711D01*
X031902Y026716D01*
X031864Y026725D01*
X031828Y026737D01*
X031792Y026753D01*
X031758Y026772D01*
X031727Y026795D01*
X031698Y026821D01*
X031671Y026849D01*
X031648Y026880D01*
X031627Y026913D01*
X031611Y026949D01*
X031597Y026985D01*
X031588Y027023D01*
X031582Y027061D01*
X031580Y027100D01*
X031570Y027500D02*
X032370Y026700D01*
X032580Y027100D02*
X032582Y027139D01*
X032588Y027177D01*
X032597Y027215D01*
X032611Y027251D01*
X032627Y027287D01*
X032648Y027320D01*
X032671Y027351D01*
X032698Y027379D01*
X032727Y027405D01*
X032758Y027428D01*
X032792Y027447D01*
X032828Y027463D01*
X032864Y027475D01*
X032902Y027484D01*
X032941Y027489D01*
X032980Y027490D01*
X033018Y027487D01*
X033057Y027480D01*
X033094Y027470D01*
X033130Y027455D01*
X033165Y027438D01*
X033198Y027417D01*
X033228Y027392D01*
X033256Y027365D01*
X033281Y027335D01*
X033303Y027303D01*
X033321Y027269D01*
X033336Y027233D01*
X033348Y027196D01*
X033356Y027158D01*
X033360Y027119D01*
X033360Y027081D01*
X033356Y027042D01*
X033348Y027004D01*
X033336Y026967D01*
X033321Y026931D01*
X033303Y026897D01*
X033281Y026865D01*
X033256Y026835D01*
X033228Y026808D01*
X033198Y026783D01*
X033165Y026762D01*
X033130Y026745D01*
X033094Y026730D01*
X033057Y026720D01*
X033018Y026713D01*
X032980Y026710D01*
X032941Y026711D01*
X032902Y026716D01*
X032864Y026725D01*
X032828Y026737D01*
X032792Y026753D01*
X032758Y026772D01*
X032727Y026795D01*
X032698Y026821D01*
X032671Y026849D01*
X032648Y026880D01*
X032627Y026913D01*
X032611Y026949D01*
X032597Y026985D01*
X032588Y027023D01*
X032582Y027061D01*
X032580Y027100D01*
X032570Y027500D02*
X033370Y026700D01*
X033580Y027100D02*
X033582Y027139D01*
X033588Y027177D01*
X033597Y027215D01*
X033611Y027251D01*
X033627Y027287D01*
X033648Y027320D01*
X033671Y027351D01*
X033698Y027379D01*
X033727Y027405D01*
X033758Y027428D01*
X033792Y027447D01*
X033828Y027463D01*
X033864Y027475D01*
X033902Y027484D01*
X033941Y027489D01*
X033980Y027490D01*
X034018Y027487D01*
X034057Y027480D01*
X034094Y027470D01*
X034130Y027455D01*
X034165Y027438D01*
X034198Y027417D01*
X034228Y027392D01*
X034256Y027365D01*
X034281Y027335D01*
X034303Y027303D01*
X034321Y027269D01*
X034336Y027233D01*
X034348Y027196D01*
X034356Y027158D01*
X034360Y027119D01*
X034360Y027081D01*
X034356Y027042D01*
X034348Y027004D01*
X034336Y026967D01*
X034321Y026931D01*
X034303Y026897D01*
X034281Y026865D01*
X034256Y026835D01*
X034228Y026808D01*
X034198Y026783D01*
X034165Y026762D01*
X034130Y026745D01*
X034094Y026730D01*
X034057Y026720D01*
X034018Y026713D01*
X033980Y026710D01*
X033941Y026711D01*
X033902Y026716D01*
X033864Y026725D01*
X033828Y026737D01*
X033792Y026753D01*
X033758Y026772D01*
X033727Y026795D01*
X033698Y026821D01*
X033671Y026849D01*
X033648Y026880D01*
X033627Y026913D01*
X033611Y026949D01*
X033597Y026985D01*
X033588Y027023D01*
X033582Y027061D01*
X033580Y027100D01*
X033570Y027500D02*
X034370Y026700D01*
X034580Y027100D02*
X034582Y027139D01*
X034588Y027177D01*
X034597Y027215D01*
X034611Y027251D01*
X034627Y027287D01*
X034648Y027320D01*
X034671Y027351D01*
X034698Y027379D01*
X034727Y027405D01*
X034758Y027428D01*
X034792Y027447D01*
X034828Y027463D01*
X034864Y027475D01*
X034902Y027484D01*
X034941Y027489D01*
X034980Y027490D01*
X035018Y027487D01*
X035057Y027480D01*
X035094Y027470D01*
X035130Y027455D01*
X035165Y027438D01*
X035198Y027417D01*
X035228Y027392D01*
X035256Y027365D01*
X035281Y027335D01*
X035303Y027303D01*
X035321Y027269D01*
X035336Y027233D01*
X035348Y027196D01*
X035356Y027158D01*
X035360Y027119D01*
X035360Y027081D01*
X035356Y027042D01*
X035348Y027004D01*
X035336Y026967D01*
X035321Y026931D01*
X035303Y026897D01*
X035281Y026865D01*
X035256Y026835D01*
X035228Y026808D01*
X035198Y026783D01*
X035165Y026762D01*
X035130Y026745D01*
X035094Y026730D01*
X035057Y026720D01*
X035018Y026713D01*
X034980Y026710D01*
X034941Y026711D01*
X034902Y026716D01*
X034864Y026725D01*
X034828Y026737D01*
X034792Y026753D01*
X034758Y026772D01*
X034727Y026795D01*
X034698Y026821D01*
X034671Y026849D01*
X034648Y026880D01*
X034627Y026913D01*
X034611Y026949D01*
X034597Y026985D01*
X034588Y027023D01*
X034582Y027061D01*
X034580Y027100D01*
X034570Y027500D02*
X035370Y026700D01*
X030580Y027100D02*
X030582Y027139D01*
X030588Y027177D01*
X030597Y027215D01*
X030611Y027251D01*
X030627Y027287D01*
X030648Y027320D01*
X030671Y027351D01*
X030698Y027379D01*
X030727Y027405D01*
X030758Y027428D01*
X030792Y027447D01*
X030828Y027463D01*
X030864Y027475D01*
X030902Y027484D01*
X030941Y027489D01*
X030980Y027490D01*
X031018Y027487D01*
X031057Y027480D01*
X031094Y027470D01*
X031130Y027455D01*
X031165Y027438D01*
X031198Y027417D01*
X031228Y027392D01*
X031256Y027365D01*
X031281Y027335D01*
X031303Y027303D01*
X031321Y027269D01*
X031336Y027233D01*
X031348Y027196D01*
X031356Y027158D01*
X031360Y027119D01*
X031360Y027081D01*
X031356Y027042D01*
X031348Y027004D01*
X031336Y026967D01*
X031321Y026931D01*
X031303Y026897D01*
X031281Y026865D01*
X031256Y026835D01*
X031228Y026808D01*
X031198Y026783D01*
X031165Y026762D01*
X031130Y026745D01*
X031094Y026730D01*
X031057Y026720D01*
X031018Y026713D01*
X030980Y026710D01*
X030941Y026711D01*
X030902Y026716D01*
X030864Y026725D01*
X030828Y026737D01*
X030792Y026753D01*
X030758Y026772D01*
X030727Y026795D01*
X030698Y026821D01*
X030671Y026849D01*
X030648Y026880D01*
X030627Y026913D01*
X030611Y026949D01*
X030597Y026985D01*
X030588Y027023D01*
X030582Y027061D01*
X030580Y027100D01*
X030570Y027500D02*
X031370Y026700D01*
X029580Y027100D02*
X029582Y027139D01*
X029588Y027177D01*
X029597Y027215D01*
X029611Y027251D01*
X029627Y027287D01*
X029648Y027320D01*
X029671Y027351D01*
X029698Y027379D01*
X029727Y027405D01*
X029758Y027428D01*
X029792Y027447D01*
X029828Y027463D01*
X029864Y027475D01*
X029902Y027484D01*
X029941Y027489D01*
X029980Y027490D01*
X030018Y027487D01*
X030057Y027480D01*
X030094Y027470D01*
X030130Y027455D01*
X030165Y027438D01*
X030198Y027417D01*
X030228Y027392D01*
X030256Y027365D01*
X030281Y027335D01*
X030303Y027303D01*
X030321Y027269D01*
X030336Y027233D01*
X030348Y027196D01*
X030356Y027158D01*
X030360Y027119D01*
X030360Y027081D01*
X030356Y027042D01*
X030348Y027004D01*
X030336Y026967D01*
X030321Y026931D01*
X030303Y026897D01*
X030281Y026865D01*
X030256Y026835D01*
X030228Y026808D01*
X030198Y026783D01*
X030165Y026762D01*
X030130Y026745D01*
X030094Y026730D01*
X030057Y026720D01*
X030018Y026713D01*
X029980Y026710D01*
X029941Y026711D01*
X029902Y026716D01*
X029864Y026725D01*
X029828Y026737D01*
X029792Y026753D01*
X029758Y026772D01*
X029727Y026795D01*
X029698Y026821D01*
X029671Y026849D01*
X029648Y026880D01*
X029627Y026913D01*
X029611Y026949D01*
X029597Y026985D01*
X029588Y027023D01*
X029582Y027061D01*
X029580Y027100D01*
X029570Y027500D02*
X030370Y026700D01*
X028580Y027100D02*
X028582Y027139D01*
X028588Y027177D01*
X028597Y027215D01*
X028611Y027251D01*
X028627Y027287D01*
X028648Y027320D01*
X028671Y027351D01*
X028698Y027379D01*
X028727Y027405D01*
X028758Y027428D01*
X028792Y027447D01*
X028828Y027463D01*
X028864Y027475D01*
X028902Y027484D01*
X028941Y027489D01*
X028980Y027490D01*
X029018Y027487D01*
X029057Y027480D01*
X029094Y027470D01*
X029130Y027455D01*
X029165Y027438D01*
X029198Y027417D01*
X029228Y027392D01*
X029256Y027365D01*
X029281Y027335D01*
X029303Y027303D01*
X029321Y027269D01*
X029336Y027233D01*
X029348Y027196D01*
X029356Y027158D01*
X029360Y027119D01*
X029360Y027081D01*
X029356Y027042D01*
X029348Y027004D01*
X029336Y026967D01*
X029321Y026931D01*
X029303Y026897D01*
X029281Y026865D01*
X029256Y026835D01*
X029228Y026808D01*
X029198Y026783D01*
X029165Y026762D01*
X029130Y026745D01*
X029094Y026730D01*
X029057Y026720D01*
X029018Y026713D01*
X028980Y026710D01*
X028941Y026711D01*
X028902Y026716D01*
X028864Y026725D01*
X028828Y026737D01*
X028792Y026753D01*
X028758Y026772D01*
X028727Y026795D01*
X028698Y026821D01*
X028671Y026849D01*
X028648Y026880D01*
X028627Y026913D01*
X028611Y026949D01*
X028597Y026985D01*
X028588Y027023D01*
X028582Y027061D01*
X028580Y027100D01*
X028570Y027500D02*
X029370Y026700D01*
X027580Y027100D02*
X027582Y027139D01*
X027588Y027177D01*
X027597Y027215D01*
X027611Y027251D01*
X027627Y027287D01*
X027648Y027320D01*
X027671Y027351D01*
X027698Y027379D01*
X027727Y027405D01*
X027758Y027428D01*
X027792Y027447D01*
X027828Y027463D01*
X027864Y027475D01*
X027902Y027484D01*
X027941Y027489D01*
X027980Y027490D01*
X028018Y027487D01*
X028057Y027480D01*
X028094Y027470D01*
X028130Y027455D01*
X028165Y027438D01*
X028198Y027417D01*
X028228Y027392D01*
X028256Y027365D01*
X028281Y027335D01*
X028303Y027303D01*
X028321Y027269D01*
X028336Y027233D01*
X028348Y027196D01*
X028356Y027158D01*
X028360Y027119D01*
X028360Y027081D01*
X028356Y027042D01*
X028348Y027004D01*
X028336Y026967D01*
X028321Y026931D01*
X028303Y026897D01*
X028281Y026865D01*
X028256Y026835D01*
X028228Y026808D01*
X028198Y026783D01*
X028165Y026762D01*
X028130Y026745D01*
X028094Y026730D01*
X028057Y026720D01*
X028018Y026713D01*
X027980Y026710D01*
X027941Y026711D01*
X027902Y026716D01*
X027864Y026725D01*
X027828Y026737D01*
X027792Y026753D01*
X027758Y026772D01*
X027727Y026795D01*
X027698Y026821D01*
X027671Y026849D01*
X027648Y026880D01*
X027627Y026913D01*
X027611Y026949D01*
X027597Y026985D01*
X027588Y027023D01*
X027582Y027061D01*
X027580Y027100D01*
X027570Y027500D02*
X028370Y026700D01*
X026580Y027100D02*
X026582Y027139D01*
X026588Y027177D01*
X026597Y027215D01*
X026611Y027251D01*
X026627Y027287D01*
X026648Y027320D01*
X026671Y027351D01*
X026698Y027379D01*
X026727Y027405D01*
X026758Y027428D01*
X026792Y027447D01*
X026828Y027463D01*
X026864Y027475D01*
X026902Y027484D01*
X026941Y027489D01*
X026980Y027490D01*
X027018Y027487D01*
X027057Y027480D01*
X027094Y027470D01*
X027130Y027455D01*
X027165Y027438D01*
X027198Y027417D01*
X027228Y027392D01*
X027256Y027365D01*
X027281Y027335D01*
X027303Y027303D01*
X027321Y027269D01*
X027336Y027233D01*
X027348Y027196D01*
X027356Y027158D01*
X027360Y027119D01*
X027360Y027081D01*
X027356Y027042D01*
X027348Y027004D01*
X027336Y026967D01*
X027321Y026931D01*
X027303Y026897D01*
X027281Y026865D01*
X027256Y026835D01*
X027228Y026808D01*
X027198Y026783D01*
X027165Y026762D01*
X027130Y026745D01*
X027094Y026730D01*
X027057Y026720D01*
X027018Y026713D01*
X026980Y026710D01*
X026941Y026711D01*
X026902Y026716D01*
X026864Y026725D01*
X026828Y026737D01*
X026792Y026753D01*
X026758Y026772D01*
X026727Y026795D01*
X026698Y026821D01*
X026671Y026849D01*
X026648Y026880D01*
X026627Y026913D01*
X026611Y026949D01*
X026597Y026985D01*
X026588Y027023D01*
X026582Y027061D01*
X026580Y027100D01*
X026570Y027500D02*
X027370Y026700D01*
X025580Y027100D02*
X025582Y027139D01*
X025588Y027177D01*
X025597Y027215D01*
X025611Y027251D01*
X025627Y027287D01*
X025648Y027320D01*
X025671Y027351D01*
X025698Y027379D01*
X025727Y027405D01*
X025758Y027428D01*
X025792Y027447D01*
X025828Y027463D01*
X025864Y027475D01*
X025902Y027484D01*
X025941Y027489D01*
X025980Y027490D01*
X026018Y027487D01*
X026057Y027480D01*
X026094Y027470D01*
X026130Y027455D01*
X026165Y027438D01*
X026198Y027417D01*
X026228Y027392D01*
X026256Y027365D01*
X026281Y027335D01*
X026303Y027303D01*
X026321Y027269D01*
X026336Y027233D01*
X026348Y027196D01*
X026356Y027158D01*
X026360Y027119D01*
X026360Y027081D01*
X026356Y027042D01*
X026348Y027004D01*
X026336Y026967D01*
X026321Y026931D01*
X026303Y026897D01*
X026281Y026865D01*
X026256Y026835D01*
X026228Y026808D01*
X026198Y026783D01*
X026165Y026762D01*
X026130Y026745D01*
X026094Y026730D01*
X026057Y026720D01*
X026018Y026713D01*
X025980Y026710D01*
X025941Y026711D01*
X025902Y026716D01*
X025864Y026725D01*
X025828Y026737D01*
X025792Y026753D01*
X025758Y026772D01*
X025727Y026795D01*
X025698Y026821D01*
X025671Y026849D01*
X025648Y026880D01*
X025627Y026913D01*
X025611Y026949D01*
X025597Y026985D01*
X025588Y027023D01*
X025582Y027061D01*
X025580Y027100D01*
X025570Y027500D02*
X026370Y026700D01*
X024580Y027100D02*
X024582Y027139D01*
X024588Y027177D01*
X024597Y027215D01*
X024611Y027251D01*
X024627Y027287D01*
X024648Y027320D01*
X024671Y027351D01*
X024698Y027379D01*
X024727Y027405D01*
X024758Y027428D01*
X024792Y027447D01*
X024828Y027463D01*
X024864Y027475D01*
X024902Y027484D01*
X024941Y027489D01*
X024980Y027490D01*
X025018Y027487D01*
X025057Y027480D01*
X025094Y027470D01*
X025130Y027455D01*
X025165Y027438D01*
X025198Y027417D01*
X025228Y027392D01*
X025256Y027365D01*
X025281Y027335D01*
X025303Y027303D01*
X025321Y027269D01*
X025336Y027233D01*
X025348Y027196D01*
X025356Y027158D01*
X025360Y027119D01*
X025360Y027081D01*
X025356Y027042D01*
X025348Y027004D01*
X025336Y026967D01*
X025321Y026931D01*
X025303Y026897D01*
X025281Y026865D01*
X025256Y026835D01*
X025228Y026808D01*
X025198Y026783D01*
X025165Y026762D01*
X025130Y026745D01*
X025094Y026730D01*
X025057Y026720D01*
X025018Y026713D01*
X024980Y026710D01*
X024941Y026711D01*
X024902Y026716D01*
X024864Y026725D01*
X024828Y026737D01*
X024792Y026753D01*
X024758Y026772D01*
X024727Y026795D01*
X024698Y026821D01*
X024671Y026849D01*
X024648Y026880D01*
X024627Y026913D01*
X024611Y026949D01*
X024597Y026985D01*
X024588Y027023D01*
X024582Y027061D01*
X024580Y027100D01*
X024570Y027500D02*
X025370Y026700D01*
X023580Y027100D02*
X023582Y027139D01*
X023588Y027177D01*
X023597Y027215D01*
X023611Y027251D01*
X023627Y027287D01*
X023648Y027320D01*
X023671Y027351D01*
X023698Y027379D01*
X023727Y027405D01*
X023758Y027428D01*
X023792Y027447D01*
X023828Y027463D01*
X023864Y027475D01*
X023902Y027484D01*
X023941Y027489D01*
X023980Y027490D01*
X024018Y027487D01*
X024057Y027480D01*
X024094Y027470D01*
X024130Y027455D01*
X024165Y027438D01*
X024198Y027417D01*
X024228Y027392D01*
X024256Y027365D01*
X024281Y027335D01*
X024303Y027303D01*
X024321Y027269D01*
X024336Y027233D01*
X024348Y027196D01*
X024356Y027158D01*
X024360Y027119D01*
X024360Y027081D01*
X024356Y027042D01*
X024348Y027004D01*
X024336Y026967D01*
X024321Y026931D01*
X024303Y026897D01*
X024281Y026865D01*
X024256Y026835D01*
X024228Y026808D01*
X024198Y026783D01*
X024165Y026762D01*
X024130Y026745D01*
X024094Y026730D01*
X024057Y026720D01*
X024018Y026713D01*
X023980Y026710D01*
X023941Y026711D01*
X023902Y026716D01*
X023864Y026725D01*
X023828Y026737D01*
X023792Y026753D01*
X023758Y026772D01*
X023727Y026795D01*
X023698Y026821D01*
X023671Y026849D01*
X023648Y026880D01*
X023627Y026913D01*
X023611Y026949D01*
X023597Y026985D01*
X023588Y027023D01*
X023582Y027061D01*
X023580Y027100D01*
X023570Y027500D02*
X024370Y026700D01*
X022580Y027100D02*
X022582Y027139D01*
X022588Y027177D01*
X022597Y027215D01*
X022611Y027251D01*
X022627Y027287D01*
X022648Y027320D01*
X022671Y027351D01*
X022698Y027379D01*
X022727Y027405D01*
X022758Y027428D01*
X022792Y027447D01*
X022828Y027463D01*
X022864Y027475D01*
X022902Y027484D01*
X022941Y027489D01*
X022980Y027490D01*
X023018Y027487D01*
X023057Y027480D01*
X023094Y027470D01*
X023130Y027455D01*
X023165Y027438D01*
X023198Y027417D01*
X023228Y027392D01*
X023256Y027365D01*
X023281Y027335D01*
X023303Y027303D01*
X023321Y027269D01*
X023336Y027233D01*
X023348Y027196D01*
X023356Y027158D01*
X023360Y027119D01*
X023360Y027081D01*
X023356Y027042D01*
X023348Y027004D01*
X023336Y026967D01*
X023321Y026931D01*
X023303Y026897D01*
X023281Y026865D01*
X023256Y026835D01*
X023228Y026808D01*
X023198Y026783D01*
X023165Y026762D01*
X023130Y026745D01*
X023094Y026730D01*
X023057Y026720D01*
X023018Y026713D01*
X022980Y026710D01*
X022941Y026711D01*
X022902Y026716D01*
X022864Y026725D01*
X022828Y026737D01*
X022792Y026753D01*
X022758Y026772D01*
X022727Y026795D01*
X022698Y026821D01*
X022671Y026849D01*
X022648Y026880D01*
X022627Y026913D01*
X022611Y026949D01*
X022597Y026985D01*
X022588Y027023D01*
X022582Y027061D01*
X022580Y027100D01*
X022570Y027500D02*
X023370Y026700D01*
X021580Y027100D02*
X021582Y027139D01*
X021588Y027177D01*
X021597Y027215D01*
X021611Y027251D01*
X021627Y027287D01*
X021648Y027320D01*
X021671Y027351D01*
X021698Y027379D01*
X021727Y027405D01*
X021758Y027428D01*
X021792Y027447D01*
X021828Y027463D01*
X021864Y027475D01*
X021902Y027484D01*
X021941Y027489D01*
X021980Y027490D01*
X022018Y027487D01*
X022057Y027480D01*
X022094Y027470D01*
X022130Y027455D01*
X022165Y027438D01*
X022198Y027417D01*
X022228Y027392D01*
X022256Y027365D01*
X022281Y027335D01*
X022303Y027303D01*
X022321Y027269D01*
X022336Y027233D01*
X022348Y027196D01*
X022356Y027158D01*
X022360Y027119D01*
X022360Y027081D01*
X022356Y027042D01*
X022348Y027004D01*
X022336Y026967D01*
X022321Y026931D01*
X022303Y026897D01*
X022281Y026865D01*
X022256Y026835D01*
X022228Y026808D01*
X022198Y026783D01*
X022165Y026762D01*
X022130Y026745D01*
X022094Y026730D01*
X022057Y026720D01*
X022018Y026713D01*
X021980Y026710D01*
X021941Y026711D01*
X021902Y026716D01*
X021864Y026725D01*
X021828Y026737D01*
X021792Y026753D01*
X021758Y026772D01*
X021727Y026795D01*
X021698Y026821D01*
X021671Y026849D01*
X021648Y026880D01*
X021627Y026913D01*
X021611Y026949D01*
X021597Y026985D01*
X021588Y027023D01*
X021582Y027061D01*
X021580Y027100D01*
X021570Y027500D02*
X022370Y026700D01*
X020580Y027100D02*
X020582Y027139D01*
X020588Y027177D01*
X020597Y027215D01*
X020611Y027251D01*
X020627Y027287D01*
X020648Y027320D01*
X020671Y027351D01*
X020698Y027379D01*
X020727Y027405D01*
X020758Y027428D01*
X020792Y027447D01*
X020828Y027463D01*
X020864Y027475D01*
X020902Y027484D01*
X020941Y027489D01*
X020980Y027490D01*
X021018Y027487D01*
X021057Y027480D01*
X021094Y027470D01*
X021130Y027455D01*
X021165Y027438D01*
X021198Y027417D01*
X021228Y027392D01*
X021256Y027365D01*
X021281Y027335D01*
X021303Y027303D01*
X021321Y027269D01*
X021336Y027233D01*
X021348Y027196D01*
X021356Y027158D01*
X021360Y027119D01*
X021360Y027081D01*
X021356Y027042D01*
X021348Y027004D01*
X021336Y026967D01*
X021321Y026931D01*
X021303Y026897D01*
X021281Y026865D01*
X021256Y026835D01*
X021228Y026808D01*
X021198Y026783D01*
X021165Y026762D01*
X021130Y026745D01*
X021094Y026730D01*
X021057Y026720D01*
X021018Y026713D01*
X020980Y026710D01*
X020941Y026711D01*
X020902Y026716D01*
X020864Y026725D01*
X020828Y026737D01*
X020792Y026753D01*
X020758Y026772D01*
X020727Y026795D01*
X020698Y026821D01*
X020671Y026849D01*
X020648Y026880D01*
X020627Y026913D01*
X020611Y026949D01*
X020597Y026985D01*
X020588Y027023D01*
X020582Y027061D01*
X020580Y027100D01*
X020570Y027500D02*
X021370Y026700D01*
X019580Y027100D02*
X019582Y027139D01*
X019588Y027177D01*
X019597Y027215D01*
X019611Y027251D01*
X019627Y027287D01*
X019648Y027320D01*
X019671Y027351D01*
X019698Y027379D01*
X019727Y027405D01*
X019758Y027428D01*
X019792Y027447D01*
X019828Y027463D01*
X019864Y027475D01*
X019902Y027484D01*
X019941Y027489D01*
X019980Y027490D01*
X020018Y027487D01*
X020057Y027480D01*
X020094Y027470D01*
X020130Y027455D01*
X020165Y027438D01*
X020198Y027417D01*
X020228Y027392D01*
X020256Y027365D01*
X020281Y027335D01*
X020303Y027303D01*
X020321Y027269D01*
X020336Y027233D01*
X020348Y027196D01*
X020356Y027158D01*
X020360Y027119D01*
X020360Y027081D01*
X020356Y027042D01*
X020348Y027004D01*
X020336Y026967D01*
X020321Y026931D01*
X020303Y026897D01*
X020281Y026865D01*
X020256Y026835D01*
X020228Y026808D01*
X020198Y026783D01*
X020165Y026762D01*
X020130Y026745D01*
X020094Y026730D01*
X020057Y026720D01*
X020018Y026713D01*
X019980Y026710D01*
X019941Y026711D01*
X019902Y026716D01*
X019864Y026725D01*
X019828Y026737D01*
X019792Y026753D01*
X019758Y026772D01*
X019727Y026795D01*
X019698Y026821D01*
X019671Y026849D01*
X019648Y026880D01*
X019627Y026913D01*
X019611Y026949D01*
X019597Y026985D01*
X019588Y027023D01*
X019582Y027061D01*
X019580Y027100D01*
X019570Y027500D02*
X020370Y026700D01*
X018580Y027100D02*
X018582Y027139D01*
X018588Y027177D01*
X018597Y027215D01*
X018611Y027251D01*
X018627Y027287D01*
X018648Y027320D01*
X018671Y027351D01*
X018698Y027379D01*
X018727Y027405D01*
X018758Y027428D01*
X018792Y027447D01*
X018828Y027463D01*
X018864Y027475D01*
X018902Y027484D01*
X018941Y027489D01*
X018980Y027490D01*
X019018Y027487D01*
X019057Y027480D01*
X019094Y027470D01*
X019130Y027455D01*
X019165Y027438D01*
X019198Y027417D01*
X019228Y027392D01*
X019256Y027365D01*
X019281Y027335D01*
X019303Y027303D01*
X019321Y027269D01*
X019336Y027233D01*
X019348Y027196D01*
X019356Y027158D01*
X019360Y027119D01*
X019360Y027081D01*
X019356Y027042D01*
X019348Y027004D01*
X019336Y026967D01*
X019321Y026931D01*
X019303Y026897D01*
X019281Y026865D01*
X019256Y026835D01*
X019228Y026808D01*
X019198Y026783D01*
X019165Y026762D01*
X019130Y026745D01*
X019094Y026730D01*
X019057Y026720D01*
X019018Y026713D01*
X018980Y026710D01*
X018941Y026711D01*
X018902Y026716D01*
X018864Y026725D01*
X018828Y026737D01*
X018792Y026753D01*
X018758Y026772D01*
X018727Y026795D01*
X018698Y026821D01*
X018671Y026849D01*
X018648Y026880D01*
X018627Y026913D01*
X018611Y026949D01*
X018597Y026985D01*
X018588Y027023D01*
X018582Y027061D01*
X018580Y027100D01*
X018570Y027500D02*
X019370Y026700D01*
X017580Y027100D02*
X017582Y027139D01*
X017588Y027177D01*
X017597Y027215D01*
X017611Y027251D01*
X017627Y027287D01*
X017648Y027320D01*
X017671Y027351D01*
X017698Y027379D01*
X017727Y027405D01*
X017758Y027428D01*
X017792Y027447D01*
X017828Y027463D01*
X017864Y027475D01*
X017902Y027484D01*
X017941Y027489D01*
X017980Y027490D01*
X018018Y027487D01*
X018057Y027480D01*
X018094Y027470D01*
X018130Y027455D01*
X018165Y027438D01*
X018198Y027417D01*
X018228Y027392D01*
X018256Y027365D01*
X018281Y027335D01*
X018303Y027303D01*
X018321Y027269D01*
X018336Y027233D01*
X018348Y027196D01*
X018356Y027158D01*
X018360Y027119D01*
X018360Y027081D01*
X018356Y027042D01*
X018348Y027004D01*
X018336Y026967D01*
X018321Y026931D01*
X018303Y026897D01*
X018281Y026865D01*
X018256Y026835D01*
X018228Y026808D01*
X018198Y026783D01*
X018165Y026762D01*
X018130Y026745D01*
X018094Y026730D01*
X018057Y026720D01*
X018018Y026713D01*
X017980Y026710D01*
X017941Y026711D01*
X017902Y026716D01*
X017864Y026725D01*
X017828Y026737D01*
X017792Y026753D01*
X017758Y026772D01*
X017727Y026795D01*
X017698Y026821D01*
X017671Y026849D01*
X017648Y026880D01*
X017627Y026913D01*
X017611Y026949D01*
X017597Y026985D01*
X017588Y027023D01*
X017582Y027061D01*
X017580Y027100D01*
X017570Y027500D02*
X018370Y026700D01*
X016580Y027100D02*
X016582Y027139D01*
X016588Y027177D01*
X016597Y027215D01*
X016611Y027251D01*
X016627Y027287D01*
X016648Y027320D01*
X016671Y027351D01*
X016698Y027379D01*
X016727Y027405D01*
X016758Y027428D01*
X016792Y027447D01*
X016828Y027463D01*
X016864Y027475D01*
X016902Y027484D01*
X016941Y027489D01*
X016980Y027490D01*
X017018Y027487D01*
X017057Y027480D01*
X017094Y027470D01*
X017130Y027455D01*
X017165Y027438D01*
X017198Y027417D01*
X017228Y027392D01*
X017256Y027365D01*
X017281Y027335D01*
X017303Y027303D01*
X017321Y027269D01*
X017336Y027233D01*
X017348Y027196D01*
X017356Y027158D01*
X017360Y027119D01*
X017360Y027081D01*
X017356Y027042D01*
X017348Y027004D01*
X017336Y026967D01*
X017321Y026931D01*
X017303Y026897D01*
X017281Y026865D01*
X017256Y026835D01*
X017228Y026808D01*
X017198Y026783D01*
X017165Y026762D01*
X017130Y026745D01*
X017094Y026730D01*
X017057Y026720D01*
X017018Y026713D01*
X016980Y026710D01*
X016941Y026711D01*
X016902Y026716D01*
X016864Y026725D01*
X016828Y026737D01*
X016792Y026753D01*
X016758Y026772D01*
X016727Y026795D01*
X016698Y026821D01*
X016671Y026849D01*
X016648Y026880D01*
X016627Y026913D01*
X016611Y026949D01*
X016597Y026985D01*
X016588Y027023D01*
X016582Y027061D01*
X016580Y027100D01*
X016570Y027500D02*
X017370Y026700D01*
X015580Y027100D02*
X015582Y027139D01*
X015588Y027177D01*
X015597Y027215D01*
X015611Y027251D01*
X015627Y027287D01*
X015648Y027320D01*
X015671Y027351D01*
X015698Y027379D01*
X015727Y027405D01*
X015758Y027428D01*
X015792Y027447D01*
X015828Y027463D01*
X015864Y027475D01*
X015902Y027484D01*
X015941Y027489D01*
X015980Y027490D01*
X016018Y027487D01*
X016057Y027480D01*
X016094Y027470D01*
X016130Y027455D01*
X016165Y027438D01*
X016198Y027417D01*
X016228Y027392D01*
X016256Y027365D01*
X016281Y027335D01*
X016303Y027303D01*
X016321Y027269D01*
X016336Y027233D01*
X016348Y027196D01*
X016356Y027158D01*
X016360Y027119D01*
X016360Y027081D01*
X016356Y027042D01*
X016348Y027004D01*
X016336Y026967D01*
X016321Y026931D01*
X016303Y026897D01*
X016281Y026865D01*
X016256Y026835D01*
X016228Y026808D01*
X016198Y026783D01*
X016165Y026762D01*
X016130Y026745D01*
X016094Y026730D01*
X016057Y026720D01*
X016018Y026713D01*
X015980Y026710D01*
X015941Y026711D01*
X015902Y026716D01*
X015864Y026725D01*
X015828Y026737D01*
X015792Y026753D01*
X015758Y026772D01*
X015727Y026795D01*
X015698Y026821D01*
X015671Y026849D01*
X015648Y026880D01*
X015627Y026913D01*
X015611Y026949D01*
X015597Y026985D01*
X015588Y027023D01*
X015582Y027061D01*
X015580Y027100D01*
X015570Y027500D02*
X016370Y026700D01*
X014580Y027100D02*
X014582Y027139D01*
X014588Y027177D01*
X014597Y027215D01*
X014611Y027251D01*
X014627Y027287D01*
X014648Y027320D01*
X014671Y027351D01*
X014698Y027379D01*
X014727Y027405D01*
X014758Y027428D01*
X014792Y027447D01*
X014828Y027463D01*
X014864Y027475D01*
X014902Y027484D01*
X014941Y027489D01*
X014980Y027490D01*
X015018Y027487D01*
X015057Y027480D01*
X015094Y027470D01*
X015130Y027455D01*
X015165Y027438D01*
X015198Y027417D01*
X015228Y027392D01*
X015256Y027365D01*
X015281Y027335D01*
X015303Y027303D01*
X015321Y027269D01*
X015336Y027233D01*
X015348Y027196D01*
X015356Y027158D01*
X015360Y027119D01*
X015360Y027081D01*
X015356Y027042D01*
X015348Y027004D01*
X015336Y026967D01*
X015321Y026931D01*
X015303Y026897D01*
X015281Y026865D01*
X015256Y026835D01*
X015228Y026808D01*
X015198Y026783D01*
X015165Y026762D01*
X015130Y026745D01*
X015094Y026730D01*
X015057Y026720D01*
X015018Y026713D01*
X014980Y026710D01*
X014941Y026711D01*
X014902Y026716D01*
X014864Y026725D01*
X014828Y026737D01*
X014792Y026753D01*
X014758Y026772D01*
X014727Y026795D01*
X014698Y026821D01*
X014671Y026849D01*
X014648Y026880D01*
X014627Y026913D01*
X014611Y026949D01*
X014597Y026985D01*
X014588Y027023D01*
X014582Y027061D01*
X014580Y027100D01*
X014570Y027500D02*
X015370Y026700D01*
X013580Y027100D02*
X013582Y027139D01*
X013588Y027177D01*
X013597Y027215D01*
X013611Y027251D01*
X013627Y027287D01*
X013648Y027320D01*
X013671Y027351D01*
X013698Y027379D01*
X013727Y027405D01*
X013758Y027428D01*
X013792Y027447D01*
X013828Y027463D01*
X013864Y027475D01*
X013902Y027484D01*
X013941Y027489D01*
X013980Y027490D01*
X014018Y027487D01*
X014057Y027480D01*
X014094Y027470D01*
X014130Y027455D01*
X014165Y027438D01*
X014198Y027417D01*
X014228Y027392D01*
X014256Y027365D01*
X014281Y027335D01*
X014303Y027303D01*
X014321Y027269D01*
X014336Y027233D01*
X014348Y027196D01*
X014356Y027158D01*
X014360Y027119D01*
X014360Y027081D01*
X014356Y027042D01*
X014348Y027004D01*
X014336Y026967D01*
X014321Y026931D01*
X014303Y026897D01*
X014281Y026865D01*
X014256Y026835D01*
X014228Y026808D01*
X014198Y026783D01*
X014165Y026762D01*
X014130Y026745D01*
X014094Y026730D01*
X014057Y026720D01*
X014018Y026713D01*
X013980Y026710D01*
X013941Y026711D01*
X013902Y026716D01*
X013864Y026725D01*
X013828Y026737D01*
X013792Y026753D01*
X013758Y026772D01*
X013727Y026795D01*
X013698Y026821D01*
X013671Y026849D01*
X013648Y026880D01*
X013627Y026913D01*
X013611Y026949D01*
X013597Y026985D01*
X013588Y027023D01*
X013582Y027061D01*
X013580Y027100D01*
X013570Y027500D02*
X014370Y026700D01*
X012580Y027100D02*
X012582Y027139D01*
X012588Y027177D01*
X012597Y027215D01*
X012611Y027251D01*
X012627Y027287D01*
X012648Y027320D01*
X012671Y027351D01*
X012698Y027379D01*
X012727Y027405D01*
X012758Y027428D01*
X012792Y027447D01*
X012828Y027463D01*
X012864Y027475D01*
X012902Y027484D01*
X012941Y027489D01*
X012980Y027490D01*
X013018Y027487D01*
X013057Y027480D01*
X013094Y027470D01*
X013130Y027455D01*
X013165Y027438D01*
X013198Y027417D01*
X013228Y027392D01*
X013256Y027365D01*
X013281Y027335D01*
X013303Y027303D01*
X013321Y027269D01*
X013336Y027233D01*
X013348Y027196D01*
X013356Y027158D01*
X013360Y027119D01*
X013360Y027081D01*
X013356Y027042D01*
X013348Y027004D01*
X013336Y026967D01*
X013321Y026931D01*
X013303Y026897D01*
X013281Y026865D01*
X013256Y026835D01*
X013228Y026808D01*
X013198Y026783D01*
X013165Y026762D01*
X013130Y026745D01*
X013094Y026730D01*
X013057Y026720D01*
X013018Y026713D01*
X012980Y026710D01*
X012941Y026711D01*
X012902Y026716D01*
X012864Y026725D01*
X012828Y026737D01*
X012792Y026753D01*
X012758Y026772D01*
X012727Y026795D01*
X012698Y026821D01*
X012671Y026849D01*
X012648Y026880D01*
X012627Y026913D01*
X012611Y026949D01*
X012597Y026985D01*
X012588Y027023D01*
X012582Y027061D01*
X012580Y027100D01*
X012570Y027500D02*
X013370Y026700D01*
X011580Y027100D02*
X011582Y027139D01*
X011588Y027177D01*
X011597Y027215D01*
X011611Y027251D01*
X011627Y027287D01*
X011648Y027320D01*
X011671Y027351D01*
X011698Y027379D01*
X011727Y027405D01*
X011758Y027428D01*
X011792Y027447D01*
X011828Y027463D01*
X011864Y027475D01*
X011902Y027484D01*
X011941Y027489D01*
X011980Y027490D01*
X012018Y027487D01*
X012057Y027480D01*
X012094Y027470D01*
X012130Y027455D01*
X012165Y027438D01*
X012198Y027417D01*
X012228Y027392D01*
X012256Y027365D01*
X012281Y027335D01*
X012303Y027303D01*
X012321Y027269D01*
X012336Y027233D01*
X012348Y027196D01*
X012356Y027158D01*
X012360Y027119D01*
X012360Y027081D01*
X012356Y027042D01*
X012348Y027004D01*
X012336Y026967D01*
X012321Y026931D01*
X012303Y026897D01*
X012281Y026865D01*
X012256Y026835D01*
X012228Y026808D01*
X012198Y026783D01*
X012165Y026762D01*
X012130Y026745D01*
X012094Y026730D01*
X012057Y026720D01*
X012018Y026713D01*
X011980Y026710D01*
X011941Y026711D01*
X011902Y026716D01*
X011864Y026725D01*
X011828Y026737D01*
X011792Y026753D01*
X011758Y026772D01*
X011727Y026795D01*
X011698Y026821D01*
X011671Y026849D01*
X011648Y026880D01*
X011627Y026913D01*
X011611Y026949D01*
X011597Y026985D01*
X011588Y027023D01*
X011582Y027061D01*
X011580Y027100D01*
X011570Y027500D02*
X012370Y026700D01*
X010580Y027100D02*
X010582Y027139D01*
X010588Y027177D01*
X010597Y027215D01*
X010611Y027251D01*
X010627Y027287D01*
X010648Y027320D01*
X010671Y027351D01*
X010698Y027379D01*
X010727Y027405D01*
X010758Y027428D01*
X010792Y027447D01*
X010828Y027463D01*
X010864Y027475D01*
X010902Y027484D01*
X010941Y027489D01*
X010980Y027490D01*
X011018Y027487D01*
X011057Y027480D01*
X011094Y027470D01*
X011130Y027455D01*
X011165Y027438D01*
X011198Y027417D01*
X011228Y027392D01*
X011256Y027365D01*
X011281Y027335D01*
X011303Y027303D01*
X011321Y027269D01*
X011336Y027233D01*
X011348Y027196D01*
X011356Y027158D01*
X011360Y027119D01*
X011360Y027081D01*
X011356Y027042D01*
X011348Y027004D01*
X011336Y026967D01*
X011321Y026931D01*
X011303Y026897D01*
X011281Y026865D01*
X011256Y026835D01*
X011228Y026808D01*
X011198Y026783D01*
X011165Y026762D01*
X011130Y026745D01*
X011094Y026730D01*
X011057Y026720D01*
X011018Y026713D01*
X010980Y026710D01*
X010941Y026711D01*
X010902Y026716D01*
X010864Y026725D01*
X010828Y026737D01*
X010792Y026753D01*
X010758Y026772D01*
X010727Y026795D01*
X010698Y026821D01*
X010671Y026849D01*
X010648Y026880D01*
X010627Y026913D01*
X010611Y026949D01*
X010597Y026985D01*
X010588Y027023D01*
X010582Y027061D01*
X010580Y027100D01*
X010570Y027500D02*
X011370Y026700D01*
X008080Y025100D02*
X008082Y025139D01*
X008088Y025177D01*
X008097Y025215D01*
X008111Y025251D01*
X008127Y025287D01*
X008148Y025320D01*
X008171Y025351D01*
X008198Y025379D01*
X008227Y025405D01*
X008258Y025428D01*
X008292Y025447D01*
X008328Y025463D01*
X008364Y025475D01*
X008402Y025484D01*
X008441Y025489D01*
X008480Y025490D01*
X008518Y025487D01*
X008557Y025480D01*
X008594Y025470D01*
X008630Y025455D01*
X008665Y025438D01*
X008698Y025417D01*
X008728Y025392D01*
X008756Y025365D01*
X008781Y025335D01*
X008803Y025303D01*
X008821Y025269D01*
X008836Y025233D01*
X008848Y025196D01*
X008856Y025158D01*
X008860Y025119D01*
X008860Y025081D01*
X008856Y025042D01*
X008848Y025004D01*
X008836Y024967D01*
X008821Y024931D01*
X008803Y024897D01*
X008781Y024865D01*
X008756Y024835D01*
X008728Y024808D01*
X008698Y024783D01*
X008665Y024762D01*
X008630Y024745D01*
X008594Y024730D01*
X008557Y024720D01*
X008518Y024713D01*
X008480Y024710D01*
X008441Y024711D01*
X008402Y024716D01*
X008364Y024725D01*
X008328Y024737D01*
X008292Y024753D01*
X008258Y024772D01*
X008227Y024795D01*
X008198Y024821D01*
X008171Y024849D01*
X008148Y024880D01*
X008127Y024913D01*
X008111Y024949D01*
X008097Y024985D01*
X008088Y025023D01*
X008082Y025061D01*
X008080Y025100D01*
X008070Y025500D02*
X008870Y024700D01*
X007965Y024533D02*
X007965Y024483D01*
X007940Y024458D01*
X007940Y024410D02*
X007890Y024410D01*
X007865Y024385D01*
X007865Y024310D01*
X007815Y024310D02*
X007965Y024310D01*
X007965Y024385D01*
X007940Y024410D01*
X007865Y024360D02*
X007815Y024410D01*
X007815Y024458D02*
X007915Y024558D01*
X007940Y024558D01*
X007965Y024533D01*
X007815Y024558D02*
X007815Y024458D01*
X005080Y025600D02*
X005082Y025639D01*
X005088Y025677D01*
X005097Y025715D01*
X005111Y025751D01*
X005127Y025787D01*
X005148Y025820D01*
X005171Y025851D01*
X005198Y025879D01*
X005227Y025905D01*
X005258Y025928D01*
X005292Y025947D01*
X005328Y025963D01*
X005364Y025975D01*
X005402Y025984D01*
X005441Y025989D01*
X005480Y025990D01*
X005518Y025987D01*
X005557Y025980D01*
X005594Y025970D01*
X005630Y025955D01*
X005665Y025938D01*
X005698Y025917D01*
X005728Y025892D01*
X005756Y025865D01*
X005781Y025835D01*
X005803Y025803D01*
X005821Y025769D01*
X005836Y025733D01*
X005848Y025696D01*
X005856Y025658D01*
X005860Y025619D01*
X005860Y025581D01*
X005856Y025542D01*
X005848Y025504D01*
X005836Y025467D01*
X005821Y025431D01*
X005803Y025397D01*
X005781Y025365D01*
X005756Y025335D01*
X005728Y025308D01*
X005698Y025283D01*
X005665Y025262D01*
X005630Y025245D01*
X005594Y025230D01*
X005557Y025220D01*
X005518Y025213D01*
X005480Y025210D01*
X005441Y025211D01*
X005402Y025216D01*
X005364Y025225D01*
X005328Y025237D01*
X005292Y025253D01*
X005258Y025272D01*
X005227Y025295D01*
X005198Y025321D01*
X005171Y025349D01*
X005148Y025380D01*
X005127Y025413D01*
X005111Y025449D01*
X005097Y025485D01*
X005088Y025523D01*
X005082Y025561D01*
X005080Y025600D01*
X005070Y026000D02*
X005870Y025200D01*
X005080Y026600D02*
X005082Y026639D01*
X005088Y026677D01*
X005097Y026715D01*
X005111Y026751D01*
X005127Y026787D01*
X005148Y026820D01*
X005171Y026851D01*
X005198Y026879D01*
X005227Y026905D01*
X005258Y026928D01*
X005292Y026947D01*
X005328Y026963D01*
X005364Y026975D01*
X005402Y026984D01*
X005441Y026989D01*
X005480Y026990D01*
X005518Y026987D01*
X005557Y026980D01*
X005594Y026970D01*
X005630Y026955D01*
X005665Y026938D01*
X005698Y026917D01*
X005728Y026892D01*
X005756Y026865D01*
X005781Y026835D01*
X005803Y026803D01*
X005821Y026769D01*
X005836Y026733D01*
X005848Y026696D01*
X005856Y026658D01*
X005860Y026619D01*
X005860Y026581D01*
X005856Y026542D01*
X005848Y026504D01*
X005836Y026467D01*
X005821Y026431D01*
X005803Y026397D01*
X005781Y026365D01*
X005756Y026335D01*
X005728Y026308D01*
X005698Y026283D01*
X005665Y026262D01*
X005630Y026245D01*
X005594Y026230D01*
X005557Y026220D01*
X005518Y026213D01*
X005480Y026210D01*
X005441Y026211D01*
X005402Y026216D01*
X005364Y026225D01*
X005328Y026237D01*
X005292Y026253D01*
X005258Y026272D01*
X005227Y026295D01*
X005198Y026321D01*
X005171Y026349D01*
X005148Y026380D01*
X005127Y026413D01*
X005111Y026449D01*
X005097Y026485D01*
X005088Y026523D01*
X005082Y026561D01*
X005080Y026600D01*
X005070Y027000D02*
X005870Y026200D01*
X005080Y028600D02*
X005082Y028639D01*
X005088Y028677D01*
X005097Y028715D01*
X005111Y028751D01*
X005127Y028787D01*
X005148Y028820D01*
X005171Y028851D01*
X005198Y028879D01*
X005227Y028905D01*
X005258Y028928D01*
X005292Y028947D01*
X005328Y028963D01*
X005364Y028975D01*
X005402Y028984D01*
X005441Y028989D01*
X005480Y028990D01*
X005518Y028987D01*
X005557Y028980D01*
X005594Y028970D01*
X005630Y028955D01*
X005665Y028938D01*
X005698Y028917D01*
X005728Y028892D01*
X005756Y028865D01*
X005781Y028835D01*
X005803Y028803D01*
X005821Y028769D01*
X005836Y028733D01*
X005848Y028696D01*
X005856Y028658D01*
X005860Y028619D01*
X005860Y028581D01*
X005856Y028542D01*
X005848Y028504D01*
X005836Y028467D01*
X005821Y028431D01*
X005803Y028397D01*
X005781Y028365D01*
X005756Y028335D01*
X005728Y028308D01*
X005698Y028283D01*
X005665Y028262D01*
X005630Y028245D01*
X005594Y028230D01*
X005557Y028220D01*
X005518Y028213D01*
X005480Y028210D01*
X005441Y028211D01*
X005402Y028216D01*
X005364Y028225D01*
X005328Y028237D01*
X005292Y028253D01*
X005258Y028272D01*
X005227Y028295D01*
X005198Y028321D01*
X005171Y028349D01*
X005148Y028380D01*
X005127Y028413D01*
X005111Y028449D01*
X005097Y028485D01*
X005088Y028523D01*
X005082Y028561D01*
X005080Y028600D01*
X005070Y029000D02*
X005870Y028200D01*
X005080Y029600D02*
X005082Y029639D01*
X005088Y029677D01*
X005097Y029715D01*
X005111Y029751D01*
X005127Y029787D01*
X005148Y029820D01*
X005171Y029851D01*
X005198Y029879D01*
X005227Y029905D01*
X005258Y029928D01*
X005292Y029947D01*
X005328Y029963D01*
X005364Y029975D01*
X005402Y029984D01*
X005441Y029989D01*
X005480Y029990D01*
X005518Y029987D01*
X005557Y029980D01*
X005594Y029970D01*
X005630Y029955D01*
X005665Y029938D01*
X005698Y029917D01*
X005728Y029892D01*
X005756Y029865D01*
X005781Y029835D01*
X005803Y029803D01*
X005821Y029769D01*
X005836Y029733D01*
X005848Y029696D01*
X005856Y029658D01*
X005860Y029619D01*
X005860Y029581D01*
X005856Y029542D01*
X005848Y029504D01*
X005836Y029467D01*
X005821Y029431D01*
X005803Y029397D01*
X005781Y029365D01*
X005756Y029335D01*
X005728Y029308D01*
X005698Y029283D01*
X005665Y029262D01*
X005630Y029245D01*
X005594Y029230D01*
X005557Y029220D01*
X005518Y029213D01*
X005480Y029210D01*
X005441Y029211D01*
X005402Y029216D01*
X005364Y029225D01*
X005328Y029237D01*
X005292Y029253D01*
X005258Y029272D01*
X005227Y029295D01*
X005198Y029321D01*
X005171Y029349D01*
X005148Y029380D01*
X005127Y029413D01*
X005111Y029449D01*
X005097Y029485D01*
X005088Y029523D01*
X005082Y029561D01*
X005080Y029600D01*
X005070Y030000D02*
X005870Y029200D01*
X005080Y022600D02*
X005082Y022639D01*
X005088Y022677D01*
X005097Y022715D01*
X005111Y022751D01*
X005127Y022787D01*
X005148Y022820D01*
X005171Y022851D01*
X005198Y022879D01*
X005227Y022905D01*
X005258Y022928D01*
X005292Y022947D01*
X005328Y022963D01*
X005364Y022975D01*
X005402Y022984D01*
X005441Y022989D01*
X005480Y022990D01*
X005518Y022987D01*
X005557Y022980D01*
X005594Y022970D01*
X005630Y022955D01*
X005665Y022938D01*
X005698Y022917D01*
X005728Y022892D01*
X005756Y022865D01*
X005781Y022835D01*
X005803Y022803D01*
X005821Y022769D01*
X005836Y022733D01*
X005848Y022696D01*
X005856Y022658D01*
X005860Y022619D01*
X005860Y022581D01*
X005856Y022542D01*
X005848Y022504D01*
X005836Y022467D01*
X005821Y022431D01*
X005803Y022397D01*
X005781Y022365D01*
X005756Y022335D01*
X005728Y022308D01*
X005698Y022283D01*
X005665Y022262D01*
X005630Y022245D01*
X005594Y022230D01*
X005557Y022220D01*
X005518Y022213D01*
X005480Y022210D01*
X005441Y022211D01*
X005402Y022216D01*
X005364Y022225D01*
X005328Y022237D01*
X005292Y022253D01*
X005258Y022272D01*
X005227Y022295D01*
X005198Y022321D01*
X005171Y022349D01*
X005148Y022380D01*
X005127Y022413D01*
X005111Y022449D01*
X005097Y022485D01*
X005088Y022523D01*
X005082Y022561D01*
X005080Y022600D01*
X005070Y023000D02*
X005870Y022200D01*
X005080Y021600D02*
X005082Y021639D01*
X005088Y021677D01*
X005097Y021715D01*
X005111Y021751D01*
X005127Y021787D01*
X005148Y021820D01*
X005171Y021851D01*
X005198Y021879D01*
X005227Y021905D01*
X005258Y021928D01*
X005292Y021947D01*
X005328Y021963D01*
X005364Y021975D01*
X005402Y021984D01*
X005441Y021989D01*
X005480Y021990D01*
X005518Y021987D01*
X005557Y021980D01*
X005594Y021970D01*
X005630Y021955D01*
X005665Y021938D01*
X005698Y021917D01*
X005728Y021892D01*
X005756Y021865D01*
X005781Y021835D01*
X005803Y021803D01*
X005821Y021769D01*
X005836Y021733D01*
X005848Y021696D01*
X005856Y021658D01*
X005860Y021619D01*
X005860Y021581D01*
X005856Y021542D01*
X005848Y021504D01*
X005836Y021467D01*
X005821Y021431D01*
X005803Y021397D01*
X005781Y021365D01*
X005756Y021335D01*
X005728Y021308D01*
X005698Y021283D01*
X005665Y021262D01*
X005630Y021245D01*
X005594Y021230D01*
X005557Y021220D01*
X005518Y021213D01*
X005480Y021210D01*
X005441Y021211D01*
X005402Y021216D01*
X005364Y021225D01*
X005328Y021237D01*
X005292Y021253D01*
X005258Y021272D01*
X005227Y021295D01*
X005198Y021321D01*
X005171Y021349D01*
X005148Y021380D01*
X005127Y021413D01*
X005111Y021449D01*
X005097Y021485D01*
X005088Y021523D01*
X005082Y021561D01*
X005080Y021600D01*
X005070Y022000D02*
X005870Y021200D01*
X008080Y022100D02*
X008082Y022139D01*
X008088Y022177D01*
X008097Y022215D01*
X008111Y022251D01*
X008127Y022287D01*
X008148Y022320D01*
X008171Y022351D01*
X008198Y022379D01*
X008227Y022405D01*
X008258Y022428D01*
X008292Y022447D01*
X008328Y022463D01*
X008364Y022475D01*
X008402Y022484D01*
X008441Y022489D01*
X008480Y022490D01*
X008518Y022487D01*
X008557Y022480D01*
X008594Y022470D01*
X008630Y022455D01*
X008665Y022438D01*
X008698Y022417D01*
X008728Y022392D01*
X008756Y022365D01*
X008781Y022335D01*
X008803Y022303D01*
X008821Y022269D01*
X008836Y022233D01*
X008848Y022196D01*
X008856Y022158D01*
X008860Y022119D01*
X008860Y022081D01*
X008856Y022042D01*
X008848Y022004D01*
X008836Y021967D01*
X008821Y021931D01*
X008803Y021897D01*
X008781Y021865D01*
X008756Y021835D01*
X008728Y021808D01*
X008698Y021783D01*
X008665Y021762D01*
X008630Y021745D01*
X008594Y021730D01*
X008557Y021720D01*
X008518Y021713D01*
X008480Y021710D01*
X008441Y021711D01*
X008402Y021716D01*
X008364Y021725D01*
X008328Y021737D01*
X008292Y021753D01*
X008258Y021772D01*
X008227Y021795D01*
X008198Y021821D01*
X008171Y021849D01*
X008148Y021880D01*
X008127Y021913D01*
X008111Y021949D01*
X008097Y021985D01*
X008088Y022023D01*
X008082Y022061D01*
X008080Y022100D01*
X008070Y022500D02*
X008870Y021700D01*
X008080Y020100D02*
X008082Y020139D01*
X008088Y020177D01*
X008097Y020215D01*
X008111Y020251D01*
X008127Y020287D01*
X008148Y020320D01*
X008171Y020351D01*
X008198Y020379D01*
X008227Y020405D01*
X008258Y020428D01*
X008292Y020447D01*
X008328Y020463D01*
X008364Y020475D01*
X008402Y020484D01*
X008441Y020489D01*
X008480Y020490D01*
X008518Y020487D01*
X008557Y020480D01*
X008594Y020470D01*
X008630Y020455D01*
X008665Y020438D01*
X008698Y020417D01*
X008728Y020392D01*
X008756Y020365D01*
X008781Y020335D01*
X008803Y020303D01*
X008821Y020269D01*
X008836Y020233D01*
X008848Y020196D01*
X008856Y020158D01*
X008860Y020119D01*
X008860Y020081D01*
X008856Y020042D01*
X008848Y020004D01*
X008836Y019967D01*
X008821Y019931D01*
X008803Y019897D01*
X008781Y019865D01*
X008756Y019835D01*
X008728Y019808D01*
X008698Y019783D01*
X008665Y019762D01*
X008630Y019745D01*
X008594Y019730D01*
X008557Y019720D01*
X008518Y019713D01*
X008480Y019710D01*
X008441Y019711D01*
X008402Y019716D01*
X008364Y019725D01*
X008328Y019737D01*
X008292Y019753D01*
X008258Y019772D01*
X008227Y019795D01*
X008198Y019821D01*
X008171Y019849D01*
X008148Y019880D01*
X008127Y019913D01*
X008111Y019949D01*
X008097Y019985D01*
X008088Y020023D01*
X008082Y020061D01*
X008080Y020100D01*
X008070Y020500D02*
X008870Y019700D01*
X008975Y017852D02*
X008975Y017752D01*
X008975Y017705D02*
X009025Y017655D01*
X009025Y017680D02*
X009025Y017605D01*
X008975Y017605D02*
X009125Y017605D01*
X009125Y017680D01*
X009100Y017705D01*
X009050Y017705D01*
X009025Y017680D01*
X009075Y017752D02*
X009125Y017802D01*
X008975Y017802D01*
X008080Y017100D02*
X008082Y017139D01*
X008088Y017177D01*
X008097Y017215D01*
X008111Y017251D01*
X008127Y017287D01*
X008148Y017320D01*
X008171Y017351D01*
X008198Y017379D01*
X008227Y017405D01*
X008258Y017428D01*
X008292Y017447D01*
X008328Y017463D01*
X008364Y017475D01*
X008402Y017484D01*
X008441Y017489D01*
X008480Y017490D01*
X008518Y017487D01*
X008557Y017480D01*
X008594Y017470D01*
X008630Y017455D01*
X008665Y017438D01*
X008698Y017417D01*
X008728Y017392D01*
X008756Y017365D01*
X008781Y017335D01*
X008803Y017303D01*
X008821Y017269D01*
X008836Y017233D01*
X008848Y017196D01*
X008856Y017158D01*
X008860Y017119D01*
X008860Y017081D01*
X008856Y017042D01*
X008848Y017004D01*
X008836Y016967D01*
X008821Y016931D01*
X008803Y016897D01*
X008781Y016865D01*
X008756Y016835D01*
X008728Y016808D01*
X008698Y016783D01*
X008665Y016762D01*
X008630Y016745D01*
X008594Y016730D01*
X008557Y016720D01*
X008518Y016713D01*
X008480Y016710D01*
X008441Y016711D01*
X008402Y016716D01*
X008364Y016725D01*
X008328Y016737D01*
X008292Y016753D01*
X008258Y016772D01*
X008227Y016795D01*
X008198Y016821D01*
X008171Y016849D01*
X008148Y016880D01*
X008127Y016913D01*
X008111Y016949D01*
X008097Y016985D01*
X008088Y017023D01*
X008082Y017061D01*
X008080Y017100D01*
X008070Y017500D02*
X008870Y016700D01*
X005080Y017600D02*
X005082Y017639D01*
X005088Y017677D01*
X005097Y017715D01*
X005111Y017751D01*
X005127Y017787D01*
X005148Y017820D01*
X005171Y017851D01*
X005198Y017879D01*
X005227Y017905D01*
X005258Y017928D01*
X005292Y017947D01*
X005328Y017963D01*
X005364Y017975D01*
X005402Y017984D01*
X005441Y017989D01*
X005480Y017990D01*
X005518Y017987D01*
X005557Y017980D01*
X005594Y017970D01*
X005630Y017955D01*
X005665Y017938D01*
X005698Y017917D01*
X005728Y017892D01*
X005756Y017865D01*
X005781Y017835D01*
X005803Y017803D01*
X005821Y017769D01*
X005836Y017733D01*
X005848Y017696D01*
X005856Y017658D01*
X005860Y017619D01*
X005860Y017581D01*
X005856Y017542D01*
X005848Y017504D01*
X005836Y017467D01*
X005821Y017431D01*
X005803Y017397D01*
X005781Y017365D01*
X005756Y017335D01*
X005728Y017308D01*
X005698Y017283D01*
X005665Y017262D01*
X005630Y017245D01*
X005594Y017230D01*
X005557Y017220D01*
X005518Y017213D01*
X005480Y017210D01*
X005441Y017211D01*
X005402Y017216D01*
X005364Y017225D01*
X005328Y017237D01*
X005292Y017253D01*
X005258Y017272D01*
X005227Y017295D01*
X005198Y017321D01*
X005171Y017349D01*
X005148Y017380D01*
X005127Y017413D01*
X005111Y017449D01*
X005097Y017485D01*
X005088Y017523D01*
X005082Y017561D01*
X005080Y017600D01*
X005070Y018000D02*
X005870Y017200D01*
X005080Y018600D02*
X005082Y018639D01*
X005088Y018677D01*
X005097Y018715D01*
X005111Y018751D01*
X005127Y018787D01*
X005148Y018820D01*
X005171Y018851D01*
X005198Y018879D01*
X005227Y018905D01*
X005258Y018928D01*
X005292Y018947D01*
X005328Y018963D01*
X005364Y018975D01*
X005402Y018984D01*
X005441Y018989D01*
X005480Y018990D01*
X005518Y018987D01*
X005557Y018980D01*
X005594Y018970D01*
X005630Y018955D01*
X005665Y018938D01*
X005698Y018917D01*
X005728Y018892D01*
X005756Y018865D01*
X005781Y018835D01*
X005803Y018803D01*
X005821Y018769D01*
X005836Y018733D01*
X005848Y018696D01*
X005856Y018658D01*
X005860Y018619D01*
X005860Y018581D01*
X005856Y018542D01*
X005848Y018504D01*
X005836Y018467D01*
X005821Y018431D01*
X005803Y018397D01*
X005781Y018365D01*
X005756Y018335D01*
X005728Y018308D01*
X005698Y018283D01*
X005665Y018262D01*
X005630Y018245D01*
X005594Y018230D01*
X005557Y018220D01*
X005518Y018213D01*
X005480Y018210D01*
X005441Y018211D01*
X005402Y018216D01*
X005364Y018225D01*
X005328Y018237D01*
X005292Y018253D01*
X005258Y018272D01*
X005227Y018295D01*
X005198Y018321D01*
X005171Y018349D01*
X005148Y018380D01*
X005127Y018413D01*
X005111Y018449D01*
X005097Y018485D01*
X005088Y018523D01*
X005082Y018561D01*
X005080Y018600D01*
X005070Y019000D02*
X005870Y018200D01*
X042580Y024600D02*
X042582Y024639D01*
X042588Y024677D01*
X042597Y024715D01*
X042611Y024751D01*
X042627Y024787D01*
X042648Y024820D01*
X042671Y024851D01*
X042698Y024879D01*
X042727Y024905D01*
X042758Y024928D01*
X042792Y024947D01*
X042828Y024963D01*
X042864Y024975D01*
X042902Y024984D01*
X042941Y024989D01*
X042980Y024990D01*
X043018Y024987D01*
X043057Y024980D01*
X043094Y024970D01*
X043130Y024955D01*
X043165Y024938D01*
X043198Y024917D01*
X043228Y024892D01*
X043256Y024865D01*
X043281Y024835D01*
X043303Y024803D01*
X043321Y024769D01*
X043336Y024733D01*
X043348Y024696D01*
X043356Y024658D01*
X043360Y024619D01*
X043360Y024581D01*
X043356Y024542D01*
X043348Y024504D01*
X043336Y024467D01*
X043321Y024431D01*
X043303Y024397D01*
X043281Y024365D01*
X043256Y024335D01*
X043228Y024308D01*
X043198Y024283D01*
X043165Y024262D01*
X043130Y024245D01*
X043094Y024230D01*
X043057Y024220D01*
X043018Y024213D01*
X042980Y024210D01*
X042941Y024211D01*
X042902Y024216D01*
X042864Y024225D01*
X042828Y024237D01*
X042792Y024253D01*
X042758Y024272D01*
X042727Y024295D01*
X042698Y024321D01*
X042671Y024349D01*
X042648Y024380D01*
X042627Y024413D01*
X042611Y024449D01*
X042597Y024485D01*
X042588Y024523D01*
X042582Y024561D01*
X042580Y024600D01*
X042570Y025000D02*
X043370Y024200D01*
X044192Y024162D02*
X044115Y024209D01*
X044116Y024209D02*
X044140Y024253D01*
X044162Y024299D01*
X044181Y024346D01*
X044196Y024394D01*
X044209Y024444D01*
X044217Y024494D01*
X044223Y024544D01*
X044225Y024595D01*
X044314Y024596D01*
X044315Y024595D01*
X044313Y024538D01*
X044307Y024481D01*
X044297Y024425D01*
X044283Y024370D01*
X044266Y024316D01*
X044245Y024263D01*
X044220Y024211D01*
X044192Y024161D01*
X044185Y024166D01*
X044212Y024215D01*
X044236Y024266D01*
X044257Y024319D01*
X044274Y024372D01*
X044288Y024427D01*
X044298Y024483D01*
X044304Y024539D01*
X044306Y024595D01*
X044297Y024595D01*
X044295Y024539D01*
X044289Y024484D01*
X044279Y024429D01*
X044266Y024375D01*
X044249Y024322D01*
X044228Y024270D01*
X044204Y024219D01*
X044177Y024171D01*
X044169Y024176D01*
X044196Y024224D01*
X044220Y024273D01*
X044240Y024325D01*
X044257Y024377D01*
X044270Y024431D01*
X044280Y024485D01*
X044286Y024540D01*
X044288Y024595D01*
X044279Y024595D01*
X044277Y024541D01*
X044271Y024486D01*
X044261Y024433D01*
X044248Y024380D01*
X044232Y024328D01*
X044212Y024277D01*
X044188Y024228D01*
X044162Y024180D01*
X044154Y024185D01*
X044180Y024232D01*
X044204Y024281D01*
X044223Y024331D01*
X044240Y024382D01*
X044253Y024434D01*
X044262Y024488D01*
X044268Y024541D01*
X044270Y024595D01*
X044261Y024595D01*
X044259Y024542D01*
X044253Y024489D01*
X044244Y024436D01*
X044231Y024385D01*
X044215Y024334D01*
X044195Y024284D01*
X044172Y024236D01*
X044146Y024190D01*
X044139Y024194D01*
X044164Y024240D01*
X044187Y024288D01*
X044206Y024337D01*
X044222Y024387D01*
X044235Y024438D01*
X044244Y024490D01*
X044250Y024542D01*
X044252Y024595D01*
X044243Y024595D01*
X044241Y024543D01*
X044235Y024491D01*
X044226Y024440D01*
X044214Y024390D01*
X044198Y024340D01*
X044179Y024292D01*
X044156Y024245D01*
X044131Y024199D01*
X044123Y024204D01*
X044148Y024249D01*
X044171Y024295D01*
X044189Y024343D01*
X044205Y024392D01*
X044217Y024442D01*
X044226Y024493D01*
X044232Y024544D01*
X044234Y024595D01*
X043580Y024600D02*
X043582Y024639D01*
X043588Y024677D01*
X043597Y024715D01*
X043611Y024751D01*
X043627Y024787D01*
X043648Y024820D01*
X043671Y024851D01*
X043698Y024879D01*
X043727Y024905D01*
X043758Y024928D01*
X043792Y024947D01*
X043828Y024963D01*
X043864Y024975D01*
X043902Y024984D01*
X043941Y024989D01*
X043980Y024990D01*
X044018Y024987D01*
X044057Y024980D01*
X044094Y024970D01*
X044130Y024955D01*
X044165Y024938D01*
X044198Y024917D01*
X044228Y024892D01*
X044256Y024865D01*
X044281Y024835D01*
X044303Y024803D01*
X044321Y024769D01*
X044336Y024733D01*
X044348Y024696D01*
X044356Y024658D01*
X044360Y024619D01*
X044360Y024581D01*
X044356Y024542D01*
X044348Y024504D01*
X044336Y024467D01*
X044321Y024431D01*
X044303Y024397D01*
X044281Y024365D01*
X044256Y024335D01*
X044228Y024308D01*
X044198Y024283D01*
X044165Y024262D01*
X044130Y024245D01*
X044094Y024230D01*
X044057Y024220D01*
X044018Y024213D01*
X043980Y024210D01*
X043941Y024211D01*
X043902Y024216D01*
X043864Y024225D01*
X043828Y024237D01*
X043792Y024253D01*
X043758Y024272D01*
X043727Y024295D01*
X043698Y024321D01*
X043671Y024349D01*
X043648Y024380D01*
X043627Y024413D01*
X043611Y024449D01*
X043597Y024485D01*
X043588Y024523D01*
X043582Y024561D01*
X043580Y024600D01*
X043570Y025000D02*
X044370Y024200D01*
X043474Y023756D02*
X043474Y023846D01*
X043475Y023845D02*
X043527Y023847D01*
X043579Y023853D01*
X043631Y023862D01*
X043681Y023875D01*
X043731Y023891D01*
X043779Y023911D01*
X043826Y023934D01*
X043871Y023960D01*
X043915Y023990D01*
X043956Y024022D01*
X043995Y024057D01*
X044031Y024095D01*
X044064Y024135D01*
X044095Y024177D01*
X044123Y024221D01*
X044201Y024177D01*
X044201Y024176D01*
X044172Y024130D01*
X044140Y024085D01*
X044105Y024043D01*
X044068Y024003D01*
X044028Y023965D01*
X043985Y023930D01*
X043941Y023898D01*
X043894Y023869D01*
X043846Y023843D01*
X043796Y023820D01*
X043744Y023801D01*
X043692Y023785D01*
X043639Y023772D01*
X043584Y023763D01*
X043530Y023757D01*
X043475Y023755D01*
X043475Y023764D01*
X043529Y023766D01*
X043583Y023772D01*
X043637Y023781D01*
X043690Y023793D01*
X043742Y023809D01*
X043792Y023829D01*
X043842Y023851D01*
X043890Y023877D01*
X043936Y023906D01*
X043980Y023937D01*
X044022Y023972D01*
X044061Y024009D01*
X044098Y024049D01*
X044133Y024091D01*
X044165Y024135D01*
X044193Y024181D01*
X044186Y024185D01*
X044157Y024140D01*
X044126Y024096D01*
X044092Y024055D01*
X044055Y024015D01*
X044016Y023979D01*
X043974Y023945D01*
X043931Y023913D01*
X043885Y023885D01*
X043838Y023859D01*
X043789Y023837D01*
X043739Y023818D01*
X043687Y023802D01*
X043635Y023790D01*
X043582Y023781D01*
X043529Y023775D01*
X043475Y023773D01*
X043475Y023782D01*
X043532Y023784D01*
X043588Y023791D01*
X043644Y023801D01*
X043699Y023815D01*
X043752Y023832D01*
X043805Y023854D01*
X043856Y023879D01*
X043905Y023907D01*
X043952Y023939D01*
X043996Y023974D01*
X044038Y024012D01*
X044078Y024053D01*
X044114Y024096D01*
X044148Y024142D01*
X044178Y024190D01*
X044170Y024194D01*
X044140Y024147D01*
X044107Y024101D01*
X044071Y024059D01*
X044032Y024018D01*
X043991Y023981D01*
X043946Y023946D01*
X043900Y023915D01*
X043852Y023887D01*
X043801Y023862D01*
X043749Y023841D01*
X043696Y023823D01*
X043642Y023809D01*
X043587Y023799D01*
X043531Y023793D01*
X043475Y023791D01*
X043475Y023800D01*
X043530Y023802D01*
X043585Y023808D01*
X043640Y023818D01*
X043694Y023832D01*
X043746Y023849D01*
X043798Y023870D01*
X043847Y023895D01*
X043895Y023922D01*
X043941Y023953D01*
X043985Y023988D01*
X044026Y024025D01*
X044064Y024065D01*
X044100Y024107D01*
X044133Y024152D01*
X044162Y024199D01*
X044154Y024203D01*
X044125Y024157D01*
X044093Y024113D01*
X044058Y024071D01*
X044020Y024031D01*
X043979Y023994D01*
X043936Y023961D01*
X043890Y023930D01*
X043843Y023903D01*
X043794Y023878D01*
X043743Y023858D01*
X043691Y023841D01*
X043638Y023827D01*
X043584Y023817D01*
X043530Y023811D01*
X043475Y023809D01*
X043475Y023818D01*
X043529Y023820D01*
X043583Y023826D01*
X043636Y023836D01*
X043689Y023849D01*
X043740Y023866D01*
X043790Y023887D01*
X043839Y023910D01*
X043886Y023938D01*
X043931Y023968D01*
X043973Y024001D01*
X044013Y024038D01*
X044051Y024077D01*
X044086Y024118D01*
X044118Y024162D01*
X044146Y024208D01*
X044139Y024212D01*
X044110Y024167D01*
X044079Y024124D01*
X044044Y024083D01*
X044007Y024044D01*
X043967Y024008D01*
X043925Y023975D01*
X043881Y023945D01*
X043835Y023918D01*
X043787Y023895D01*
X043737Y023875D01*
X043686Y023858D01*
X043634Y023845D01*
X043582Y023835D01*
X043528Y023829D01*
X043475Y023827D01*
X043475Y023836D01*
X043528Y023838D01*
X043580Y023844D01*
X043632Y023853D01*
X043684Y023866D01*
X043734Y023883D01*
X043783Y023903D01*
X043830Y023926D01*
X043876Y023953D01*
X043920Y023983D01*
X043962Y024015D01*
X044001Y024051D01*
X044038Y024089D01*
X044072Y024129D01*
X044103Y024172D01*
X044131Y024217D01*
X044314Y024605D02*
X044224Y024605D01*
X044225Y024605D02*
X044223Y024657D01*
X044217Y024708D01*
X044208Y024759D01*
X044195Y024810D01*
X044179Y024859D01*
X044160Y024907D01*
X044137Y024954D01*
X044216Y024996D01*
X044239Y024951D01*
X044259Y024904D01*
X044275Y024856D01*
X044289Y024807D01*
X044300Y024757D01*
X044308Y024707D01*
X044313Y024656D01*
X044315Y024605D01*
X044306Y024605D01*
X044304Y024663D01*
X044297Y024720D01*
X044287Y024776D01*
X044273Y024832D01*
X044255Y024887D01*
X044234Y024940D01*
X044208Y024992D01*
X044200Y024988D01*
X044225Y024937D01*
X044247Y024884D01*
X044264Y024830D01*
X044278Y024774D01*
X044288Y024718D01*
X044295Y024662D01*
X044297Y024605D01*
X044288Y024605D01*
X044286Y024661D01*
X044280Y024717D01*
X044270Y024773D01*
X044256Y024827D01*
X044238Y024881D01*
X044217Y024933D01*
X044193Y024983D01*
X044185Y024979D01*
X044209Y024929D01*
X044230Y024878D01*
X044247Y024825D01*
X044261Y024771D01*
X044271Y024716D01*
X044277Y024661D01*
X044279Y024605D01*
X044270Y024605D01*
X044268Y024660D01*
X044262Y024715D01*
X044252Y024769D01*
X044239Y024822D01*
X044221Y024874D01*
X044201Y024925D01*
X044177Y024975D01*
X044169Y024971D01*
X044193Y024922D01*
X044213Y024871D01*
X044230Y024820D01*
X044243Y024767D01*
X044253Y024713D01*
X044259Y024659D01*
X044261Y024605D01*
X044252Y024605D01*
X044250Y024659D01*
X044244Y024712D01*
X044234Y024765D01*
X044221Y024817D01*
X044205Y024868D01*
X044184Y024918D01*
X044161Y024966D01*
X044153Y024962D01*
X044176Y024914D01*
X044196Y024865D01*
X044213Y024815D01*
X044226Y024763D01*
X044235Y024711D01*
X044241Y024658D01*
X044243Y024605D01*
X044234Y024605D01*
X044232Y024657D01*
X044226Y024710D01*
X044217Y024761D01*
X044204Y024812D01*
X044188Y024862D01*
X044168Y024911D01*
X044145Y024958D01*
X043466Y025444D02*
X043466Y025354D01*
X043465Y025355D02*
X043411Y025353D01*
X043357Y025346D01*
X043304Y025336D01*
X043251Y025323D01*
X043200Y025305D01*
X043150Y025284D01*
X043101Y025259D01*
X043055Y025231D01*
X043011Y025199D01*
X042969Y025165D01*
X042930Y025127D01*
X042893Y025087D01*
X042825Y025144D01*
X042824Y025145D01*
X042862Y025187D01*
X042902Y025226D01*
X042945Y025262D01*
X042990Y025295D01*
X043037Y025326D01*
X043086Y025353D01*
X043137Y025377D01*
X043190Y025397D01*
X043243Y025414D01*
X043298Y025427D01*
X043353Y025437D01*
X043409Y025443D01*
X043465Y025445D01*
X043465Y025436D01*
X043409Y025434D01*
X043354Y025428D01*
X043300Y025418D01*
X043246Y025405D01*
X043193Y025389D01*
X043141Y025368D01*
X043090Y025345D01*
X043042Y025318D01*
X042995Y025288D01*
X042950Y025255D01*
X042908Y025219D01*
X042868Y025180D01*
X042831Y025139D01*
X042838Y025133D01*
X042875Y025174D01*
X042914Y025212D01*
X042956Y025248D01*
X043000Y025281D01*
X043046Y025310D01*
X043095Y025337D01*
X043144Y025360D01*
X043196Y025380D01*
X043248Y025397D01*
X043301Y025410D01*
X043355Y025419D01*
X043410Y025425D01*
X043465Y025427D01*
X043465Y025418D01*
X043411Y025416D01*
X043357Y025410D01*
X043303Y025401D01*
X043250Y025388D01*
X043198Y025372D01*
X043148Y025352D01*
X043099Y025329D01*
X043051Y025303D01*
X043005Y025273D01*
X042962Y025241D01*
X042920Y025206D01*
X042881Y025168D01*
X042845Y025128D01*
X042852Y025122D01*
X042888Y025162D01*
X042926Y025199D01*
X042967Y025234D01*
X043010Y025266D01*
X043056Y025295D01*
X043103Y025321D01*
X043151Y025344D01*
X043201Y025363D01*
X043253Y025379D01*
X043305Y025392D01*
X043358Y025401D01*
X043411Y025407D01*
X043465Y025409D01*
X043465Y025400D01*
X043412Y025398D01*
X043359Y025392D01*
X043307Y025383D01*
X043255Y025371D01*
X043204Y025355D01*
X043155Y025335D01*
X043107Y025313D01*
X043060Y025287D01*
X043016Y025258D01*
X042973Y025227D01*
X042932Y025192D01*
X042894Y025155D01*
X042859Y025116D01*
X042866Y025110D01*
X042901Y025149D01*
X042938Y025186D01*
X042979Y025220D01*
X043021Y025251D01*
X043065Y025279D01*
X043111Y025305D01*
X043158Y025327D01*
X043207Y025346D01*
X043258Y025362D01*
X043309Y025374D01*
X043360Y025383D01*
X043413Y025389D01*
X043465Y025391D01*
X043465Y025382D01*
X043413Y025380D01*
X043362Y025374D01*
X043310Y025366D01*
X043260Y025353D01*
X043210Y025338D01*
X043162Y025319D01*
X043115Y025297D01*
X043070Y025272D01*
X043026Y025244D01*
X042984Y025213D01*
X042945Y025179D01*
X042907Y025143D01*
X042872Y025104D01*
X042879Y025099D01*
X042914Y025137D01*
X042951Y025173D01*
X042990Y025206D01*
X043031Y025236D01*
X043074Y025264D01*
X043119Y025289D01*
X043166Y025311D01*
X043213Y025329D01*
X043262Y025345D01*
X043312Y025357D01*
X043363Y025366D01*
X043414Y025371D01*
X043465Y025373D01*
X043465Y025364D01*
X043410Y025362D01*
X043356Y025355D01*
X043302Y025345D01*
X043248Y025331D01*
X043197Y025313D01*
X043146Y025292D01*
X043097Y025267D01*
X043050Y025238D01*
X043005Y025206D01*
X042963Y025172D01*
X042923Y025134D01*
X042886Y025093D01*
X044213Y025002D02*
X044133Y024959D01*
X044134Y024960D02*
X044107Y025006D01*
X044076Y025050D01*
X044043Y025092D01*
X044006Y025132D01*
X043967Y025168D01*
X043925Y025202D01*
X043881Y025233D01*
X043835Y025261D01*
X043787Y025285D01*
X043738Y025306D01*
X043687Y025323D01*
X043635Y025337D01*
X043582Y025347D01*
X043529Y025353D01*
X043475Y025355D01*
X043475Y025444D01*
X043475Y025445D01*
X043531Y025443D01*
X043588Y025437D01*
X043643Y025427D01*
X043698Y025414D01*
X043752Y025397D01*
X043804Y025376D01*
X043855Y025352D01*
X043905Y025325D01*
X043952Y025294D01*
X043997Y025260D01*
X044040Y025224D01*
X044081Y025184D01*
X044118Y025142D01*
X044153Y025097D01*
X044185Y025051D01*
X044213Y025002D01*
X044205Y024998D01*
X044177Y025046D01*
X044146Y025092D01*
X044111Y025136D01*
X044074Y025178D01*
X044034Y025217D01*
X043992Y025253D01*
X043947Y025287D01*
X043900Y025317D01*
X043851Y025344D01*
X043801Y025368D01*
X043749Y025388D01*
X043696Y025405D01*
X043641Y025418D01*
X043586Y025428D01*
X043531Y025434D01*
X043475Y025436D01*
X043475Y025427D01*
X043530Y025425D01*
X043585Y025419D01*
X043640Y025409D01*
X043693Y025396D01*
X043746Y025380D01*
X043797Y025359D01*
X043847Y025336D01*
X043896Y025309D01*
X043942Y025279D01*
X043986Y025246D01*
X044028Y025210D01*
X044068Y025172D01*
X044104Y025130D01*
X044138Y025087D01*
X044169Y025041D01*
X044197Y024994D01*
X044189Y024989D01*
X044162Y025036D01*
X044131Y025082D01*
X044098Y025125D01*
X044061Y025165D01*
X044022Y025204D01*
X043981Y025239D01*
X043937Y025272D01*
X043891Y025301D01*
X043843Y025328D01*
X043794Y025351D01*
X043743Y025371D01*
X043691Y025388D01*
X043638Y025401D01*
X043584Y025410D01*
X043530Y025416D01*
X043475Y025418D01*
X043475Y025409D01*
X043529Y025407D01*
X043583Y025401D01*
X043636Y025392D01*
X043688Y025379D01*
X043740Y025363D01*
X043790Y025343D01*
X043839Y025320D01*
X043886Y025294D01*
X043932Y025264D01*
X043975Y025232D01*
X044016Y025197D01*
X044055Y025159D01*
X044091Y025119D01*
X044124Y025076D01*
X044154Y025032D01*
X044181Y024985D01*
X044174Y024981D01*
X044147Y025027D01*
X044117Y025071D01*
X044084Y025113D01*
X044048Y025153D01*
X044010Y025190D01*
X043969Y025225D01*
X043926Y025257D01*
X043882Y025286D01*
X043835Y025312D01*
X043787Y025335D01*
X043737Y025354D01*
X043686Y025370D01*
X043634Y025383D01*
X043581Y025392D01*
X043528Y025398D01*
X043475Y025400D01*
X043475Y025391D01*
X043528Y025389D01*
X043580Y025383D01*
X043632Y025374D01*
X043684Y025362D01*
X043734Y025346D01*
X043783Y025326D01*
X043831Y025304D01*
X043877Y025278D01*
X043921Y025250D01*
X043964Y025218D01*
X044004Y025184D01*
X044042Y025147D01*
X044077Y025107D01*
X044109Y025066D01*
X044139Y025022D01*
X044166Y024977D01*
X044158Y024972D01*
X044129Y025020D01*
X044098Y025066D01*
X044063Y025110D01*
X044025Y025151D01*
X043985Y025189D01*
X043942Y025224D01*
X043896Y025256D01*
X043848Y025284D01*
X043799Y025310D01*
X043747Y025331D01*
X043695Y025349D01*
X043641Y025363D01*
X043586Y025373D01*
X043531Y025380D01*
X043475Y025382D01*
X043475Y025373D01*
X043530Y025371D01*
X043585Y025364D01*
X043639Y025354D01*
X043692Y025340D01*
X043744Y025323D01*
X043795Y025301D01*
X043844Y025277D01*
X043891Y025248D01*
X043936Y025217D01*
X043979Y025182D01*
X044019Y025144D01*
X044056Y025104D01*
X044091Y025061D01*
X044122Y025016D01*
X044150Y024968D01*
X044142Y024964D01*
X044114Y025011D01*
X044083Y025056D01*
X044049Y025098D01*
X044012Y025138D01*
X043973Y025175D01*
X043931Y025209D01*
X043886Y025241D01*
X043840Y025269D01*
X043791Y025293D01*
X043741Y025314D01*
X043689Y025332D01*
X043637Y025346D01*
X043583Y025356D01*
X043529Y025362D01*
X043475Y025364D01*
X042829Y024051D02*
X042897Y024109D01*
X042897Y024108D02*
X042933Y024069D01*
X042973Y024032D01*
X043014Y023998D01*
X043058Y023967D01*
X043104Y023939D01*
X043152Y023915D01*
X043202Y023894D01*
X043253Y023877D01*
X043305Y023863D01*
X043358Y023853D01*
X043411Y023847D01*
X043465Y023845D01*
X043466Y023756D01*
X043465Y023755D01*
X043409Y023757D01*
X043354Y023763D01*
X043299Y023772D01*
X043245Y023786D01*
X043192Y023802D01*
X043140Y023822D01*
X043089Y023846D01*
X043041Y023872D01*
X042994Y023902D01*
X042949Y023935D01*
X042906Y023971D01*
X042866Y024009D01*
X042828Y024050D01*
X042835Y024056D01*
X042872Y024016D01*
X042912Y023977D01*
X042954Y023942D01*
X042999Y023910D01*
X043045Y023880D01*
X043093Y023854D01*
X043143Y023830D01*
X043195Y023811D01*
X043247Y023794D01*
X043301Y023781D01*
X043355Y023772D01*
X043410Y023766D01*
X043465Y023764D01*
X043465Y023773D01*
X043411Y023775D01*
X043356Y023781D01*
X043303Y023790D01*
X043250Y023803D01*
X043198Y023819D01*
X043147Y023839D01*
X043098Y023862D01*
X043050Y023888D01*
X043004Y023917D01*
X042960Y023949D01*
X042918Y023984D01*
X042879Y024022D01*
X042842Y024062D01*
X042849Y024068D01*
X042885Y024028D01*
X042924Y023991D01*
X042965Y023956D01*
X043009Y023924D01*
X043054Y023895D01*
X043102Y023870D01*
X043150Y023847D01*
X043201Y023828D01*
X043252Y023812D01*
X043305Y023799D01*
X043358Y023790D01*
X043411Y023784D01*
X043465Y023782D01*
X043465Y023791D01*
X043412Y023793D01*
X043359Y023799D01*
X043306Y023808D01*
X043255Y023820D01*
X043204Y023836D01*
X043154Y023855D01*
X043106Y023878D01*
X043059Y023903D01*
X043014Y023932D01*
X042971Y023963D01*
X042930Y023997D01*
X042892Y024034D01*
X042856Y024074D01*
X042863Y024079D01*
X042898Y024041D01*
X042936Y024004D01*
X042977Y023970D01*
X043019Y023939D01*
X043063Y023911D01*
X043110Y023886D01*
X043157Y023864D01*
X043207Y023845D01*
X043257Y023829D01*
X043308Y023817D01*
X043360Y023808D01*
X043412Y023802D01*
X043465Y023800D01*
X043465Y023809D01*
X043413Y023811D01*
X043361Y023817D01*
X043310Y023825D01*
X043259Y023838D01*
X043210Y023853D01*
X043161Y023872D01*
X043114Y023894D01*
X043068Y023919D01*
X043024Y023947D01*
X042982Y023977D01*
X042942Y024011D01*
X042905Y024047D01*
X042869Y024085D01*
X042876Y024091D01*
X042914Y024050D01*
X042955Y024012D01*
X042998Y023977D01*
X043043Y023945D01*
X043091Y023916D01*
X043141Y023891D01*
X043192Y023869D01*
X043245Y023851D01*
X043299Y023837D01*
X043354Y023827D01*
X043409Y023820D01*
X043465Y023818D01*
X043465Y023827D01*
X043410Y023829D01*
X043355Y023836D01*
X043301Y023846D01*
X043248Y023860D01*
X043196Y023877D01*
X043145Y023899D01*
X043096Y023924D01*
X043048Y023952D01*
X043003Y023984D01*
X042961Y024019D01*
X042920Y024056D01*
X042883Y024097D01*
X042890Y024103D01*
X042927Y024063D01*
X042967Y024025D01*
X043009Y023991D01*
X043053Y023960D01*
X043100Y023932D01*
X043149Y023907D01*
X043199Y023886D01*
X043250Y023868D01*
X043303Y023854D01*
X043357Y023844D01*
X043411Y023838D01*
X043465Y023836D01*
X043580Y003100D02*
X043582Y003139D01*
X043588Y003177D01*
X043597Y003215D01*
X043611Y003251D01*
X043627Y003287D01*
X043648Y003320D01*
X043671Y003351D01*
X043698Y003379D01*
X043727Y003405D01*
X043758Y003428D01*
X043792Y003447D01*
X043828Y003463D01*
X043864Y003475D01*
X043902Y003484D01*
X043941Y003489D01*
X043980Y003490D01*
X044018Y003487D01*
X044057Y003480D01*
X044094Y003470D01*
X044130Y003455D01*
X044165Y003438D01*
X044198Y003417D01*
X044228Y003392D01*
X044256Y003365D01*
X044281Y003335D01*
X044303Y003303D01*
X044321Y003269D01*
X044336Y003233D01*
X044348Y003196D01*
X044356Y003158D01*
X044360Y003119D01*
X044360Y003081D01*
X044356Y003042D01*
X044348Y003004D01*
X044336Y002967D01*
X044321Y002931D01*
X044303Y002897D01*
X044281Y002865D01*
X044256Y002835D01*
X044228Y002808D01*
X044198Y002783D01*
X044165Y002762D01*
X044130Y002745D01*
X044094Y002730D01*
X044057Y002720D01*
X044018Y002713D01*
X043980Y002710D01*
X043941Y002711D01*
X043902Y002716D01*
X043864Y002725D01*
X043828Y002737D01*
X043792Y002753D01*
X043758Y002772D01*
X043727Y002795D01*
X043698Y002821D01*
X043671Y002849D01*
X043648Y002880D01*
X043627Y002913D01*
X043611Y002949D01*
X043597Y002985D01*
X043588Y003023D01*
X043582Y003061D01*
X043580Y003100D01*
X043570Y003500D02*
X044370Y002700D01*
D14*
X044400Y003845D02*
X044475Y003920D01*
X044400Y003845D02*
X044250Y003845D01*
X044175Y003920D01*
X044175Y003995D01*
X044250Y004070D01*
X044400Y004070D01*
X044475Y004145D01*
X044475Y004220D01*
X044400Y004295D01*
X044250Y004295D01*
X044175Y004220D01*
X044015Y004220D02*
X044015Y003920D01*
X043940Y003845D01*
X043789Y003845D01*
X043714Y003920D01*
X043714Y004220D01*
X043789Y004295D01*
X043940Y004295D01*
X044015Y004220D01*
X043554Y004295D02*
X043554Y003920D01*
X043479Y003845D01*
X043329Y003845D01*
X043254Y003920D01*
X043254Y004295D01*
X043094Y004295D02*
X042869Y004295D01*
X042794Y004220D01*
X042794Y004070D01*
X042869Y003995D01*
X043094Y003995D01*
X043094Y003845D02*
X043094Y004295D01*
X042944Y003995D02*
X042794Y003845D01*
X042634Y003920D02*
X042558Y003845D01*
X042408Y003845D01*
X042333Y003920D01*
X042173Y003845D02*
X041873Y003845D01*
X042023Y004070D02*
X042173Y004070D01*
X042333Y004220D02*
X042408Y004295D01*
X042558Y004295D01*
X042634Y004220D01*
X042634Y003920D01*
X042173Y003845D02*
X042173Y004295D01*
X041873Y004295D01*
X041911Y005228D02*
X041977Y005223D01*
X042049Y005231D01*
X042118Y005253D01*
X042181Y005287D01*
X042237Y005334D01*
X042282Y005390D01*
X042316Y005454D01*
X042336Y005524D01*
X042342Y005596D01*
X042336Y005668D01*
X042316Y005738D01*
X042282Y005803D01*
X042237Y005860D01*
X042181Y005907D01*
X042118Y005942D01*
X042048Y005964D01*
X041976Y005972D01*
X041910Y005967D01*
X041846Y005951D01*
X041786Y005923D01*
X041731Y005886D01*
X041684Y005840D01*
X041645Y005786D01*
X041616Y005727D01*
X041599Y005663D01*
X041592Y005597D01*
X041599Y005531D01*
X041617Y005468D01*
X041646Y005408D01*
X041684Y005354D01*
X041732Y005308D01*
X041787Y005271D01*
X041847Y005244D01*
X041911Y005228D01*
X041859Y005241D02*
X042081Y005241D01*
X042184Y005290D02*
X041759Y005290D01*
X041701Y005338D02*
X042240Y005338D01*
X042279Y005387D02*
X041661Y005387D01*
X041633Y005435D02*
X042305Y005435D01*
X042324Y005484D02*
X041612Y005484D01*
X041599Y005532D02*
X042336Y005532D01*
X042341Y005581D02*
X041594Y005581D01*
X041595Y005629D02*
X042339Y005629D01*
X042333Y005678D02*
X041603Y005678D01*
X041616Y005726D02*
X042319Y005726D01*
X042297Y005775D02*
X041640Y005775D01*
X041672Y005823D02*
X042266Y005823D01*
X042223Y005872D02*
X041716Y005872D01*
X041781Y005920D02*
X042157Y005920D01*
X042007Y005969D02*
X041930Y005969D01*
X042487Y006845D02*
X042487Y007295D01*
X042787Y007295D02*
X042487Y006845D01*
X042787Y006845D02*
X042787Y007295D01*
X042944Y007295D02*
X043094Y007295D01*
X043019Y007295D02*
X043019Y006845D01*
X043094Y006845D02*
X042944Y006845D01*
X043254Y006845D02*
X043254Y007145D01*
X043404Y007295D01*
X043554Y007145D01*
X043554Y006845D01*
X043714Y006845D02*
X043865Y006995D01*
X043789Y006995D02*
X044015Y006995D01*
X044015Y006845D02*
X044015Y007295D01*
X043789Y007295D01*
X043714Y007220D01*
X043714Y007070D01*
X043789Y006995D01*
X043554Y007070D02*
X043254Y007070D01*
X044175Y006920D02*
X044175Y007220D01*
X044250Y007295D01*
X044475Y007295D01*
X044475Y006845D01*
X044250Y006845D01*
X044175Y006920D01*
X042121Y008256D02*
X042052Y008234D01*
X041980Y008226D01*
X041914Y008231D01*
X041850Y008247D01*
X041790Y008274D01*
X041735Y008311D01*
X041687Y008357D01*
X041649Y008411D01*
X041620Y008471D01*
X041602Y008534D01*
X041595Y008600D01*
X041602Y008666D01*
X041619Y008730D01*
X041648Y008789D01*
X041687Y008843D01*
X041734Y008889D01*
X041789Y008926D01*
X041849Y008954D01*
X041913Y008970D01*
X041979Y008975D01*
X042051Y008967D01*
X042121Y008945D01*
X042184Y008910D01*
X042240Y008863D01*
X042285Y008806D01*
X042319Y008741D01*
X042339Y008671D01*
X042345Y008599D01*
X042339Y008527D01*
X042319Y008457D01*
X042285Y008393D01*
X042240Y008337D01*
X042184Y008290D01*
X042121Y008256D01*
X042097Y008248D02*
X041848Y008248D01*
X041756Y008297D02*
X042192Y008297D01*
X042246Y008345D02*
X041700Y008345D01*
X041661Y008394D02*
X042285Y008394D01*
X042311Y008442D02*
X041634Y008442D01*
X041614Y008491D02*
X042328Y008491D01*
X042340Y008539D02*
X041601Y008539D01*
X041596Y008588D02*
X042344Y008588D01*
X042342Y008636D02*
X041599Y008636D01*
X041607Y008685D02*
X042335Y008685D01*
X042321Y008733D02*
X041621Y008733D01*
X041644Y008782D02*
X042298Y008782D01*
X042266Y008830D02*
X041678Y008830D01*
X041723Y008879D02*
X042221Y008879D01*
X042153Y008927D02*
X041790Y008927D01*
X039145Y008890D02*
X039145Y008665D01*
X038695Y008665D01*
X038845Y008665D02*
X038845Y008890D01*
X038920Y008965D01*
X039070Y008965D01*
X039145Y008890D01*
X038845Y008815D02*
X038695Y008965D01*
X038195Y008815D02*
X037745Y008815D01*
X037745Y008665D02*
X037745Y008965D01*
X038045Y008665D02*
X038195Y008815D01*
X038195Y008504D02*
X037820Y008504D01*
X037745Y008429D01*
X037745Y008279D01*
X037820Y008204D01*
X038195Y008204D01*
X038695Y008204D02*
X038695Y008504D01*
X038920Y008354D02*
X038920Y008204D01*
X039145Y008204D02*
X038695Y008204D01*
X038695Y007894D02*
X039145Y007894D01*
X039145Y007744D02*
X039145Y008044D01*
X039145Y008204D02*
X039145Y008504D01*
X039070Y007584D02*
X038920Y007584D01*
X038845Y007509D01*
X038845Y007283D01*
X038695Y007283D02*
X039145Y007283D01*
X039145Y007509D01*
X039070Y007584D01*
X038845Y007434D02*
X038695Y007584D01*
X038695Y007123D02*
X038695Y006823D01*
X039145Y006823D01*
X039145Y007123D01*
X038920Y006973D02*
X038920Y006823D01*
X038845Y006663D02*
X039145Y006663D01*
X038845Y006663D02*
X038695Y006513D01*
X038845Y006363D01*
X039145Y006363D01*
X039145Y006202D02*
X038695Y006202D01*
X039145Y005902D01*
X038695Y005902D01*
X038695Y005745D02*
X038695Y005595D01*
X038695Y005670D02*
X039145Y005670D01*
X039145Y005595D02*
X039145Y005745D01*
X038620Y005435D02*
X038620Y005135D01*
X038695Y004975D02*
X039145Y004675D01*
X039145Y004514D02*
X039145Y004214D01*
X038695Y004214D01*
X038695Y004514D01*
X038695Y004675D02*
X039145Y004975D01*
X038920Y004364D02*
X038920Y004214D01*
X038920Y004054D02*
X038920Y003754D01*
X038695Y003754D02*
X039145Y003754D01*
X039145Y004054D02*
X038695Y004054D01*
X038620Y003594D02*
X038620Y003293D01*
X038695Y003058D02*
X039145Y003058D01*
X038920Y002833D01*
X038920Y003133D01*
X038770Y002673D02*
X038695Y002598D01*
X038695Y002448D01*
X038770Y002373D01*
X039070Y002673D01*
X038770Y002673D01*
X039070Y002673D02*
X039145Y002598D01*
X039145Y002448D01*
X039070Y002373D01*
X038770Y002373D01*
X038770Y002212D02*
X038695Y002137D01*
X038695Y001987D01*
X038770Y001912D01*
X039070Y001912D01*
X039145Y001987D01*
X039145Y002137D01*
X039070Y002212D01*
X039145Y001752D02*
X038695Y001752D01*
X038920Y001752D02*
X038920Y001452D01*
X038920Y001292D02*
X038920Y000991D01*
X039145Y001217D01*
X038695Y001217D01*
X038695Y001452D02*
X039145Y001452D01*
X039145Y000831D02*
X039070Y000831D01*
X038770Y000531D01*
X038695Y000531D01*
X039145Y000531D02*
X039145Y000831D01*
X011796Y001980D02*
X011721Y001905D01*
X011646Y001905D01*
X011571Y001980D01*
X011571Y002355D01*
X011646Y002355D02*
X011496Y002355D01*
X011336Y002355D02*
X011336Y001905D01*
X011336Y002055D02*
X011111Y002055D01*
X011036Y002130D01*
X011036Y002280D01*
X011111Y002355D01*
X011336Y002355D01*
X010875Y002280D02*
X010800Y002355D01*
X010650Y002355D01*
X010575Y002280D01*
X010575Y002205D01*
X010875Y001905D01*
X010575Y001905D01*
X004650Y016393D02*
X004575Y016393D01*
X004500Y016468D01*
X004500Y016618D01*
X004425Y016693D01*
X004350Y016693D01*
X004275Y016618D01*
X004275Y016468D01*
X004350Y016393D01*
X004650Y016393D02*
X004725Y016468D01*
X004725Y016618D01*
X004650Y016693D01*
X004725Y016853D02*
X004725Y017153D01*
X004725Y017003D02*
X004275Y017003D01*
X004275Y017313D02*
X004575Y017313D01*
X004725Y017464D01*
X004575Y017614D01*
X004275Y017614D01*
X004500Y017614D02*
X004500Y017313D01*
X004725Y017774D02*
X004725Y018074D01*
X004725Y017924D02*
X004275Y017924D01*
X004350Y018234D02*
X004725Y018234D01*
X004725Y018534D02*
X004350Y018534D01*
X004275Y018459D01*
X004275Y018309D01*
X004350Y018234D01*
X004350Y018695D02*
X004275Y018770D01*
X004275Y018920D01*
X004350Y018995D01*
X004425Y018995D01*
X004500Y018920D01*
X004500Y018770D01*
X004575Y018695D01*
X004650Y018695D01*
X004725Y018770D01*
X004725Y018920D01*
X004650Y018995D01*
X004725Y020853D02*
X004725Y021078D01*
X004650Y021153D01*
X004500Y021153D01*
X004425Y021078D01*
X004425Y020853D01*
X004275Y020853D02*
X004725Y020853D01*
X004650Y021313D02*
X004350Y021313D01*
X004275Y021388D01*
X004275Y021539D01*
X004350Y021614D01*
X004650Y021614D01*
X004725Y021539D01*
X004725Y021388D01*
X004650Y021313D01*
X004725Y021774D02*
X004275Y021774D01*
X004425Y021924D01*
X004275Y022074D01*
X004725Y022074D01*
X004725Y022234D02*
X004275Y022234D01*
X004275Y022534D01*
X004275Y022695D02*
X004725Y022695D01*
X004725Y022920D01*
X004650Y022995D01*
X004500Y022995D01*
X004425Y022920D01*
X004425Y022695D01*
X004425Y022845D02*
X004275Y022995D01*
X004725Y022534D02*
X004725Y022234D01*
X004500Y022234D02*
X004500Y022384D01*
X008092Y022097D02*
X008099Y022031D01*
X008117Y021968D01*
X008146Y021908D01*
X008184Y021854D01*
X008232Y021808D01*
X008287Y021771D01*
X008347Y021744D01*
X008411Y021728D01*
X008477Y021723D01*
X008549Y021731D01*
X008618Y021753D01*
X008681Y021787D01*
X008737Y021834D01*
X008782Y021890D01*
X008816Y021954D01*
X008836Y022024D01*
X008842Y022096D01*
X008836Y022168D01*
X008100Y022168D01*
X008099Y022163D02*
X008092Y022097D01*
X008094Y022119D02*
X008840Y022119D01*
X008840Y022071D02*
X008095Y022071D01*
X008101Y022022D02*
X008835Y022022D01*
X008821Y021974D02*
X008115Y021974D01*
X008137Y021925D02*
X008800Y021925D01*
X008771Y021877D02*
X008168Y021877D01*
X008211Y021828D02*
X008730Y021828D01*
X008667Y021780D02*
X008274Y021780D01*
X008398Y021731D02*
X008550Y021731D01*
X008836Y022168D02*
X008816Y022238D01*
X008782Y022303D01*
X008737Y022360D01*
X008681Y022407D01*
X008618Y022442D01*
X008548Y022464D01*
X008476Y022472D01*
X008410Y022467D01*
X008346Y022451D01*
X008286Y022423D01*
X008231Y022386D01*
X008184Y022340D01*
X008145Y022286D01*
X008116Y022227D01*
X008099Y022163D01*
X008114Y022216D02*
X008822Y022216D01*
X008802Y022265D02*
X008135Y022265D01*
X008165Y022313D02*
X008774Y022313D01*
X008735Y022362D02*
X008206Y022362D01*
X008266Y022410D02*
X008675Y022410D01*
X008565Y022459D02*
X008377Y022459D01*
X008463Y020477D02*
X008391Y020469D01*
X008322Y020447D01*
X008259Y020413D01*
X008203Y020366D01*
X008158Y020310D01*
X008125Y020246D01*
X008104Y020176D01*
X008098Y020104D01*
X008104Y020032D01*
X008124Y019962D01*
X008158Y019897D01*
X008203Y019840D01*
X008259Y019793D01*
X008323Y019758D01*
X008392Y019736D01*
X008464Y019728D01*
X008530Y019733D01*
X008594Y019749D01*
X008654Y019777D01*
X008709Y019814D01*
X008756Y019860D01*
X008795Y019914D01*
X008824Y019973D01*
X008842Y020037D01*
X008848Y020103D01*
X008841Y020169D01*
X008823Y020232D01*
X008795Y020292D01*
X008756Y020346D01*
X008708Y020392D01*
X008654Y020429D01*
X008593Y020456D01*
X008529Y020472D01*
X008463Y020477D01*
X008400Y020470D02*
X008537Y020470D01*
X008664Y020422D02*
X008275Y020422D01*
X008212Y020373D02*
X008728Y020373D01*
X008771Y020325D02*
X008170Y020325D01*
X008141Y020276D02*
X008802Y020276D01*
X008825Y020228D02*
X008119Y020228D01*
X008105Y020179D02*
X008838Y020179D01*
X008845Y020131D02*
X008100Y020131D01*
X008100Y020082D02*
X008846Y020082D01*
X008841Y020034D02*
X008104Y020034D01*
X008118Y019985D02*
X008827Y019985D01*
X008806Y019937D02*
X008137Y019937D01*
X008165Y019888D02*
X008777Y019888D01*
X008735Y019840D02*
X008204Y019840D01*
X008263Y019791D02*
X008676Y019791D01*
X008568Y019743D02*
X008371Y019743D01*
X008460Y017474D02*
X008388Y017466D01*
X008319Y017444D01*
X008256Y017410D01*
X008200Y017363D01*
X008155Y017307D01*
X008122Y017243D01*
X008101Y017173D01*
X008095Y017101D01*
X008101Y017029D01*
X008121Y016959D01*
X008155Y016894D01*
X008200Y016837D01*
X008256Y016790D01*
X008320Y016755D01*
X008389Y016733D01*
X008461Y016725D01*
X008527Y016730D01*
X008591Y016746D01*
X008651Y016774D01*
X008706Y016811D01*
X008753Y016857D01*
X008792Y016911D01*
X008821Y016970D01*
X008839Y017034D01*
X008845Y017100D01*
X008838Y017166D01*
X008820Y017229D01*
X008792Y017289D01*
X008753Y017343D01*
X008705Y017389D01*
X008651Y017426D01*
X008590Y017453D01*
X008526Y017469D01*
X008460Y017474D01*
X008378Y017463D02*
X008550Y017463D01*
X008667Y017415D02*
X008265Y017415D01*
X008204Y017366D02*
X008729Y017366D01*
X008771Y017318D02*
X008164Y017318D01*
X008135Y017269D02*
X008801Y017269D01*
X008823Y017221D02*
X008115Y017221D01*
X008101Y017172D02*
X008837Y017172D01*
X008843Y017124D02*
X008097Y017124D01*
X008097Y017075D02*
X008843Y017075D01*
X008836Y017027D02*
X008102Y017027D01*
X008116Y016978D02*
X008823Y016978D01*
X008801Y016930D02*
X008136Y016930D01*
X008165Y016881D02*
X008771Y016881D01*
X008728Y016833D02*
X008206Y016833D01*
X008267Y016784D02*
X008667Y016784D01*
X008549Y016736D02*
X008381Y016736D01*
X008480Y024726D02*
X008552Y024734D01*
X008621Y024756D01*
X008684Y024790D01*
X008740Y024837D01*
X008785Y024893D01*
X008819Y024957D01*
X008839Y025027D01*
X008845Y025099D01*
X008839Y025171D01*
X008819Y025241D01*
X008785Y025306D01*
X008740Y025363D01*
X008684Y025410D01*
X008621Y025445D01*
X008551Y025467D01*
X008479Y025475D01*
X008413Y025470D01*
X008349Y025454D01*
X008289Y025426D01*
X008234Y025389D01*
X008187Y025343D01*
X008148Y025289D01*
X008119Y025230D01*
X008102Y025166D01*
X008095Y025100D01*
X008102Y025034D01*
X008120Y024971D01*
X008149Y024911D01*
X008187Y024857D01*
X008235Y024811D01*
X008290Y024774D01*
X008350Y024747D01*
X008414Y024731D01*
X008480Y024726D01*
X008566Y024738D02*
X008385Y024738D01*
X008271Y024787D02*
X008678Y024787D01*
X008738Y024835D02*
X008210Y024835D01*
X008168Y024884D02*
X008777Y024884D01*
X008805Y024932D02*
X008138Y024932D01*
X008117Y024981D02*
X008825Y024981D01*
X008839Y025029D02*
X008103Y025029D01*
X008097Y025078D02*
X008843Y025078D01*
X008843Y025126D02*
X008098Y025126D01*
X008104Y025175D02*
X008838Y025175D01*
X008824Y025223D02*
X008118Y025223D01*
X008140Y025272D02*
X008803Y025272D01*
X008774Y025320D02*
X008170Y025320D01*
X008213Y025369D02*
X008733Y025369D01*
X008671Y025417D02*
X008275Y025417D01*
X008396Y025466D02*
X008555Y025466D01*
X006665Y025320D02*
X006590Y025395D01*
X006515Y025395D01*
X006440Y025320D01*
X006440Y025095D01*
X006215Y025095D02*
X006665Y025095D01*
X006665Y025320D01*
X006440Y025320D02*
X006365Y025395D01*
X006290Y025395D01*
X006215Y025320D01*
X006215Y025095D01*
X006215Y025555D02*
X006515Y025555D01*
X006665Y025706D01*
X006515Y025856D01*
X006215Y025856D01*
X006440Y025856D02*
X006440Y025555D01*
X006665Y026016D02*
X006665Y026316D01*
X006665Y026166D02*
X006215Y026166D01*
X006665Y026476D02*
X006665Y026776D01*
X006665Y026626D02*
X006215Y026626D01*
X006215Y026937D02*
X006215Y027237D01*
X006215Y027397D02*
X006665Y027397D01*
X006665Y027622D01*
X006590Y027697D01*
X006440Y027697D01*
X006365Y027622D01*
X006365Y027397D01*
X006365Y027547D02*
X006215Y027697D01*
X006215Y028007D02*
X006440Y028007D01*
X006590Y028158D01*
X006665Y028158D01*
X006665Y028170D02*
X006590Y028095D01*
X006290Y028095D01*
X006215Y028170D01*
X006215Y028320D01*
X006290Y028395D01*
X006590Y028395D01*
X006665Y028320D01*
X006665Y028170D01*
X006440Y028007D02*
X006590Y027857D01*
X006665Y027857D01*
X006665Y027237D02*
X006665Y026937D01*
X006215Y026937D01*
X006440Y026937D02*
X006440Y027087D01*
X006215Y028555D02*
X006665Y028555D01*
X006215Y028856D01*
X006665Y028856D01*
X006665Y029316D02*
X006215Y029016D01*
X006290Y029476D02*
X006590Y029476D01*
X006665Y029551D01*
X006665Y029701D01*
X006590Y029776D01*
X006290Y029776D01*
X006215Y029701D01*
X006215Y029551D01*
X006290Y029476D01*
X006215Y029937D02*
X006665Y029937D01*
X006665Y030237D01*
X006665Y030397D02*
X006665Y030697D01*
X006440Y030547D02*
X006440Y030397D01*
X006215Y030397D02*
X006665Y030397D01*
X006440Y030087D02*
X006440Y029937D01*
X010725Y026355D02*
X010725Y025905D01*
X010875Y025905D02*
X010575Y025905D01*
X010875Y026205D02*
X010725Y026355D01*
X011036Y026280D02*
X011036Y026130D01*
X011111Y026055D01*
X011336Y026055D01*
X011336Y025905D02*
X011336Y026355D01*
X011111Y026355D01*
X011036Y026280D01*
X011496Y026355D02*
X011646Y026355D01*
X011571Y026355D02*
X011571Y025980D01*
X011646Y025905D01*
X011721Y025905D01*
X011796Y025980D01*
X031095Y024600D02*
X031102Y024534D01*
X031120Y024471D01*
X031149Y024411D01*
X031187Y024357D01*
X031235Y024311D01*
X031290Y024274D01*
X031350Y024247D01*
X031414Y024231D01*
X031480Y024226D01*
X031552Y024234D01*
X031621Y024256D01*
X031684Y024290D01*
X031740Y024337D01*
X031785Y024393D01*
X031819Y024457D01*
X031839Y024527D01*
X031845Y024599D01*
X031839Y024671D01*
X031819Y024741D01*
X031785Y024806D01*
X031740Y024863D01*
X031684Y024910D01*
X031621Y024945D01*
X031551Y024967D01*
X031479Y024975D01*
X031413Y024970D01*
X031349Y024954D01*
X031289Y024926D01*
X031234Y024889D01*
X031187Y024843D01*
X031148Y024789D01*
X031119Y024730D01*
X031102Y024666D01*
X031095Y024600D01*
X031096Y024593D02*
X031845Y024593D01*
X031841Y024641D02*
X031099Y024641D01*
X031108Y024690D02*
X031834Y024690D01*
X031820Y024738D02*
X031124Y024738D01*
X031147Y024787D02*
X031795Y024787D01*
X031762Y024835D02*
X031181Y024835D01*
X031228Y024884D02*
X031715Y024884D01*
X031644Y024932D02*
X031301Y024932D01*
X031101Y024544D02*
X031840Y024544D01*
X031830Y024496D02*
X031113Y024496D01*
X031131Y024447D02*
X031813Y024447D01*
X031788Y024399D02*
X031158Y024399D01*
X031195Y024350D02*
X031750Y024350D01*
X031698Y024302D02*
X031249Y024302D01*
X031336Y024253D02*
X031613Y024253D01*
X031476Y021972D02*
X031410Y021967D01*
X031346Y021951D01*
X031286Y021923D01*
X031231Y021886D01*
X031184Y021840D01*
X031145Y021786D01*
X031116Y021727D01*
X031099Y021663D01*
X031092Y021597D01*
X031099Y021531D01*
X031117Y021468D01*
X031146Y021408D01*
X031184Y021354D01*
X031232Y021308D01*
X031287Y021271D01*
X031347Y021244D01*
X031411Y021228D01*
X031477Y021223D01*
X031549Y021231D01*
X031618Y021253D01*
X031681Y021287D01*
X031737Y021334D01*
X031782Y021390D01*
X031816Y021454D01*
X031836Y021524D01*
X031842Y021596D01*
X031836Y021668D01*
X031816Y021738D01*
X031782Y021803D01*
X031737Y021860D01*
X031681Y021907D01*
X031618Y021942D01*
X031548Y021964D01*
X031476Y021972D01*
X031648Y021925D02*
X031289Y021925D01*
X031221Y021877D02*
X031717Y021877D01*
X031762Y021828D02*
X031175Y021828D01*
X031142Y021780D02*
X031794Y021780D01*
X031818Y021731D02*
X031119Y021731D01*
X031104Y021683D02*
X031832Y021683D01*
X031839Y021634D02*
X031096Y021634D01*
X031093Y021586D02*
X031841Y021586D01*
X031837Y021537D02*
X031098Y021537D01*
X031111Y021489D02*
X031825Y021489D01*
X031808Y021440D02*
X031130Y021440D01*
X031157Y021392D02*
X031783Y021392D01*
X031744Y021343D02*
X031196Y021343D01*
X031252Y021295D02*
X031690Y021295D01*
X031597Y021246D02*
X031342Y021246D01*
X041014Y024775D02*
X041314Y024775D01*
X041164Y024775D02*
X041164Y025225D01*
X041314Y025075D01*
X041474Y025150D02*
X041474Y024850D01*
X041549Y024775D01*
X041774Y024775D01*
X041774Y025225D01*
X041549Y025225D01*
X041474Y025150D01*
X041934Y025225D02*
X042235Y025225D01*
X042235Y024775D01*
X041934Y024775D01*
X042085Y025000D02*
X042235Y025000D01*
X042395Y024775D02*
X042695Y024775D01*
X042695Y025225D01*
D15*
X043440Y014890D02*
X043441Y012310D01*
X041002Y012310D01*
X041002Y014890D01*
X043441Y014890D01*
X043481Y014610D02*
X043481Y012590D01*
X043761Y012590D01*
X043941Y012770D01*
X043941Y014430D01*
X043761Y014610D01*
X043481Y014610D01*
X039620Y010600D02*
X039620Y010500D01*
X039620Y010600D02*
X038870Y010600D01*
X038868Y010561D01*
X038862Y010522D01*
X038853Y010484D01*
X038840Y010447D01*
X038823Y010411D01*
X038803Y010378D01*
X038779Y010346D01*
X038753Y010317D01*
X038724Y010291D01*
X038692Y010267D01*
X038659Y010247D01*
X038623Y010230D01*
X038586Y010217D01*
X038548Y010208D01*
X038509Y010202D01*
X038470Y010200D01*
X038431Y010202D01*
X038392Y010208D01*
X038354Y010217D01*
X038317Y010230D01*
X038281Y010247D01*
X038248Y010267D01*
X038216Y010291D01*
X038187Y010317D01*
X038161Y010346D01*
X038137Y010378D01*
X038117Y010411D01*
X038100Y010447D01*
X038087Y010484D01*
X038078Y010522D01*
X038072Y010561D01*
X038070Y010600D01*
X037320Y010600D01*
X037320Y010500D01*
X037320Y009730D02*
X037320Y009470D01*
X037320Y008730D02*
X037320Y008470D01*
X037320Y007730D02*
X037320Y007470D01*
X037320Y006730D02*
X037320Y006470D01*
X037320Y005730D02*
X037320Y005470D01*
X037320Y004730D02*
X037320Y004470D01*
X037320Y003700D02*
X037320Y003600D01*
X039620Y003600D01*
X039620Y003700D01*
X039620Y004470D02*
X039620Y004730D01*
X039620Y005470D02*
X039620Y005730D01*
X039620Y006470D02*
X039620Y006730D01*
X039620Y007470D02*
X039620Y007730D01*
X039620Y008470D02*
X039620Y008730D01*
X039620Y009470D02*
X039620Y009730D01*
D16*
X039970Y010100D03*
X039970Y009100D03*
X039970Y008100D03*
X039970Y007100D03*
X039970Y006100D03*
X039970Y005100D03*
X039970Y004100D03*
X036970Y004100D03*
X036970Y005100D03*
X036970Y006100D03*
X036970Y007100D03*
X036970Y008100D03*
X036970Y009100D03*
X036970Y010100D03*
X042970Y024600D03*
X043970Y024600D03*
D17*
X043970Y024600D03*
X042970Y024600D03*
X039970Y010100D03*
X039970Y009100D03*
X039970Y008100D03*
X039970Y007100D03*
X039970Y006100D03*
X039970Y005100D03*
X039970Y004100D03*
X036970Y004100D03*
X036970Y005100D03*
X036970Y006100D03*
X036970Y007100D03*
X036970Y008100D03*
X036970Y009100D03*
X036970Y010100D03*
D18*
X040380Y012702D03*
X040380Y012702D03*
X040380Y014498D03*
X040380Y014498D03*
D19*
X043095Y013600D03*
X043095Y013600D03*
D20*
X040392Y012700D03*
X040392Y014500D03*
D21*
X040812Y013600D03*
D22*
X043481Y013603D02*
X043941Y013603D01*
X043941Y013526D02*
X043481Y013526D01*
X043481Y013449D02*
X043941Y013449D01*
X043941Y013372D02*
X043481Y013372D01*
X043481Y013295D02*
X043941Y013295D01*
X043941Y013217D02*
X043481Y013217D01*
X043481Y013140D02*
X043941Y013140D01*
X043941Y013063D02*
X043481Y013063D01*
X043481Y012986D02*
X043941Y012986D01*
X043941Y012909D02*
X043481Y012909D01*
X043481Y012832D02*
X043941Y012832D01*
X043941Y012770D02*
X043941Y014430D01*
X043761Y014610D01*
X043481Y014610D01*
X043481Y012590D01*
X043761Y012590D01*
X043941Y012770D01*
X043925Y012755D02*
X043481Y012755D01*
X043481Y012677D02*
X043848Y012677D01*
X043771Y012600D02*
X043481Y012600D01*
X043481Y013680D02*
X043941Y013680D01*
X043941Y013758D02*
X043481Y013758D01*
X043481Y013835D02*
X043941Y013835D01*
X043941Y013912D02*
X043481Y013912D01*
X043481Y013989D02*
X043941Y013989D01*
X043941Y014066D02*
X043481Y014066D01*
X043481Y014143D02*
X043941Y014143D01*
X043941Y014221D02*
X043481Y014221D01*
X043481Y014298D02*
X043941Y014298D01*
X043941Y014375D02*
X043481Y014375D01*
X043481Y014452D02*
X043919Y014452D01*
X043841Y014529D02*
X043481Y014529D01*
X043481Y014606D02*
X043764Y014606D01*
D23*
X043720Y006600D02*
X044220Y006600D01*
X044470Y006350D01*
X044470Y005850D01*
X044220Y005600D01*
X043720Y005600D01*
X043470Y005850D01*
X043470Y006350D01*
X043720Y006600D01*
X043720Y003600D02*
X044220Y003600D01*
X044470Y003350D01*
X044470Y002850D01*
X044220Y002600D01*
X043720Y002600D01*
X043470Y002850D01*
X043470Y003350D01*
X043720Y003600D01*
X035470Y003350D02*
X035470Y002850D01*
X035220Y002600D01*
X034720Y002600D01*
X034470Y002850D01*
X034470Y003350D01*
X034720Y003600D01*
X035220Y003600D01*
X035470Y003350D01*
X034470Y003350D02*
X034220Y003600D01*
X033720Y003600D01*
X033470Y003350D01*
X033220Y003600D01*
X032720Y003600D01*
X032470Y003350D01*
X032470Y002850D01*
X032720Y002600D01*
X033220Y002600D01*
X033470Y002850D01*
X033720Y002600D01*
X034220Y002600D01*
X034470Y002850D01*
X033470Y002850D02*
X033470Y003350D01*
X032470Y003350D02*
X032220Y003600D01*
X031720Y003600D01*
X031470Y003350D01*
X031220Y003600D01*
X030720Y003600D01*
X030470Y003350D01*
X030470Y002850D01*
X030720Y002600D01*
X031220Y002600D01*
X031470Y002850D01*
X031720Y002600D01*
X032220Y002600D01*
X032470Y002850D01*
X031470Y002850D02*
X031470Y003350D01*
X030470Y003350D02*
X030220Y003600D01*
X029720Y003600D01*
X029470Y003350D01*
X029220Y003600D01*
X028720Y003600D01*
X028470Y003350D01*
X028220Y003600D01*
X027720Y003600D01*
X027470Y003350D01*
X027220Y003600D01*
X026720Y003600D01*
X026470Y003350D01*
X026220Y003600D01*
X025720Y003600D01*
X025470Y003350D01*
X025220Y003600D01*
X024720Y003600D01*
X024470Y003350D01*
X024220Y003600D01*
X023720Y003600D01*
X023470Y003350D01*
X023220Y003600D01*
X022720Y003600D01*
X022470Y003350D01*
X022220Y003600D01*
X021720Y003600D01*
X021470Y003350D01*
X021220Y003600D01*
X020720Y003600D01*
X020470Y003350D01*
X020220Y003600D01*
X019720Y003600D01*
X019470Y003350D01*
X019220Y003600D01*
X018720Y003600D01*
X018470Y003350D01*
X018220Y003600D01*
X017720Y003600D01*
X017470Y003350D01*
X017220Y003600D01*
X016720Y003600D01*
X016470Y003350D01*
X016220Y003600D01*
X015720Y003600D01*
X015470Y003350D01*
X015220Y003600D01*
X014720Y003600D01*
X014470Y003350D01*
X014220Y003600D01*
X013720Y003600D01*
X013470Y003350D01*
X013220Y003600D01*
X012720Y003600D01*
X012470Y003350D01*
X012220Y003600D01*
X011720Y003600D01*
X011470Y003350D01*
X011220Y003600D01*
X010720Y003600D01*
X010470Y003350D01*
X010470Y002850D01*
X010720Y002600D01*
X011220Y002600D01*
X011470Y002850D01*
X011720Y002600D01*
X012220Y002600D01*
X012470Y002850D01*
X012470Y003350D01*
X012470Y002850D02*
X012720Y002600D01*
X013220Y002600D01*
X013470Y002850D01*
X013720Y002600D01*
X014220Y002600D01*
X014470Y002850D01*
X014720Y002600D01*
X015220Y002600D01*
X015470Y002850D01*
X015470Y003350D01*
X015470Y002850D02*
X015720Y002600D01*
X016220Y002600D01*
X016470Y002850D01*
X016720Y002600D01*
X017220Y002600D01*
X017470Y002850D01*
X017720Y002600D01*
X018220Y002600D01*
X018470Y002850D01*
X018470Y003350D01*
X018470Y002850D02*
X018720Y002600D01*
X019220Y002600D01*
X019470Y002850D01*
X019720Y002600D01*
X020220Y002600D01*
X020470Y002850D01*
X020720Y002600D01*
X021220Y002600D01*
X021470Y002850D01*
X021470Y003350D01*
X021470Y002850D02*
X021720Y002600D01*
X022220Y002600D01*
X022470Y002850D01*
X022720Y002600D01*
X023220Y002600D01*
X023470Y002850D01*
X023720Y002600D01*
X024220Y002600D01*
X024470Y002850D01*
X024470Y003350D01*
X024470Y002850D02*
X024720Y002600D01*
X025220Y002600D01*
X025470Y002850D01*
X025720Y002600D01*
X026220Y002600D01*
X026470Y002850D01*
X026720Y002600D01*
X027220Y002600D01*
X027470Y002850D01*
X027470Y003350D01*
X027470Y002850D02*
X027720Y002600D01*
X028220Y002600D01*
X028470Y002850D01*
X028720Y002600D01*
X029220Y002600D01*
X029470Y002850D01*
X029720Y002600D01*
X030220Y002600D01*
X030470Y002850D01*
X029470Y002850D02*
X029470Y003350D01*
X028470Y003350D02*
X028470Y002850D01*
X026470Y002850D02*
X026470Y003350D01*
X025470Y003350D02*
X025470Y002850D01*
X023470Y002850D02*
X023470Y003350D01*
X022470Y003350D02*
X022470Y002850D01*
X020470Y002850D02*
X020470Y003350D01*
X019470Y003350D02*
X019470Y002850D01*
X017470Y002850D02*
X017470Y003350D01*
X016470Y003350D02*
X016470Y002850D01*
X014470Y002850D02*
X014470Y003350D01*
X013470Y003350D02*
X013470Y002850D01*
X011470Y002850D02*
X011470Y003350D01*
X005720Y017100D02*
X005970Y017350D01*
X005970Y017850D01*
X005720Y018100D01*
X005970Y018350D01*
X005970Y018850D01*
X005720Y019100D01*
X005220Y019100D01*
X004970Y018850D01*
X004970Y018350D01*
X005220Y018100D01*
X004970Y017850D01*
X004970Y017350D01*
X005220Y017100D01*
X005720Y017100D01*
X005720Y018100D02*
X005220Y018100D01*
X005220Y021100D02*
X005720Y021100D01*
X005970Y021350D01*
X005970Y021850D01*
X005720Y022100D01*
X005970Y022350D01*
X005970Y022850D01*
X005720Y023100D01*
X005220Y023100D01*
X004970Y022850D01*
X004970Y022350D01*
X005220Y022100D01*
X004970Y021850D01*
X004970Y021350D01*
X005220Y021100D01*
X005220Y022100D02*
X005720Y022100D01*
X005720Y025100D02*
X005970Y025350D01*
X005970Y025850D01*
X005720Y026100D01*
X005970Y026350D01*
X005970Y026850D01*
X005720Y027100D01*
X005220Y027100D01*
X004970Y026850D01*
X004970Y026350D01*
X005220Y026100D01*
X004970Y025850D01*
X004970Y025350D01*
X005220Y025100D01*
X005720Y025100D01*
X005720Y026100D02*
X005220Y026100D01*
X005220Y028100D02*
X005720Y028100D01*
X005970Y028350D01*
X005970Y028850D01*
X005720Y029100D01*
X005970Y029350D01*
X005970Y029850D01*
X005720Y030100D01*
X005220Y030100D01*
X004970Y029850D01*
X004970Y029350D01*
X005220Y029100D01*
X004970Y028850D01*
X004970Y028350D01*
X005220Y028100D01*
X005220Y029100D02*
X005720Y029100D01*
X010470Y027350D02*
X010470Y026850D01*
X010720Y026600D01*
X011220Y026600D01*
X011470Y026850D01*
X011720Y026600D01*
X012220Y026600D01*
X012470Y026850D01*
X012470Y027350D01*
X012220Y027600D01*
X011720Y027600D01*
X011470Y027350D01*
X011220Y027600D01*
X010720Y027600D01*
X010470Y027350D01*
X011470Y027350D02*
X011470Y026850D01*
X012470Y026850D02*
X012720Y026600D01*
X013220Y026600D01*
X013470Y026850D01*
X013720Y026600D01*
X014220Y026600D01*
X014470Y026850D01*
X014720Y026600D01*
X015220Y026600D01*
X015470Y026850D01*
X015470Y027350D01*
X015220Y027600D01*
X014720Y027600D01*
X014470Y027350D01*
X014220Y027600D01*
X013720Y027600D01*
X013470Y027350D01*
X013220Y027600D01*
X012720Y027600D01*
X012470Y027350D01*
X013470Y027350D02*
X013470Y026850D01*
X014470Y026850D02*
X014470Y027350D01*
X015470Y027350D02*
X015720Y027600D01*
X016220Y027600D01*
X016470Y027350D01*
X016720Y027600D01*
X017220Y027600D01*
X017470Y027350D01*
X017720Y027600D01*
X018220Y027600D01*
X018470Y027350D01*
X018470Y026850D01*
X018220Y026600D01*
X017720Y026600D01*
X017470Y026850D01*
X017470Y027350D01*
X017470Y026850D02*
X017220Y026600D01*
X016720Y026600D01*
X016470Y026850D01*
X016470Y027350D01*
X016470Y026850D02*
X016220Y026600D01*
X015720Y026600D01*
X015470Y026850D01*
X018470Y026850D02*
X018720Y026600D01*
X019220Y026600D01*
X019470Y026850D01*
X019720Y026600D01*
X020220Y026600D01*
X020470Y026850D01*
X020720Y026600D01*
X021220Y026600D01*
X021470Y026850D01*
X021470Y027350D01*
X021220Y027600D01*
X020720Y027600D01*
X020470Y027350D01*
X020220Y027600D01*
X019720Y027600D01*
X019470Y027350D01*
X019220Y027600D01*
X018720Y027600D01*
X018470Y027350D01*
X019470Y027350D02*
X019470Y026850D01*
X020470Y026850D02*
X020470Y027350D01*
X021470Y027350D02*
X021720Y027600D01*
X022220Y027600D01*
X022470Y027350D01*
X022720Y027600D01*
X023220Y027600D01*
X023470Y027350D01*
X023720Y027600D01*
X024220Y027600D01*
X024470Y027350D01*
X024470Y026850D01*
X024220Y026600D01*
X023720Y026600D01*
X023470Y026850D01*
X023470Y027350D01*
X023470Y026850D02*
X023220Y026600D01*
X022720Y026600D01*
X022470Y026850D01*
X022470Y027350D01*
X022470Y026850D02*
X022220Y026600D01*
X021720Y026600D01*
X021470Y026850D01*
X024470Y026850D02*
X024720Y026600D01*
X025220Y026600D01*
X025470Y026850D01*
X025720Y026600D01*
X026220Y026600D01*
X026470Y026850D01*
X026720Y026600D01*
X027220Y026600D01*
X027470Y026850D01*
X027470Y027350D01*
X027220Y027600D01*
X026720Y027600D01*
X026470Y027350D01*
X026220Y027600D01*
X025720Y027600D01*
X025470Y027350D01*
X025220Y027600D01*
X024720Y027600D01*
X024470Y027350D01*
X025470Y027350D02*
X025470Y026850D01*
X026470Y026850D02*
X026470Y027350D01*
X027470Y027350D02*
X027720Y027600D01*
X028220Y027600D01*
X028470Y027350D01*
X028720Y027600D01*
X029220Y027600D01*
X029470Y027350D01*
X029720Y027600D01*
X030220Y027600D01*
X030470Y027350D01*
X030720Y027600D01*
X031220Y027600D01*
X031470Y027350D01*
X031720Y027600D01*
X032220Y027600D01*
X032470Y027350D01*
X032720Y027600D01*
X033220Y027600D01*
X033470Y027350D01*
X033720Y027600D01*
X034220Y027600D01*
X034470Y027350D01*
X034720Y027600D01*
X035220Y027600D01*
X035470Y027350D01*
X035470Y026850D01*
X035220Y026600D01*
X034720Y026600D01*
X034470Y026850D01*
X034470Y027350D01*
X034470Y026850D02*
X034220Y026600D01*
X033720Y026600D01*
X033470Y026850D01*
X033470Y027350D01*
X033470Y026850D02*
X033220Y026600D01*
X032720Y026600D01*
X032470Y026850D01*
X032470Y027350D01*
X032470Y026850D02*
X032220Y026600D01*
X031720Y026600D01*
X031470Y026850D01*
X031470Y027350D01*
X031470Y026850D02*
X031220Y026600D01*
X030720Y026600D01*
X030470Y026850D01*
X030470Y027350D01*
X030470Y026850D02*
X030220Y026600D01*
X029720Y026600D01*
X029470Y026850D01*
X029470Y027350D01*
X029470Y026850D02*
X029220Y026600D01*
X028720Y026600D01*
X028470Y026850D01*
X028470Y027350D01*
X028470Y026850D02*
X028220Y026600D01*
X027720Y026600D01*
X027470Y026850D01*
D24*
X026970Y027100D03*
X027970Y027100D03*
X028970Y027100D03*
X029970Y027100D03*
X030970Y027100D03*
X031970Y027100D03*
X032970Y027100D03*
X033970Y027100D03*
X034970Y027100D03*
X025970Y027100D03*
X024970Y027100D03*
X023970Y027100D03*
X022970Y027100D03*
X021970Y027100D03*
X020970Y027100D03*
X019970Y027100D03*
X018970Y027100D03*
X017970Y027100D03*
X016970Y027100D03*
X015970Y027100D03*
X014970Y027100D03*
X013970Y027100D03*
X012970Y027100D03*
X011970Y027100D03*
X010970Y027100D03*
X005470Y026600D03*
X005470Y025600D03*
X005470Y022600D03*
X005470Y021600D03*
X005470Y018600D03*
X005470Y017600D03*
X005470Y028600D03*
X005470Y029600D03*
X010970Y003100D03*
X011970Y003100D03*
X012970Y003100D03*
X013970Y003100D03*
X014970Y003100D03*
X015970Y003100D03*
X016970Y003100D03*
X017970Y003100D03*
X018970Y003100D03*
X019970Y003100D03*
X020970Y003100D03*
X021970Y003100D03*
X022970Y003100D03*
X023970Y003100D03*
X024970Y003100D03*
X025970Y003100D03*
X026970Y003100D03*
X027970Y003100D03*
X028970Y003100D03*
X029970Y003100D03*
X030970Y003100D03*
X031970Y003100D03*
X032970Y003100D03*
X033970Y003100D03*
X034970Y003100D03*
X043970Y003100D03*
X043970Y006100D03*
D25*
X043970Y006100D03*
X043970Y003100D03*
X034970Y003100D03*
X033970Y003100D03*
X032970Y003100D03*
X031970Y003100D03*
X030970Y003100D03*
X029970Y003100D03*
X028970Y003100D03*
X027970Y003100D03*
X026970Y003100D03*
X025970Y003100D03*
X024970Y003100D03*
X023970Y003100D03*
X022970Y003100D03*
X021970Y003100D03*
X020970Y003100D03*
X019970Y003100D03*
X018970Y003100D03*
X017970Y003100D03*
X016970Y003100D03*
X015970Y003100D03*
X014970Y003100D03*
X013970Y003100D03*
X012970Y003100D03*
X011970Y003100D03*
X010970Y003100D03*
X005470Y017600D03*
X005470Y018600D03*
X005470Y021600D03*
X005470Y022600D03*
X005470Y025600D03*
X005470Y026600D03*
X005470Y028600D03*
X005470Y029600D03*
X010970Y027100D03*
X011970Y027100D03*
X012970Y027100D03*
X013970Y027100D03*
X014970Y027100D03*
X015970Y027100D03*
X016970Y027100D03*
X017970Y027100D03*
X018970Y027100D03*
X019970Y027100D03*
X020970Y027100D03*
X021970Y027100D03*
X022970Y027100D03*
X023970Y027100D03*
X024970Y027100D03*
X025970Y027100D03*
X026970Y027100D03*
X027970Y027100D03*
X028970Y027100D03*
X029970Y027100D03*
X030970Y027100D03*
X031970Y027100D03*
X032970Y027100D03*
X033970Y027100D03*
X034970Y027100D03*
D26*
X032470Y025600D02*
X031470Y024600D01*
X032470Y025600D02*
X043970Y025600D01*
X043970Y024600D01*
X042970Y024600D02*
X042970Y013600D01*
X043095Y013600D01*
X043970Y013600D01*
X043970Y006100D01*
X042970Y005600D02*
X041970Y005600D01*
X041970Y003100D01*
X040970Y003100D01*
X039970Y004100D01*
X037970Y002100D01*
X010970Y002100D01*
X010970Y003100D01*
X011970Y003100D02*
X011970Y019100D01*
X007970Y019100D01*
X005470Y021600D01*
X004470Y021600D01*
X004470Y023100D01*
X004970Y023600D01*
X004970Y025600D01*
X004470Y026100D01*
X004470Y028600D01*
X005470Y028600D01*
X005470Y029600D02*
X018970Y029600D01*
X018970Y027100D01*
X011970Y027100D02*
X011970Y027600D01*
X011470Y028100D01*
X006970Y028100D01*
X005470Y026600D01*
X005470Y025600D02*
X004970Y025600D01*
X007970Y025100D02*
X005470Y022600D01*
X008470Y022100D02*
X010970Y022100D01*
X011470Y021600D01*
X031470Y021600D01*
X036970Y021600D01*
X036970Y010100D01*
X037970Y010600D02*
X037970Y008100D01*
X036970Y008100D01*
X036970Y009100D02*
X031470Y009100D01*
X025970Y003600D01*
X025970Y003100D01*
X037970Y010600D02*
X039470Y012100D01*
X041970Y009600D01*
X041970Y008600D01*
X042970Y009600D02*
X042970Y005600D01*
X043970Y003100D02*
X041970Y003100D01*
X042970Y009600D02*
X041470Y011100D01*
X041470Y013600D01*
X040470Y014600D01*
X040380Y014498D01*
X040380Y012702D02*
X039970Y012600D01*
X039470Y012100D01*
X029970Y027100D02*
X029970Y027600D01*
X026970Y030600D01*
X003470Y030600D01*
X003470Y020600D01*
X005470Y018600D01*
X005470Y017600D02*
X007970Y017600D01*
X008470Y017100D01*
X008470Y020100D02*
X008470Y022100D01*
X010970Y022100D02*
X010970Y027100D01*
X008470Y025100D02*
X007970Y025100D01*
M02*
